<svg width="71" height="78" viewBox="0 0 71 78" fill="none" xmlns="http://www.w3.org/2000/svg">
<path d="M23.463 51.6935C29.91 52.0129 38.0592 58.4307 43.8278 50.8643C48.6656 44.5183 46.2742 38.0794 53.5586 33.5188C58.8586 30.1872 67.5866 24.3299 62.2675 17.8042C58.106 12.7 50.1284 11.0669 43.4398 11.9934C38.1843 12.7232 26.8275 16.0929 24.0376 22.6017C20.9042 29.9164 28.7418 36.2877 18.2097 38.7457C11.8709 40.2264 3.70251 44.2666 5.86279 53.2017C6.71079 56.73 9.22087 56.199 12.0447 54.9108C16.2148 53.0071 19.028 51.4756 23.463 51.6935Z" fill="#FFCA40"/>
<path opacity="0.9" d="M23.463 51.6935C29.91 52.0129 38.0592 58.4307 43.8278 50.8643C48.6656 44.5183 46.2742 38.0794 53.5586 33.5188C58.8586 30.1872 67.5866 24.3299 62.2675 17.8042C58.106 12.7 50.1284 11.0669 43.4398 11.9934C38.1843 12.7232 26.8275 16.0929 24.0376 22.6017C20.9042 29.9164 28.7418 36.2877 18.2097 38.7457C11.8709 40.2264 3.70251 44.2666 5.86279 53.2017C6.71079 56.73 9.22087 56.199 12.0447 54.9108C16.2148 53.0071 19.028 51.4756 23.463 51.6935Z" fill="#292929"/>
<path d="M45.6913 18.0051C49.6599 16.6534 52.4159 14.0262 52.6491 10.8258C53.0159 5.78714 46.9908 1.24347 39.1913 0.672336C31.3919 0.101204 24.7753 3.73741 24.4065 8.77818C24.1075 12.8924 28.0677 16.6746 33.7748 18.2315C32.2908 19.8814 29.8591 20.4885 29.8591 20.4885C29.8591 20.4885 34.504 20.2198 36.1258 18.7391C36.694 18.8259 37.2727 18.8936 37.8642 18.9359C39.8013 19.0825 41.7494 18.9579 43.6518 18.5657C45.1252 20.1204 48.9327 21.159 48.9327 21.159C48.9327 21.159 46.6092 20.0083 45.6913 18.0051Z" fill="white"/>
<path opacity="0.3" d="M45.6913 18.0051C49.6599 16.6534 52.4159 14.0262 52.6491 10.8258C53.0159 5.78714 46.9908 1.24347 39.1913 0.672336C31.3919 0.101204 24.7753 3.73741 24.4065 8.77818C24.1075 12.8924 28.0677 16.6746 33.7748 18.2315C32.2908 19.8814 29.8591 20.4885 29.8591 20.4885C29.8591 20.4885 34.504 20.2198 36.1258 18.7391C36.694 18.8259 37.2727 18.8936 37.8642 18.9359C39.8013 19.0825 41.7494 18.9579 43.6518 18.5657C45.1252 20.1204 48.9327 21.159 48.9327 21.159C48.9327 21.159 46.6092 20.0083 45.6913 18.0051Z" fill="#FFCA40"/>
<path d="M46.904 14.246L45.2292 14.3813C45.335 14.6268 45.386 14.8923 45.3788 15.1594C45.3716 15.4265 45.3064 15.6889 45.1875 15.9283C45.0687 16.1678 44.8992 16.3786 44.6906 16.5462C44.4821 16.7139 44.2395 16.8343 43.9797 16.8992C43.72 16.964 43.4491 16.9718 43.186 16.922C42.923 16.8722 42.6739 16.7659 42.456 16.6105C42.2381 16.4551 42.0567 16.2544 41.9242 16.0222C41.7917 15.79 41.7114 15.5318 41.6888 15.2655C41.6723 15.0639 41.6895 14.8608 41.7397 14.6648L38.9074 14.8954L38.6763 12.0672C39.1243 12.1863 39.6013 12.124 40.0034 11.8937C40.3215 11.7173 40.5818 11.453 40.7529 11.1325C40.924 10.8121 40.9987 10.4491 40.968 10.0873C40.9389 9.79781 40.8415 9.51935 40.6838 9.27467C40.5261 9.02999 40.3125 8.82605 40.0607 8.67955C39.8088 8.53304 39.5257 8.44813 39.2346 8.43177C38.9435 8.41541 38.6527 8.46806 38.3859 8.58541L38.1548 5.75936L40.9892 5.5288C40.8764 5.27485 40.8242 4.99825 40.8366 4.72075C40.8584 4.27378 41.0407 3.84957 41.3502 3.52565C41.6596 3.20173 42.0756 2.99974 42.522 2.95659C42.816 2.93027 43.112 2.97466 43.3852 3.08603C43.6585 3.1974 43.901 3.37251 44.0924 3.59667C44.2839 3.82084 44.4187 4.08752 44.4855 4.37438C44.5524 4.66124 44.5493 4.9599 44.4766 5.24535L46.1535 5.10997C46.4598 5.08537 46.7634 5.18286 46.9978 5.38108C47.2323 5.5793 47.3784 5.86211 47.4043 6.16762L47.964 13C47.9887 13.3054 47.8909 13.6081 47.6922 13.8417C47.4935 14.0752 47.21 14.2206 46.904 14.246Z" fill="#263238"/>
<path d="M39.1872 8.43546C38.912 8.42533 38.6381 8.4774 38.3859 8.58776L38.1548 5.76172L35.3246 5.99017C35.4126 6.19096 35.4636 6.40593 35.4751 6.62476C35.4905 7.10307 35.3191 7.56866 34.9972 7.9234C34.6753 8.27814 34.2279 8.49433 33.7494 8.52642C33.2708 8.55851 32.7985 8.40399 32.4319 8.09541C32.0653 7.78684 31.8331 7.34831 31.7842 6.87225C31.7671 6.67069 31.7836 6.46769 31.8329 6.27151L30.1581 6.409C30.0065 6.42128 29.8588 6.46325 29.7235 6.53253C29.5881 6.6018 29.4678 6.69702 29.3693 6.81273C29.2709 6.92845 29.1963 7.06238 29.1497 7.20689C29.1032 7.3514 29.0857 7.50364 29.0981 7.65491L29.6536 14.4831C29.6795 14.7886 29.8257 15.0714 30.0601 15.2696C30.2945 15.4679 30.5981 15.5654 30.9044 15.5408L32.5813 15.4033C32.4877 15.7643 32.5076 16.1454 32.6385 16.4948C32.7258 16.724 32.8579 16.9336 33.0273 17.1112C33.1966 17.2889 33.3998 17.4311 33.6249 17.5295C33.85 17.6279 34.0925 17.6805 34.3382 17.6843C34.5839 17.6881 34.8279 17.643 35.0559 17.5516C35.284 17.4602 35.4914 17.3244 35.6662 17.152C35.841 16.9797 35.9796 16.7743 36.0739 16.5478C36.1682 16.3214 36.2163 16.0785 36.2154 15.8333C36.2145 15.5881 36.1646 15.3456 36.0687 15.1198L38.9031 14.8914L38.6721 12.0632C38.8686 12.1133 39.072 12.1304 39.2741 12.114C39.7633 12.0746 40.2167 11.843 40.5347 11.4701C40.8528 11.0973 41.0094 10.6136 40.9701 10.1256C40.9276 9.67656 40.7236 9.25807 40.3959 8.94741C40.0681 8.63676 39.6388 8.45491 39.1872 8.43546Z" fill="#FFCA40"/>
<path d="M35.6403 2.74966C35.4754 2.59332 35.3005 2.44777 35.1167 2.31391L35.2524 2.12354C35.446 2.26274 35.6295 2.41542 35.8015 2.58044L35.6403 2.74966Z" fill="#263238"/>
<path d="M37.0567 4.69329C36.8548 4.22419 36.5817 3.78896 36.2468 3.40295L36.427 3.25488C36.7778 3.66149 37.0638 4.11952 37.275 4.61291L37.0567 4.69329Z" fill="#FFCA40"/>
<path d="M38.6189 4.2047H38.3857C38.392 3.26962 38.7249 2.36598 39.327 1.64941L39.5072 1.7996C38.9401 2.47397 38.626 3.32437 38.6189 4.2047Z" fill="#263238"/>
<path d="M37.5059 3.11355C37.5059 3.10297 37.2579 1.95225 36.7979 1.26689L36.9908 1.13574C37.4784 1.85918 37.7243 3.01836 37.7349 3.06701L37.5059 3.11355Z" fill="#FFCA40"/>
<path d="M40.7558 18.0558C40.5791 17.8958 40.4133 17.7241 40.2598 17.5418L40.4378 17.3916C40.5854 17.5645 40.744 17.7278 40.9127 17.8802L40.7558 18.0558Z" fill="#263238"/>
<path d="M39.9356 17.1781C39.5645 16.6894 39.2838 16.1385 39.1067 15.5514L39.3335 15.4922C39.5023 16.0525 39.7685 16.5787 40.12 17.0469L39.9356 17.1781Z" fill="#FFCA40"/>
<path d="M38.371 16.9941C38.2769 16.5124 38.3377 16.0134 38.5449 15.5684L38.7569 15.672C38.5778 16.0697 38.5239 16.5122 38.6021 16.9412L38.371 16.9941Z" fill="#FFCA40"/>
<path d="M23.8127 58.3399C22.4495 50.7481 21.8813 41.5952 21.8813 41.5952L29.1466 41.481C29.1466 41.481 28.5254 53.8174 28.2244 58.9851C27.9127 64.3558 27.6944 74.6954 27.6944 74.6954H25.1885C25.1885 74.6954 23.0558 64.982 23.8127 58.3399Z" fill="#263238"/>
<path opacity="0.2" d="M25.2798 43.6616C25.2798 43.6616 24.294 51.0313 23.4842 56.4338C22.7655 51.8923 22.3097 47.1265 22.0723 44.2518L25.2798 43.6616Z" fill="black"/>
<path d="M31.0611 77.2337C31.0611 77.2337 27.6966 76.4447 27.5482 75.3003L25.4028 75.5774L25.1675 77.8069H26.0536L26.1957 77.5298L26.4925 77.8069C29.5029 77.8069 30.618 77.7752 31.1756 77.5954C31.1932 77.5305 31.1918 77.4619 31.1715 77.3978C31.1512 77.3337 31.1129 77.2767 31.0611 77.2337Z" fill="#263238"/>
<path d="M25.0974 75.9816C25.903 76.0282 27.5121 75.9097 27.8259 75.7553C28.1396 75.6009 27.9531 74.355 27.9531 74.355C27.9531 74.355 25.1398 74.0757 24.8918 74.2301C24.6437 74.3846 25.0974 75.9816 25.0974 75.9816Z" fill="#FFCA40"/>
<path opacity="0.3" d="M25.0974 75.9816C25.903 76.0282 27.5121 75.9097 27.8259 75.7553C28.1396 75.6009 27.9531 74.355 27.9531 74.355C27.9531 74.355 25.1398 74.0757 24.8918 74.2301C24.6437 74.3846 25.0974 75.9816 25.0974 75.9816Z" fill="white"/>
<path d="M17.067 58.124C18.3072 50.4899 18.2669 45.3899 19.5071 41.6246L26.5985 41.5273C26.5985 41.5273 23.1598 53.6417 21.6038 58.6846C20.0477 63.7274 17.1984 74.6953 17.1984 74.6953H14.8918C14.8918 74.6953 14.9936 64.0299 17.067 58.124Z" fill="#263238"/>
<path d="M19.6152 77.2337C19.6152 77.2337 17.0712 76.4447 16.9292 75.3003L14.7837 75.5774L14.5505 77.8069H15.1039L15.2459 77.5298L15.5427 77.8069C18.5531 77.8069 19.1721 77.7752 19.7297 77.5954C19.7473 77.5305 19.7459 77.4619 19.7256 77.3978C19.7053 77.3337 19.667 77.2767 19.6152 77.2337Z" fill="#263238"/>
<path d="M14.5504 75.9266C15.0443 76.0281 16.9163 75.9096 17.2512 75.7552C17.5862 75.6008 17.4823 74.2935 17.4823 74.2935C17.4823 74.2935 14.9383 73.9911 14.6648 74.1455C14.3914 74.2999 14.5504 75.9266 14.5504 75.9266Z" fill="#FFCA40"/>
<path opacity="0.3" d="M14.5504 75.9266C15.0443 76.0281 16.9163 75.9096 17.2512 75.7552C17.5862 75.6008 17.4823 74.2935 17.4823 74.2935C17.4823 74.2935 14.9383 73.9911 14.6648 74.1455C14.3914 74.2999 14.5504 75.9266 14.5504 75.9266Z" fill="white"/>
<path d="M29.1084 28.1567L29.7169 28.6791L30.3529 29.208C30.7769 29.5612 31.2009 29.8997 31.6249 30.2297C31.8369 30.3925 32.0489 30.5512 32.2609 30.7014C32.4729 30.8516 32.6849 30.9996 32.8863 31.1244C33.0877 31.2492 33.2976 31.374 33.4841 31.4756C33.629 31.5531 33.7792 31.6203 33.9336 31.6765L33.6431 31.6554C33.6028 31.6744 33.7046 31.6765 33.8339 31.6554C33.9939 31.614 34.1499 31.5588 34.3003 31.4904C34.6756 31.3205 35.0395 31.1269 35.39 30.9108C35.7674 30.6992 36.1447 30.4454 36.5242 30.1937L37.6648 29.4322L37.6923 29.4153C37.8542 29.3119 38.0463 29.2665 38.2374 29.2864C38.4285 29.3063 38.6072 29.3903 38.7441 29.5248C38.8811 29.6592 38.9682 29.8361 38.9913 30.0264C39.0144 30.2167 38.972 30.4092 38.871 30.5723C38.595 30.9913 38.2956 31.3946 37.9743 31.7802C37.6512 32.17 37.3072 32.5421 36.944 32.8949C36.5589 33.2706 36.1426 33.6131 35.6995 33.9187C35.4449 34.0942 35.1753 34.2471 34.8939 34.3756C34.5217 34.5516 34.1197 34.6563 33.7088 34.6845C33.6454 34.6909 33.5815 34.6909 33.518 34.6845L33.4184 34.6697C33.0107 34.6072 32.6116 34.4979 32.2291 34.3439C31.9084 34.218 31.5955 34.0732 31.292 33.9103C30.7316 33.613 30.19 33.2817 29.6702 32.9182C29.1614 32.5692 28.6802 32.199 28.2117 31.8204C27.9785 31.6279 27.7453 31.4375 27.5206 31.2365C27.2958 31.0356 27.0796 30.841 26.8422 30.6125C26.5266 30.3107 26.3416 29.8979 26.3267 29.462C26.3117 29.0261 26.4679 28.6016 26.762 28.2789C27.0561 27.9563 27.4648 27.7609 27.9011 27.7345C28.3374 27.7081 28.7668 27.8528 29.0978 28.1376L29.1084 28.1567Z" fill="#CF7A64"/>
<path d="M37.9552 30.9553L39.8335 30.9405L39.1848 28.7871C39.1848 28.7871 37.4888 28.9986 37.457 29.9273L37.9552 30.9553Z" fill="#CE7A63"/>
<path d="M41.2137 29.5613L40.8575 28.8464C40.7892 28.7081 40.6739 28.5986 40.5322 28.5373C40.3904 28.4761 40.2314 28.4672 40.0837 28.5122L39.1848 28.7871L39.8335 30.9405L40.9063 30.4392C40.9848 30.4023 41.0551 30.3502 41.1132 30.2859C41.1713 30.2216 41.2159 30.1464 41.2446 30.0646C41.2732 29.9829 41.2852 29.8963 41.2799 29.8099C41.2746 29.7235 41.2521 29.639 41.2137 29.5613Z" fill="#CE7A63"/>
<path d="M27.3869 27.0056C26.7076 27.5152 26.2389 28.2555 26.0694 29.0864C25.8999 29.9173 26.0412 30.7814 26.4668 31.5155C26.5834 31.7263 26.7298 31.9194 26.9014 32.0887C27.6455 32.7931 29.4899 33.415 30.7004 33.9396C32.2417 33.3917 33.0324 31.763 32.7971 30.8597C31.6247 29.3092 29.4835 27.0374 28.3727 26.737C28.0356 26.6439 27.7112 26.7772 27.3869 27.0056Z" fill="#263238"/>
<path d="M20.5987 26.3945C22.7687 26.1557 24.9576 26.1415 27.1305 26.3522C28.0246 26.4464 28.8519 26.8683 29.4522 27.5361C30.0526 28.2039 30.3833 29.0701 30.3804 29.9672C30.3698 33.3009 29.8335 36.9837 29.278 42.1048C27.6965 43.7357 19.2123 42.0393 19.2123 42.0393C19.3013 40.1808 19.531 38.3317 19.8991 36.5077C19.6108 34.3924 18.8773 31.981 18.4639 29.1782C18.4172 28.8551 18.4356 28.5258 18.5181 28.2099C18.6007 27.8939 18.7456 27.5976 18.9445 27.3383C19.1433 27.079 19.3921 26.8619 19.6762 26.6998C19.9602 26.5378 20.2739 26.434 20.5987 26.3945Z" fill="#FFCA40"/>
<mask id="mask0_1_12698" style="mask-type:luminance" maskUnits="userSpaceOnUse" x="18" y="26" width="13" height="17">
<path d="M20.5987 26.3945C22.7687 26.1557 24.9576 26.1415 27.1305 26.3522C28.0246 26.4464 28.8519 26.8683 29.4522 27.5361C30.0526 28.2039 30.3833 29.0701 30.3804 29.9672C30.3698 33.3009 29.8335 36.9837 29.278 42.1048C27.6965 43.7357 19.2123 42.0393 19.2123 42.0393C19.3013 40.1808 19.531 38.3317 19.8991 36.5077C19.6108 34.3924 18.8773 31.981 18.4639 29.1782C18.4172 28.8551 18.4356 28.5258 18.5181 28.2099C18.6007 27.8939 18.7456 27.5976 18.9445 27.3383C19.1433 27.079 19.3921 26.8619 19.6762 26.6998C19.9602 26.5378 20.2739 26.434 20.5987 26.3945Z" fill="white"/>
</mask>
<g mask="url(#mask0_1_12698)">
<g opacity="0.2">
<path d="M20.2384 29.9507C20.2241 29.9507 20.2104 29.9452 20.2001 29.9354C20.1899 29.9255 20.1838 29.9121 20.1833 29.8979C20.1827 29.8905 20.1836 29.883 20.186 29.876C20.1884 29.869 20.1922 29.8625 20.1971 29.857C20.2021 29.8514 20.2081 29.847 20.2148 29.8438C20.2215 29.8406 20.2288 29.8389 20.2363 29.8386C20.6581 29.8145 21.0607 29.6541 21.3832 29.3817C21.3214 29.3536 21.267 29.3116 21.2242 29.259C21.1711 29.1879 21.1336 29.1065 21.114 29.02C20.9889 28.5652 21.1012 27.9624 21.5528 27.7212C21.6275 27.6701 21.7174 27.6457 21.8078 27.6518C21.8982 27.6579 21.9839 27.6943 22.051 27.7551C22.0942 27.8127 22.1219 27.8804 22.1315 27.9518C22.1719 28.2419 22.1215 28.5374 21.9874 28.7979C21.8907 28.9948 21.7617 29.1743 21.6058 29.3288H21.644C21.8105 29.3371 21.9768 29.308 22.1306 29.2436C22.2843 29.1791 22.4216 29.081 22.5322 28.9565C22.7551 28.7002 22.8863 28.3773 22.9054 28.0385C22.9056 28.0312 22.9074 28.024 22.9105 28.0174C22.9137 28.0107 22.9182 28.0049 22.9238 28.0001C22.9294 27.9953 22.9359 27.9917 22.943 27.9896C22.95 27.9875 22.9574 27.9869 22.9647 27.9877C22.9795 27.9888 22.9933 27.9956 23.0032 28.0067C23.0131 28.0177 23.0183 28.0322 23.0177 28.047C22.9961 28.4109 22.8545 28.7575 22.6149 29.0327C22.4933 29.1703 22.3419 29.2785 22.1722 29.3492C22.0026 29.4199 21.819 29.4513 21.6355 29.4409C21.592 29.4367 21.5488 29.4296 21.5061 29.4198C21.1539 29.7335 20.7056 29.9192 20.2341 29.9465L20.2384 29.9507ZM21.8093 27.7635C21.7385 27.7661 21.6694 27.7857 21.6079 27.8206C21.2093 28.0322 21.1118 28.5885 21.2221 28.9925C21.2379 29.0628 21.2682 29.1291 21.3111 29.1871C21.3549 29.2398 21.4131 29.2787 21.4786 29.2992C21.6464 29.1419 21.7843 28.9556 21.8856 28.7492C22.0096 28.5097 22.0569 28.238 22.0213 27.9708C22.0154 27.919 21.9964 27.8695 21.9662 27.827C21.9473 27.8036 21.9234 27.7848 21.8963 27.772C21.8691 27.7592 21.8394 27.7527 21.8093 27.7529V27.7635Z" fill="white"/>
<path d="M24.9872 32.0425H24.9682C24.6245 31.9204 24.3308 31.6884 24.1329 31.3826C24.0337 31.2269 23.9713 31.0509 23.9503 30.8676C23.9294 30.6844 23.9505 30.4988 24.012 30.3249C24.0285 30.2842 24.0476 30.2446 24.0693 30.2064C23.8658 29.7841 23.8113 29.3056 23.9145 28.8484C23.9196 28.8358 23.929 28.8253 23.9411 28.819C23.9532 28.8127 23.9672 28.8109 23.9805 28.814C23.9939 28.817 24.0056 28.8247 24.0137 28.8357C24.0219 28.8467 24.0258 28.8602 24.0248 28.8738C23.931 29.2856 23.9726 29.7165 24.1435 30.1028C24.1878 30.0506 24.2437 30.0093 24.3067 29.9822C24.3892 29.951 24.4774 29.9381 24.5654 29.9442C25.0402 29.9442 25.5787 30.2234 25.6932 30.7268C25.7216 30.8124 25.7203 30.9051 25.6895 30.9899C25.6588 31.0746 25.6003 31.1467 25.5236 31.1943C25.4561 31.2199 25.3831 31.228 25.3116 31.2176C25.0214 31.1745 24.7514 31.0438 24.5378 30.8432C24.3748 30.6958 24.2379 30.522 24.1329 30.3291C24.1329 30.3418 24.1223 30.3545 24.118 30.3651C24.064 30.5223 24.0458 30.6895 24.0649 30.8545C24.084 31.0196 24.1398 31.1783 24.2283 31.3191C24.4117 31.6045 24.6856 31.8204 25.0063 31.9325C25.0134 31.9349 25.0199 31.9387 25.0254 31.9436C25.031 31.9485 25.0355 31.9545 25.0387 31.9613C25.0418 31.968 25.0436 31.9753 25.0439 31.9827C25.0442 31.9901 25.0429 31.9975 25.0402 32.0045C25.0366 32.0156 25.0295 32.0253 25.02 32.0322C25.0105 32.039 24.999 32.0426 24.9872 32.0425ZM24.1965 30.217C24.3035 30.4225 24.4472 30.6067 24.6205 30.7607C24.8159 30.9475 25.0649 31.0688 25.3328 31.1076C25.3839 31.1169 25.4366 31.1126 25.4854 31.0949C25.5957 31.0462 25.6232 30.8833 25.5914 30.7543C25.4918 30.3122 24.9915 30.0647 24.5717 30.0563C24.4996 30.0523 24.4275 30.0631 24.3597 30.088C24.2936 30.1138 24.2368 30.1587 24.1965 30.217Z" fill="white"/>
<path d="M29.3267 30.6612C29.283 30.6631 29.2395 30.6554 29.1992 30.6386C29.1589 30.6217 29.1228 30.5962 29.0935 30.5639C29.0479 30.508 29.0186 30.4407 29.0087 30.3693C28.96 30.0814 29.003 29.7854 29.1316 29.5232C29.2234 29.3238 29.3473 29.1409 29.4984 28.9817H29.4602C29.2939 28.9781 29.1288 29.0116 28.977 29.0797C28.8252 29.1477 28.6904 29.2487 28.5826 29.3751C28.3659 29.6373 28.2429 29.964 28.2328 30.3037C28.2317 30.3185 28.2249 30.3323 28.2138 30.3421C28.2027 30.352 28.1882 30.3572 28.1734 30.3566C28.1586 30.3555 28.1448 30.3487 28.1349 30.3377C28.125 30.3266 28.1198 30.3122 28.1204 30.2974C28.132 29.9334 28.2648 29.5836 28.4978 29.3032C28.6166 29.1641 28.7656 29.0538 28.9334 28.9805C29.1013 28.9072 29.2836 28.8729 29.4666 28.8801C29.5108 28.882 29.5548 28.8877 29.598 28.897C29.9397 28.5755 30.3808 28.3793 30.8488 28.3407C30.8561 28.3398 30.8636 28.3405 30.8706 28.3426C30.8776 28.3447 30.8841 28.3483 30.8897 28.3531C30.8953 28.3578 30.8998 28.3637 30.903 28.3703C30.9062 28.3769 30.908 28.3842 30.9082 28.3915C30.9088 28.406 30.9039 28.4201 30.8945 28.4311C30.885 28.4421 30.8718 28.4491 30.8573 28.4507C30.4354 28.4871 30.0364 28.6576 29.7189 28.9372C29.7828 28.9627 29.8396 29.0034 29.8842 29.0557C29.9383 29.1252 29.9773 29.2052 29.9987 29.2905C30.1344 29.7432 30.0369 30.3376 29.5917 30.5999C29.5098 30.6419 29.4188 30.663 29.3267 30.6612ZM29.6277 29.007C29.4636 29.1679 29.33 29.3571 29.2334 29.5655C29.1155 29.8084 29.0748 30.0815 29.1168 30.3481C29.1257 30.3992 29.146 30.4477 29.1762 30.4899C29.2279 30.5285 29.2907 30.5494 29.3553 30.5494C29.4199 30.5494 29.4827 30.5285 29.5344 30.4899C29.9266 30.2614 30.0114 29.7114 29.8927 29.3095C29.8749 29.2391 29.8432 29.173 29.7994 29.1149C29.7535 29.0636 29.694 29.0262 29.6277 29.007Z" fill="white"/>
<path d="M27.1475 29.5487H27.1369C27.1224 29.5456 27.1097 29.5371 27.1014 29.5249C27.0931 29.5126 27.0898 29.4977 27.0924 29.4831C27.1753 29.0695 27.1233 28.6403 26.944 28.2584C26.8998 28.3104 26.8448 28.3523 26.7828 28.381C26.7009 28.4148 26.6127 28.4307 26.5242 28.4276C26.0514 28.4276 25.5108 28.1674 25.3858 27.6703C25.3549 27.5853 25.3538 27.4924 25.3827 27.4068C25.4116 27.3211 25.4687 27.2477 25.5448 27.1986C25.6119 27.1715 25.6849 27.162 25.7568 27.1711C26.0484 27.2061 26.3219 27.3311 26.539 27.5286C26.7072 27.6711 26.8505 27.8405 26.963 28.0299L26.9758 27.9939C27.0265 27.8355 27.0409 27.6676 27.0178 27.5028C26.9946 27.338 26.9346 27.1805 26.8422 27.0421C26.6506 26.7619 26.3708 26.5535 26.0472 26.4498C26.0333 26.4445 26.022 26.4341 26.0156 26.4207C26.0093 26.4072 26.0085 26.3919 26.0133 26.3779C26.0156 26.3708 26.0194 26.3643 26.0244 26.3588C26.0293 26.3532 26.0353 26.3487 26.0421 26.3456C26.0488 26.3424 26.0561 26.3406 26.0635 26.3404C26.071 26.3401 26.0784 26.3413 26.0854 26.344C26.4309 26.4555 26.7293 26.6788 26.9334 26.9786C27.0375 27.1319 27.1048 27.307 27.1302 27.4904C27.1556 27.6738 27.1383 27.8606 27.0796 28.0363C27.0651 28.0771 27.0474 28.1167 27.0266 28.1547C27.2404 28.5727 27.3061 29.0506 27.2132 29.5106C27.2084 29.5236 27.1992 29.5346 27.1872 29.5415C27.1752 29.5485 27.1612 29.551 27.1475 29.5487ZM25.691 27.279C25.6548 27.2779 25.6187 27.2844 25.585 27.298C25.4769 27.3488 25.4536 27.5095 25.4875 27.6407C25.5978 28.0786 26.1002 28.3134 26.5178 28.3134C26.5903 28.3169 26.6626 28.3046 26.7298 28.2774C26.7924 28.2485 26.8454 28.2022 26.8825 28.1441C26.7744 27.9425 26.6307 27.7619 26.4585 27.6111C26.259 27.4293 26.0079 27.314 25.7398 27.2811L25.691 27.279Z" fill="white"/>
<path d="M21.1564 35.6619C21.1433 35.6593 21.1316 35.6524 21.1232 35.6421C21.1147 35.6319 21.1101 35.6191 21.1101 35.6058C21.1101 35.5926 21.1147 35.5797 21.1232 35.5695C21.1316 35.5593 21.1433 35.5523 21.1564 35.5498C21.5788 35.5251 21.9818 35.3649 22.3054 35.0929C22.2431 35.0647 22.1879 35.0228 22.1443 34.9702C22.0915 34.8997 22.0539 34.819 22.0341 34.7333C21.909 34.2764 22.0213 33.6756 22.475 33.4345C22.5489 33.3825 22.6384 33.3573 22.7287 33.3631C22.8189 33.3689 22.9044 33.4053 22.9711 33.4662C23.0143 33.5239 23.042 33.5916 23.0517 33.6629C23.092 33.953 23.0416 34.2485 22.9075 34.509C22.8097 34.7021 22.68 34.8773 22.5238 35.0273H22.5619C22.7285 35.0356 22.8948 35.0065 23.0485 34.942C23.2023 34.8776 23.3396 34.7795 23.4502 34.655C23.6735 34.3989 23.8048 34.0759 23.8233 33.737C23.8236 33.7296 23.8254 33.7224 23.8285 33.7158C23.8317 33.7092 23.8362 33.7033 23.8418 33.6985C23.8474 33.6938 23.8539 33.6902 23.861 33.6881C23.868 33.6859 23.8754 33.6853 23.8827 33.6862C23.8975 33.6873 23.9113 33.6941 23.9212 33.7051C23.9311 33.7162 23.9363 33.7306 23.9357 33.7454C23.9146 34.1094 23.7729 34.4562 23.5329 34.7311C23.4113 34.8687 23.2599 34.9769 23.0902 35.0477C22.9206 35.1184 22.737 35.1497 22.5535 35.1394C22.51 35.1349 22.4668 35.1279 22.4241 35.1182C22.0719 35.4321 21.6236 35.6178 21.1521 35.645L21.1564 35.6619ZM22.7358 33.4725C22.6616 33.4726 22.5886 33.4915 22.5238 33.5275C22.1252 33.7391 22.0277 34.2954 22.1379 34.6994C22.1538 34.7697 22.1841 34.836 22.227 34.894C22.2708 34.9467 22.329 34.9856 22.3945 35.0061C22.5626 34.8491 22.7006 34.6627 22.8015 34.4562C22.9255 34.2166 22.9728 33.9449 22.9372 33.6777C22.9313 33.6259 22.9123 33.5764 22.8821 33.5339C22.8632 33.5142 22.8405 33.4986 22.8153 33.4881C22.7901 33.4775 22.7631 33.4722 22.7358 33.4725Z" fill="white"/>
<path d="M26.0322 37.9886H26.011C25.6676 37.8659 25.3741 37.634 25.1757 37.3286C25.0763 37.1731 25.0139 36.9969 24.9933 36.8136C24.9728 36.6302 24.9945 36.4446 25.057 36.271C25.0727 36.2303 25.0911 36.1907 25.1121 36.1525C24.9092 35.73 24.8554 35.2514 24.9595 34.7945C24.9612 34.7874 24.9644 34.7807 24.9687 34.7748C24.9731 34.7689 24.9786 34.7639 24.9849 34.7601C24.9912 34.7564 24.9983 34.754 25.0055 34.753C25.0128 34.752 25.0202 34.7524 25.0273 34.7543C25.0344 34.7558 25.0411 34.7587 25.047 34.7628C25.0529 34.767 25.0579 34.7723 25.0616 34.7784C25.0654 34.7846 25.0679 34.7914 25.0689 34.7985C25.0699 34.8057 25.0695 34.8129 25.0676 34.8199C24.9746 35.2319 25.017 35.6628 25.1885 36.0489C25.2329 35.9968 25.2888 35.9555 25.3517 35.9283C25.4343 35.8979 25.5224 35.8849 25.6103 35.8902C26.0831 35.8902 26.6237 36.1695 26.7382 36.6729C26.7668 36.7587 26.7653 36.8517 26.7341 36.9366C26.703 37.0215 26.6438 37.0933 26.5665 37.1404C26.4992 37.1673 26.4259 37.1754 26.3545 37.1636C26.0638 37.122 25.7934 36.9912 25.5807 36.7892C25.4182 36.6413 25.2814 36.4676 25.1757 36.2752C25.1757 36.2879 25.1757 36.3006 25.1609 36.3112C25.1069 36.4683 25.0887 36.6356 25.1078 36.8006C25.1268 36.9657 25.1827 37.1244 25.2711 37.2652C25.4554 37.5507 25.73 37.7666 26.0513 37.8786C26.0583 37.8809 26.0648 37.8847 26.0703 37.8897C26.0758 37.8947 26.0802 37.9007 26.0832 37.9075C26.0862 37.9143 26.0878 37.9216 26.0877 37.929C26.0877 37.9365 26.0861 37.9438 26.0831 37.9505C26.0799 37.9615 26.0732 37.9712 26.064 37.978C26.0548 37.9849 26.0437 37.9886 26.0322 37.9886ZM25.2415 36.1631C25.347 36.3695 25.4909 36.5539 25.6655 36.7067C25.8606 36.8931 26.1086 37.015 26.3757 37.0558C26.4277 37.0634 26.4808 37.0583 26.5304 37.041C26.6407 36.9923 26.6661 36.8294 26.6364 36.7004C26.5368 36.2583 26.0365 36.0108 25.6167 36.0023C25.5446 35.9977 25.4723 36.0085 25.4047 36.0341C25.3388 36.0602 25.282 36.1051 25.2415 36.1631Z" fill="white"/>
<path d="M22.0085 39.0233C21.9974 39.0229 21.9868 39.0192 21.9777 39.0128C21.9687 39.0065 21.9617 38.9976 21.9576 38.9873C21.8205 38.6514 21.7981 38.2796 21.894 37.9297C21.9449 37.7531 22.0352 37.5904 22.1582 37.4537C22.2812 37.3171 22.4337 37.21 22.6042 37.1407C22.6449 37.1253 22.6867 37.1133 22.7293 37.1047C22.9106 36.6722 23.2325 36.3131 23.643 36.0851C23.6496 36.0801 23.6572 36.0765 23.6654 36.0747C23.6735 36.0728 23.6819 36.0728 23.6901 36.0745C23.6982 36.0763 23.7059 36.0798 23.7125 36.0848C23.7192 36.0898 23.7246 36.0962 23.7285 36.1035C23.7324 36.1109 23.7347 36.119 23.7352 36.1273C23.7356 36.1356 23.7342 36.1439 23.7311 36.1516C23.728 36.1593 23.7233 36.1662 23.7172 36.1719C23.7112 36.1776 23.7039 36.1819 23.696 36.1846C23.3234 36.3878 23.0261 36.7052 22.848 37.0899C22.916 37.0895 22.9833 37.1039 23.0452 37.1322C23.1274 37.1716 23.1998 37.2287 23.2572 37.2993C23.5667 37.6589 23.7215 38.2406 23.4204 38.6616C23.3726 38.7392 23.2999 38.7986 23.2142 38.83C23.1284 38.8615 23.0345 38.8633 22.9477 38.835C22.8839 38.8012 22.83 38.7517 22.7908 38.6912C22.6291 38.4471 22.5476 38.1587 22.5576 37.8662C22.5597 37.65 22.5976 37.4355 22.6699 37.2316L22.6339 37.2443C22.4811 37.3091 22.3447 37.4071 22.2346 37.5311C22.1246 37.6552 22.0437 37.8022 21.9979 37.9614C21.9081 38.2882 21.9289 38.6355 22.0573 38.9493C22.06 38.9561 22.0613 38.9633 22.0612 38.9707C22.0611 38.978 22.0595 38.9852 22.0565 38.9919C22.0536 38.9986 22.0493 39.0046 22.044 39.0097C22.0386 39.0147 22.0323 39.0186 22.0255 39.0212L22.0085 39.0233ZM22.8077 37.1999C22.724 37.4144 22.6801 37.6424 22.6784 37.8726C22.6682 38.1415 22.7424 38.407 22.8904 38.632C22.918 38.6764 22.9567 38.7128 23.0028 38.7377C23.113 38.7885 23.2487 38.7018 23.3293 38.5918C23.5921 38.2216 23.4459 37.6864 23.1724 37.367C23.1273 37.3103 23.071 37.2635 23.007 37.2295C22.9445 37.2019 22.8756 37.1917 22.8077 37.1999Z" fill="white"/>
<path d="M21.7456 42.7395C21.3815 42.7219 21.0338 42.5834 20.7577 42.3461C20.6173 42.2264 20.5061 42.0764 20.4326 41.9074C20.3591 41.7384 20.3253 41.5549 20.3337 41.3709C20.3372 41.3275 20.3436 41.2844 20.3528 41.2419C20.0366 40.8909 19.8483 40.4437 19.8185 39.9727C19.8179 39.9654 19.8189 39.9581 19.8213 39.9511C19.8237 39.9442 19.8275 39.9379 19.8325 39.9325C19.8374 39.9272 19.8435 39.9229 19.8502 39.92C19.8569 39.917 19.8642 39.9155 19.8715 39.9156C19.8864 39.915 19.9009 39.9202 19.9119 39.93C19.923 39.9399 19.9298 39.9537 19.9309 39.9685C19.9599 40.3888 20.1225 40.789 20.3952 41.1107C20.4234 41.0485 20.4654 40.9935 20.5181 40.95C20.5888 40.8969 20.6696 40.8588 20.7556 40.8378C21.2114 40.713 21.805 40.8209 22.0594 41.2609C22.1115 41.3349 22.137 41.4243 22.1316 41.5146C22.1262 41.6049 22.0903 41.6907 22.0297 41.758C21.9716 41.801 21.904 41.8293 21.8325 41.8405C21.542 41.8812 21.2459 41.8318 20.9845 41.6988C20.7871 41.6041 20.6066 41.4776 20.4503 41.3244C20.4492 41.337 20.4492 41.3498 20.4503 41.3624C20.4408 41.531 20.4699 41.6995 20.5353 41.8553C20.6007 42.011 20.7006 42.1499 20.8276 42.2614C21.0859 42.4823 21.4102 42.6117 21.7499 42.6295C21.7572 42.6297 21.7644 42.6315 21.771 42.6347C21.7777 42.6379 21.7836 42.6424 21.7884 42.6479C21.7931 42.6535 21.7967 42.66 21.7988 42.667C21.801 42.6741 21.8016 42.6815 21.8007 42.6887C21.8005 42.6957 21.7988 42.7025 21.7959 42.7088C21.793 42.7151 21.7888 42.7208 21.7837 42.7255C21.7786 42.7302 21.7726 42.7339 21.7661 42.7363C21.7595 42.7387 21.7526 42.7398 21.7456 42.7395ZM20.4736 41.2123C20.6327 41.3794 20.8209 41.5163 21.029 41.6163C21.2695 41.7386 21.5418 41.7844 21.8092 41.7474C21.8612 41.7404 21.9107 41.7208 21.9534 41.6903C22.0445 41.612 22.0233 41.4513 21.9534 41.3328C21.7308 40.9373 21.1817 40.8421 20.7768 40.9542C20.7059 40.9708 20.639 41.001 20.5796 41.043C20.5338 41.0907 20.5003 41.1488 20.4821 41.2123H20.4736Z" fill="white"/>
<path d="M19.9923 37.8786C19.6282 37.8593 19.2808 37.7202 19.0044 37.4831C18.8639 37.3635 18.7526 37.2135 18.6791 37.0445C18.6056 36.8755 18.5718 36.6919 18.5804 36.5079C18.5842 36.4646 18.5906 36.4215 18.5995 36.3789C18.2855 36.0307 18.0974 35.5876 18.0652 35.1203C18.0646 35.1055 18.0698 35.091 18.0797 35.08C18.0896 35.0689 18.1034 35.0621 18.1182 35.061C18.1329 35.061 18.1471 35.0663 18.1581 35.0761C18.1691 35.0859 18.176 35.0993 18.1776 35.1139C18.2062 35.535 18.3688 35.936 18.6419 36.2583C18.6705 36.1957 18.7125 36.1402 18.7648 36.0954C18.8355 36.0427 18.9163 36.0053 19.0023 35.9854C19.4581 35.8585 20.0623 35.9664 20.3061 36.4085C20.3582 36.4825 20.3837 36.5719 20.3783 36.6622C20.3729 36.7525 20.337 36.8383 20.2764 36.9056C20.2186 36.9487 20.1507 36.9763 20.0792 36.986C19.7889 37.0285 19.4925 36.9797 19.2312 36.8464C19.0332 36.7517 18.8526 36.6244 18.697 36.4698C18.6962 36.4825 18.6962 36.4952 18.697 36.5079C18.6898 36.674 18.72 36.8397 18.7853 36.9927C18.8506 37.1457 18.9493 37.2821 19.0743 37.3921C19.3323 37.6132 19.6569 37.742 19.9966 37.758C20.0114 37.7591 20.0252 37.7659 20.0351 37.777C20.0449 37.788 20.0501 37.8025 20.0496 37.8173C20.0501 37.8251 20.0491 37.833 20.0465 37.8404C20.0439 37.8479 20.0397 37.8547 20.0344 37.8604C20.029 37.8662 20.0225 37.8708 20.0152 37.8739C20.008 37.877 20.0002 37.8786 19.9923 37.8786ZM18.7203 36.3493C18.8787 36.5171 19.0671 36.6541 19.2757 36.7533C19.5159 36.8766 19.7885 36.9224 20.0559 36.8844C20.1082 36.8784 20.1579 36.8587 20.2001 36.8273C20.2912 36.7512 20.27 36.5904 20.2001 36.4719C19.9881 36.0764 19.4284 35.9812 19.0235 36.0933C18.953 36.1091 18.8866 36.1394 18.8284 36.1821C18.7814 36.2284 18.747 36.2859 18.7288 36.3493H18.7203Z" fill="white"/>
<path d="M30.2446 35.846C30.2012 35.8478 30.1579 35.8402 30.1176 35.8238C30.0774 35.8073 30.0412 35.7825 30.0114 35.7509C29.9658 35.695 29.9365 35.6276 29.9266 35.5562C29.8795 35.2683 29.9224 34.9729 30.0496 34.7101C30.1413 34.5115 30.2652 34.3292 30.4163 34.1707H30.3782C30.2118 34.1672 30.0467 34.2007 29.8949 34.2688C29.7431 34.3368 29.6084 34.4377 29.5005 34.5642C29.2839 34.8256 29.1608 35.1516 29.1507 35.4907C29.1504 35.4981 29.1487 35.5054 29.1455 35.5121C29.1424 35.5188 29.1379 35.5248 29.1323 35.5297C29.1268 35.5347 29.1203 35.5385 29.1132 35.5408C29.1062 35.5432 29.0987 35.5441 29.0913 35.5436C29.0769 35.5425 29.0634 35.536 29.0536 35.5254C29.0437 35.5148 29.0383 35.5009 29.0383 35.4864C29.0495 35.1223 29.1823 34.7724 29.4157 34.4922C29.5339 34.3517 29.6825 34.2397 29.8503 34.1646C30.0181 34.0895 30.2007 34.0533 30.3845 34.0586C30.4287 34.0623 30.4726 34.0686 30.516 34.0776C30.858 33.7563 31.2987 33.5595 31.7668 33.5192C31.7742 33.5186 31.7816 33.5196 31.7887 33.5219C31.7957 33.5243 31.8022 33.5281 31.8078 33.533C31.8133 33.538 31.8178 33.544 31.8209 33.5507C31.8241 33.5574 31.8259 33.5647 31.8261 33.5721C31.8268 33.5866 31.8218 33.6007 31.8124 33.6117C31.803 33.6227 31.7897 33.6297 31.7753 33.6313C31.3541 33.6665 30.9556 33.8364 30.6389 34.1157C30.7015 34.1435 30.7572 34.1847 30.8022 34.2363C30.8571 34.3053 30.8961 34.3854 30.9167 34.4711C31.0523 34.9238 30.9548 35.5182 30.5096 35.7784C30.4287 35.8235 30.3373 35.8468 30.2446 35.846ZM30.5478 34.1919C30.3839 34.3533 30.251 34.5433 30.1556 34.7524C30.0389 34.995 29.9982 35.267 30.039 35.533C30.0472 35.5853 30.0683 35.6347 30.1005 35.6768C30.1789 35.7657 30.34 35.7424 30.4566 35.6768C30.8488 35.4463 30.9336 34.8963 30.8149 34.4965C30.797 34.4261 30.7653 34.3599 30.7216 34.3019C30.6744 34.2505 30.6145 34.2125 30.5478 34.1919Z" fill="white"/>
<path d="M29.9754 39.7002C29.9613 39.6998 29.9479 39.6941 29.9377 39.6843C29.9276 39.6746 29.9214 39.6614 29.9203 39.6474C29.8868 39.2269 29.718 38.8284 29.4391 38.5114C29.4112 38.5739 29.37 38.6295 29.3182 38.6743C29.2486 38.7283 29.1685 38.7672 29.0829 38.7885C28.6292 38.9218 28.0335 38.8224 27.7728 38.3761C27.7198 38.3028 27.6932 38.2137 27.6975 38.1235C27.7017 38.0332 27.7365 37.947 27.7961 37.879C27.8521 37.8335 27.9196 37.8042 27.9911 37.7944C28.2801 37.7474 28.5766 37.7917 28.8391 37.9213C29.0383 38.0136 29.221 38.1379 29.3797 38.2893C29.3797 38.2766 29.3797 38.264 29.3797 38.2534C29.3841 38.087 29.3514 37.9218 29.2839 37.7696C29.2164 37.6174 29.1159 37.4821 28.9896 37.3734C28.7272 37.1574 28.401 37.0333 28.0611 37.0202C28.0465 37.0202 28.0324 37.0144 28.0221 37.004C28.0118 36.9937 28.006 36.9797 28.006 36.9652C28.006 36.9506 28.0118 36.9366 28.0221 36.9263C28.0324 36.916 28.0465 36.9102 28.0611 36.9102C28.426 36.9218 28.7763 37.0559 29.0554 37.2909C29.1954 37.4094 29.3064 37.5584 29.3799 37.7263C29.4534 37.8942 29.4874 38.0767 29.4794 38.2597C29.4774 38.3031 29.4717 38.3463 29.4624 38.3888C29.7825 38.7315 29.9774 39.172 30.0157 39.6389C30.0163 39.6464 30.0154 39.6539 30.013 39.6611C30.0107 39.6683 30.0069 39.6749 30.002 39.6806C29.9971 39.6863 29.9911 39.6909 29.9843 39.6943C29.9776 39.6977 29.9702 39.6997 29.9627 39.7002H29.9754ZM28.2095 37.8853C28.1433 37.8845 28.0772 37.8909 28.0123 37.9044C27.9605 37.9109 27.9114 37.9314 27.8703 37.9636C27.7791 38.0418 27.8024 38.2026 27.8703 38.3189C28.0992 38.7124 28.6504 38.7991 29.0511 38.6807C29.1216 38.6636 29.1879 38.6327 29.2462 38.5897C29.2963 38.5436 29.3335 38.4853 29.3543 38.4205C29.1941 38.2544 29.0043 38.1196 28.7946 38.0228C28.6114 37.9365 28.412 37.8896 28.2095 37.8853Z" fill="white"/>
<path d="M28.3345 42.7482C28.2954 42.7495 28.2564 42.7429 28.22 42.7287C28.1835 42.7145 28.1504 42.6931 28.1225 42.6657C28.0732 42.6128 28.0388 42.5479 28.0229 42.4774C27.9586 42.1951 27.9822 41.8999 28.0907 41.6313C28.1679 41.4261 28.2789 41.2352 28.4193 41.0665H28.3811C28.2148 41.0735 28.0521 41.1178 27.9053 41.1962C27.7584 41.2745 27.6312 41.385 27.5331 41.5192C27.335 41.7946 27.2343 42.128 27.2469 42.4669C27.2475 42.4743 27.2466 42.4819 27.244 42.4889C27.2415 42.496 27.2375 42.5024 27.2323 42.5078C27.2271 42.5132 27.2208 42.5175 27.2138 42.5202C27.2068 42.523 27.1993 42.5243 27.1918 42.524C27.1772 42.524 27.1632 42.5182 27.1528 42.5079C27.1425 42.4976 27.1367 42.4836 27.1367 42.469C27.1228 42.1051 27.231 41.7471 27.4441 41.4515C27.5524 41.3033 27.693 41.1816 27.8553 41.0955C28.0176 41.0094 28.1974 40.9611 28.3811 40.9544C28.4249 40.9515 28.4688 40.9515 28.5126 40.9544C28.8333 40.6133 29.2596 40.3898 29.7231 40.3198C29.7303 40.3189 29.7377 40.3193 29.7448 40.3212C29.7518 40.3231 29.7584 40.3263 29.7642 40.3307C29.77 40.3351 29.7749 40.3406 29.7786 40.3469C29.7823 40.3532 29.7847 40.3602 29.7856 40.3674C29.7866 40.3746 29.7861 40.382 29.7843 40.389C29.7824 40.3961 29.7792 40.4027 29.7747 40.4085C29.7703 40.4143 29.7648 40.4191 29.7585 40.4228C29.7521 40.4265 29.7452 40.4289 29.7379 40.4298C29.3205 40.4944 28.9348 40.6909 28.6377 40.9904C28.702 41.0137 28.7605 41.0505 28.8094 41.0983C28.8679 41.165 28.9126 41.2426 28.9408 41.3267C29.1062 41.7688 29.0511 42.3674 28.6228 42.6594C28.5372 42.7159 28.4371 42.7467 28.3345 42.7482ZM28.5465 41.075C28.3935 41.2474 28.2728 41.4459 28.1903 41.6609C28.0884 41.9104 28.0662 42.1853 28.1267 42.4478C28.1378 42.4995 28.1619 42.5476 28.1967 42.5874C28.251 42.6221 28.3151 42.6381 28.3794 42.6331C28.4436 42.6282 28.5045 42.6025 28.5529 42.5599C28.9281 42.304 28.9769 41.7498 28.8285 41.3584C28.8071 41.2888 28.7709 41.2246 28.7225 41.1702C28.6743 41.1243 28.6152 41.0915 28.5507 41.075H28.5465Z" fill="white"/>
<path d="M23.9185 43.4736C23.9071 43.4736 23.8959 43.4701 23.8865 43.4637C23.8771 43.4573 23.8697 43.4482 23.8655 43.4377C23.8628 43.4309 23.8615 43.4236 23.8616 43.4163C23.8617 43.4089 23.8633 43.4017 23.8663 43.395C23.8692 43.3883 23.8735 43.3823 23.8788 43.3773C23.8842 43.3722 23.8904 43.3683 23.8973 43.3657C24.2888 43.2065 24.6182 42.9253 24.8365 42.564C24.7688 42.5563 24.7037 42.534 24.6457 42.4985C24.5724 42.449 24.5104 42.3849 24.4634 42.3102C24.2005 41.9168 24.1157 41.3202 24.4634 40.9395C24.4946 40.8827 24.5412 40.8359 24.5979 40.8043C24.6546 40.7728 24.7191 40.7578 24.7839 40.7611C24.8487 40.7645 24.9113 40.7859 24.9645 40.8231C25.0176 40.8602 25.0592 40.9116 25.0845 40.9712C25.2164 41.2325 25.2631 41.5283 25.2181 41.8173C25.1923 42.0379 25.1292 42.2524 25.0315 42.4519H25.0676C25.2276 42.4066 25.3754 42.3261 25.5002 42.2163C25.6249 42.1065 25.7234 41.9701 25.7884 41.8173C25.9176 41.503 25.9377 41.1545 25.8456 40.8274C25.8423 40.8131 25.8447 40.7981 25.8522 40.7855C25.8597 40.7729 25.8717 40.7637 25.8859 40.7597C25.893 40.7578 25.9004 40.7573 25.9077 40.7583C25.915 40.7593 25.922 40.7618 25.9283 40.7655C25.9346 40.7693 25.9401 40.7742 25.9445 40.7801C25.9488 40.786 25.952 40.7927 25.9537 40.7999C26.0508 41.1495 26.0292 41.5214 25.8922 41.8575C25.821 42.0268 25.7123 42.1777 25.5743 42.299C25.4362 42.4202 25.2724 42.5087 25.0951 42.5577C25.0528 42.5693 25.0095 42.577 24.9658 42.581C24.7346 42.9888 24.3724 43.307 23.9376 43.4842L23.9185 43.4736ZM24.7983 40.8824C24.7002 40.8914 24.6096 40.9385 24.546 41.0135C24.2408 41.3499 24.334 41.8998 24.5566 42.2467C24.5951 42.3089 24.6455 42.3628 24.705 42.4054C24.7641 42.4398 24.8316 42.4574 24.9001 42.4562C25.0102 42.2538 25.082 42.0329 25.1121 41.8046C25.1527 41.5383 25.1105 41.2658 24.9912 41.0241C24.9678 40.9773 24.9337 40.9368 24.8916 40.9056C24.8635 40.8888 24.831 40.8807 24.7983 40.8824Z" fill="white"/>
<path d="M28.0653 34.7332C28.058 34.7318 28.051 34.7288 28.0449 34.7245C28.0387 34.7203 28.0335 34.7148 28.0296 34.7085C28.0256 34.7022 28.023 34.6951 28.0218 34.6877C28.0207 34.6803 28.0211 34.6728 28.0229 34.6655C28.1051 34.2517 28.0524 33.8225 27.8724 33.4408C27.829 33.4941 27.7738 33.5368 27.7113 33.5656C27.6293 33.5987 27.5411 33.6139 27.4527 33.61C26.9799 33.61 26.4393 33.3519 26.3142 32.8548C26.2834 32.7699 26.2823 32.677 26.3112 32.5913C26.3401 32.5056 26.3972 32.4323 26.4732 32.3831C26.5404 32.3561 26.6134 32.3466 26.6852 32.3556C26.9769 32.3914 27.2506 32.5154 27.4696 32.711C27.6379 32.8543 27.7811 33.0244 27.8936 33.2144L27.9063 33.1785C27.9571 33.02 27.9715 32.8521 27.9483 32.6874C27.9252 32.5226 27.8652 32.3651 27.7728 32.2266C27.5735 31.9458 27.2852 31.7401 26.9545 31.6428C26.9475 31.6406 26.941 31.6371 26.9353 31.6324C26.9297 31.6277 26.9251 31.6219 26.9218 31.6154C26.9184 31.6089 26.9164 31.6018 26.9158 31.5945C26.9152 31.5872 26.9161 31.5799 26.9184 31.573C26.9237 31.559 26.934 31.5476 26.9474 31.5409C26.9608 31.5343 26.9762 31.5329 26.9905 31.537C27.3351 31.6504 27.6329 31.8733 27.8385 32.1716C27.9421 32.3251 28.009 32.5003 28.034 32.6837C28.059 32.8671 28.0414 33.0537 27.9827 33.2293C27.9682 33.2708 27.9504 33.3111 27.9297 33.3498C28.1432 33.7671 28.209 34.2443 28.1162 34.7036C28.1116 34.713 28.1043 34.7209 28.0953 34.7261C28.0862 34.7314 28.0758 34.7339 28.0653 34.7332ZM26.6089 32.4635C26.5725 32.4632 26.5364 32.4704 26.5029 32.4847C26.3948 32.5354 26.3715 32.6962 26.4054 32.8274C26.5177 33.2652 27.0181 33.5 27.4357 33.5C27.508 33.5012 27.5799 33.489 27.6477 33.4641C27.7099 33.4345 27.7627 33.3884 27.8003 33.3308C27.6922 33.1285 27.5486 32.9473 27.3763 32.7956C27.1767 32.6145 26.9255 32.5 26.6577 32.4677L26.6089 32.4635Z" fill="white"/>
<path d="M20.8511 34.1051H20.8384C20.8239 34.1015 20.8113 34.0925 20.8034 34.0798C20.7955 34.0672 20.7928 34.0519 20.796 34.0374C20.8792 33.6236 20.8264 33.1941 20.6455 32.8126C20.602 32.8659 20.5469 32.9086 20.4844 32.9374C20.4029 32.9701 20.3156 32.986 20.2278 32.9839C19.7572 32.9839 19.2166 32.7238 19.0894 32.2267C19.059 32.1416 19.0581 32.0489 19.0869 31.9633C19.1158 31.8777 19.1727 31.8043 19.2484 31.755C19.3156 31.7279 19.3885 31.7184 19.4604 31.7275C19.7515 31.7631 20.0246 31.8872 20.2427 32.0828C20.4115 32.2255 20.5549 32.3958 20.6667 32.5863C20.6667 32.5736 20.6773 32.5609 20.6815 32.5503C20.7314 32.3917 20.7453 32.224 20.7222 32.0594C20.6991 31.8947 20.6396 31.7373 20.548 31.5984C20.3555 31.3186 20.0762 31.1097 19.753 31.004C19.746 31.0019 19.7395 30.9984 19.734 30.9936C19.7284 30.9889 19.7239 30.9831 19.7207 30.9765C19.7176 30.97 19.7158 30.9628 19.7155 30.9555C19.7152 30.9483 19.7164 30.941 19.7191 30.9342C19.7239 30.9204 19.7338 30.909 19.7469 30.9023C19.7599 30.8957 19.775 30.8942 19.789 30.8983C20.1336 31.0116 20.4314 31.2345 20.637 31.5328C20.7406 31.6863 20.8075 31.8615 20.8325 32.0449C20.8575 32.2283 20.84 32.415 20.7812 32.5905C20.7676 32.6324 20.7498 32.6728 20.7282 32.7111C20.9414 33.1285 21.0078 33.6053 20.9168 34.0649C20.9129 34.0785 20.9039 34.0902 20.8918 34.0977C20.8796 34.1051 20.8651 34.1077 20.8511 34.1051ZM19.3926 31.8353C19.3568 31.835 19.3214 31.8422 19.2887 31.8565C19.1806 31.9073 19.1572 32.068 19.1912 32.1992C19.3014 32.637 19.8017 32.8718 20.2194 32.8718C20.2917 32.8731 20.3635 32.8609 20.4314 32.8359C20.4926 32.8057 20.5446 32.7597 20.5819 32.7026C20.474 32.5002 20.3304 32.3189 20.1579 32.1674C19.9571 31.9868 19.7054 31.8723 19.4371 31.8396L19.3926 31.8353Z" fill="white"/>
</g>
</g>
<path d="M22.5661 22.3584C22.6371 23.6902 22.4052 25.0208 21.8877 26.2506C22.5725 26.8851 23.6855 27.6763 25.1673 27.6551C26.6492 27.634 26.4033 26.8767 26.0153 26.3606C24.9553 25.8275 24.8854 25.0427 25.1461 24.5668L22.5661 22.3584Z" fill="#CE7A63"/>
<path opacity="0.2" d="M25.1377 24.5688L23.9632 23.8369C23.4226 23.9215 23.1619 24.609 23.8339 25.1272C24.2918 25.4805 25.0147 25.6201 25.1059 25.5249C25.0355 25.3743 25.0017 25.2092 25.0073 25.0431C25.0128 24.877 25.0575 24.7145 25.1377 24.5688Z" fill="black"/>
<path d="M25.5998 19.4543C27.1093 19.1391 26.857 21.009 26.4648 21.98C25.4747 20.5373 25.5998 19.4543 25.5998 19.4543Z" fill="#263238"/>
<path d="M21.7331 21.4425C22.0257 23.1009 22.1168 23.9597 23.1853 24.5245C25.8502 25.9291 26.4544 24.9624 26.6664 23.2553C26.855 21.7111 26.3462 19.2574 24.6312 18.792C24.2526 18.6913 23.8548 18.6873 23.4743 18.7804C23.0939 18.8735 22.7431 19.0608 22.4543 19.3249C22.1655 19.589 21.948 19.9215 21.822 20.2916C21.696 20.6617 21.6654 21.0575 21.7331 21.4425Z" fill="#CE7A63"/>
<path d="M22.2311 22.8092C23.6791 23.1053 22.1294 21.5844 22.4643 20.9667C22.7993 20.3491 24.6204 20.8081 24.0989 19.7991C25.5129 20.1566 26.8231 20.2856 27.1093 19.3337C27.5333 17.9503 26.1807 17.6859 25.3836 18.0857C24.7158 18.422 24.7221 18.532 23.7236 18.1978C22.7251 17.8636 20.2447 18.0582 20.8786 19.1941C19.7507 19.2406 19.7507 20.6748 20.6835 21.0831C21.6163 21.4913 21.1393 22.5849 22.2311 22.8092Z" fill="#263238"/>
<path d="M21.9279 22.0369C21.9159 22.0365 21.9044 22.0325 21.8949 22.0253C21.8854 22.018 21.8784 22.0081 21.8749 21.9967C21.8726 21.9897 21.8717 21.9824 21.8722 21.9751C21.8728 21.9678 21.8748 21.9607 21.8782 21.9542C21.8815 21.9477 21.8862 21.942 21.8918 21.9373C21.8974 21.9326 21.9039 21.929 21.9109 21.9269L24.1666 21.2288C24.1806 21.2248 24.1957 21.2262 24.2087 21.2329C24.2217 21.2396 24.2317 21.251 24.2365 21.2648C24.2388 21.2717 24.2397 21.2791 24.2392 21.2863C24.2386 21.2936 24.2366 21.3007 24.2332 21.3072C24.2298 21.3137 24.2252 21.3195 24.2196 21.3242C24.214 21.3289 24.2075 21.3324 24.2005 21.3346L21.9448 22.0326L21.9279 22.0369Z" fill="white"/>
<path d="M21.1353 19.2725C20.5904 18.8346 19.8633 18.7267 19.8633 18.9848C19.8633 19.2429 20.8809 19.1963 20.9784 19.3698C21.0759 19.5432 21.1353 19.2725 21.1353 19.2725Z" fill="#263238"/>
<path d="M25.8288 23.2322C25.1803 23.1348 24.5256 23.0846 23.8699 23.082C24.0352 23.412 24.349 23.687 25.0889 23.706C25.8288 23.7251 25.8288 23.2322 25.8288 23.2322Z" fill="white"/>
<path d="M21.2307 22.7246C21.3995 23.0754 21.6948 23.3496 22.0575 23.4925C22.5197 23.6596 22.7402 23.2048 22.6045 22.7077C22.4794 22.2614 22.0915 21.6352 21.6314 21.686C21.1714 21.7368 21.0124 22.2762 21.2307 22.7246Z" fill="#CE7A63"/>
<path d="M24.5547 21.4699C24.5759 21.6117 24.6692 21.7132 24.7667 21.6984C24.8642 21.6836 24.9172 21.5567 24.896 21.4149C24.8748 21.2732 24.7815 21.1717 24.684 21.1865C24.5865 21.2013 24.5335 21.3282 24.5547 21.4699Z" fill="#263238"/>
<path d="M26.0918 21.4362C26.113 21.578 26.2041 21.6816 26.3038 21.6668C26.4034 21.652 26.4543 21.5251 26.4331 21.3833C26.4119 21.2416 26.3186 21.138 26.2211 21.1528C26.1236 21.1676 26.0684 21.2945 26.0918 21.4362Z" fill="#263238"/>
<path d="M23.9781 21.1105C23.9637 21.1088 23.9499 21.1037 23.9378 21.0957C23.9194 21.0833 23.9066 21.0641 23.9023 21.0423C23.8979 21.0206 23.9023 20.998 23.9145 20.9794C23.9875 20.8662 24.0866 20.772 24.2035 20.7046C24.3204 20.6373 24.4517 20.5988 24.5865 20.5923C24.609 20.5923 24.6306 20.6012 24.6465 20.6171C24.6624 20.6329 24.6713 20.6545 24.6713 20.6769C24.6713 20.6993 24.6624 20.7209 24.6465 20.7367C24.6306 20.7526 24.609 20.7615 24.5865 20.7615C24.4802 20.7684 24.3771 20.8001 24.2854 20.8541C24.1937 20.9081 24.116 20.9829 24.0586 21.0725C24.0505 21.086 24.0385 21.0969 24.0241 21.1036C24.0098 21.1104 23.9938 21.1128 23.9781 21.1105Z" fill="#263238"/>
<path d="M26.5199 20.6429C26.5062 20.6456 26.4921 20.6449 26.4788 20.6408C26.4655 20.6367 26.4534 20.6295 26.4436 20.6196C26.3723 20.5416 26.2834 20.4816 26.1842 20.4448C26.085 20.408 25.9784 20.3954 25.8733 20.4081C25.8623 20.4103 25.851 20.4102 25.84 20.408C25.829 20.4057 25.8186 20.4013 25.8093 20.395C25.8001 20.3887 25.7921 20.3807 25.786 20.3713C25.7799 20.3619 25.7757 20.3514 25.7737 20.3404C25.7699 20.3186 25.775 20.2961 25.7876 20.2779C25.8003 20.2597 25.8197 20.2472 25.8415 20.2431C25.9739 20.2242 26.109 20.2379 26.235 20.2828C26.361 20.3278 26.474 20.4028 26.5644 20.5012C26.58 20.517 26.5887 20.5383 26.5887 20.5604C26.5887 20.5826 26.58 20.6038 26.5644 20.6196C26.5525 20.6321 26.5369 20.6402 26.5199 20.6429Z" fill="#263238"/>
<path d="M26.2636 22.4432C26.2105 22.4418 26.1584 22.4291 26.1105 22.4062C26.0626 22.3832 26.0202 22.3504 25.9859 22.31C25.7841 22.0235 25.7006 21.6705 25.7527 21.3242C25.8057 20.7023 26.1067 20.2158 26.4417 20.2158C26.4949 20.2169 26.5472 20.2293 26.5951 20.2523C26.643 20.2753 26.6854 20.3083 26.7194 20.3491C26.9211 20.6348 27.0046 20.9871 26.9526 21.3327C26.8996 21.9546 26.5986 22.4432 26.2636 22.4432ZM26.4417 20.3279C26.1746 20.3279 25.9096 20.7891 25.8651 21.3348C25.8195 21.6511 25.8952 21.9729 26.0771 22.2359C26.1015 22.2648 26.1316 22.2883 26.1655 22.3051C26.1994 22.3218 26.2364 22.3314 26.2742 22.3332C26.5413 22.3332 26.8063 21.8721 26.8509 21.3264C26.8976 21.0107 26.8217 20.6891 26.6389 20.4274C26.6154 20.3971 26.5856 20.3724 26.5515 20.3548C26.5175 20.3373 26.48 20.3274 26.4417 20.3258V20.3279Z" fill="white"/>
<path d="M25.6528 21.4424C25.8688 21.8591 26.1421 22.2435 26.4648 22.5846C26.3745 22.6659 26.2678 22.7269 26.1518 22.7634C26.0359 22.7999 25.9134 22.811 25.7928 22.7962L25.6528 21.4424Z" fill="#BA4D3C"/>
<path d="M20.6158 30.105L20.0604 30.6824L19.4943 31.279C19.1212 31.6766 18.7566 32.0807 18.4046 32.4805C18.2308 32.6814 18.0612 32.8845 17.9001 33.0875C17.739 33.2906 17.5778 33.4873 17.4337 33.6862C17.2895 33.885 17.1623 34.0817 17.0521 34.2615C16.966 34.4018 16.8902 34.5482 16.8252 34.6994L16.8634 34.4117C16.8443 34.3715 16.8422 34.49 16.8634 34.6233C16.8976 34.7973 16.9472 34.9679 17.0118 35.133C17.1636 35.5365 17.3391 35.9306 17.5376 36.3134C17.739 36.7216 17.9616 37.1299 18.1905 37.5445L18.8816 38.7841L18.8944 38.8073C18.9847 38.9776 19.014 39.1734 18.9776 39.3626C18.9412 39.5518 18.8413 39.7229 18.6942 39.8476C18.5472 39.9724 18.3618 40.0434 18.1689 40.0489C17.9759 40.0543 17.7869 39.9939 17.633 39.8777C17.2303 39.556 16.846 39.212 16.4818 38.8475C16.1172 38.4858 15.7674 38.1072 15.4218 37.701C15.0729 37.2779 14.7568 36.8289 14.4763 36.3578C14.3188 36.0864 14.182 35.8036 14.0671 35.5117C13.9127 35.1259 13.8308 34.715 13.8254 34.2996C13.824 34.2365 13.829 34.1734 13.8403 34.1113L13.8615 34.0119C13.9477 33.6095 14.0785 33.2178 14.2516 32.8443C14.3964 32.532 14.5592 32.2283 14.7392 31.9347C15.066 31.392 15.4271 30.8706 15.8204 30.3736C16.1956 29.885 16.592 29.426 16.997 28.9796C17.209 28.7575 17.404 28.5354 17.6181 28.3218C17.8322 28.1081 18.0421 27.8987 18.2796 27.6872C18.6002 27.3986 19.02 27.2445 19.4515 27.2571C19.8831 27.2696 20.2933 27.4477 20.5965 27.7544C20.8998 28.0611 21.0728 28.4726 21.0795 28.9034C21.0863 29.3341 20.9263 29.7509 20.6328 30.0669L20.6158 30.105Z" fill="#CF7A64"/>
<path d="M17.7941 38.3037L19.6724 38.3312L19.011 40.4804C19.011 40.4804 17.315 40.2498 17.2896 39.3296L17.7941 38.3037Z" fill="#CE7A63"/>
<path d="M21.0399 39.7166L20.6795 40.4294C20.6108 40.5677 20.4949 40.6769 20.3526 40.7374C20.2104 40.7979 20.0511 40.8057 19.9036 40.7594L19.0068 40.4802L19.6683 38.3311L20.7283 38.8387C20.8073 38.875 20.8783 38.9267 20.937 38.9908C20.9957 39.0549 21.0409 39.1301 21.07 39.212C21.099 39.2938 21.1113 39.3806 21.1062 39.4673C21.101 39.554 21.0785 39.6387 21.0399 39.7166Z" fill="#CE7A63"/>
<path d="M20.2216 26.4707C19.2909 26.6949 18.1822 27.063 17.1858 28.1629C16.2211 29.3008 15.381 30.5382 14.6799 31.8541C15.7399 33.686 17.4529 33.8975 17.9129 33.777C19.5263 32.6939 20.5057 32.1418 20.9594 30.7077C21.4131 29.2735 20.917 27.5812 20.2216 26.4707Z" fill="#263238"/>
<path d="M24.6437 22.4432C24.5903 22.4418 24.5378 22.4292 24.4896 22.4062C24.4414 22.3833 24.3985 22.3505 24.3638 22.31C24.162 22.0235 24.0785 21.6705 24.1306 21.3242C24.1836 20.7023 24.4847 20.2158 24.8196 20.2158C24.8731 20.2169 24.9257 20.2293 24.974 20.2523C25.0223 20.2752 25.065 20.3083 25.0995 20.3491C25.3016 20.6346 25.3845 20.9873 25.3305 21.3327C25.2797 21.9546 24.968 22.4432 24.6437 22.4432ZM24.8196 20.3279C24.5525 20.3279 24.2896 20.7891 24.243 21.3348C24.1974 21.6511 24.2732 21.9729 24.455 22.2359C24.4791 22.2651 24.5092 22.2888 24.5432 22.3056C24.5771 22.3224 24.6143 22.3318 24.6521 22.3332C24.9193 22.3332 25.1821 21.8721 25.2288 21.3264C25.2738 21.0108 25.1981 20.6898 25.0168 20.4274C24.9922 20.3962 24.961 20.371 24.9254 20.3534C24.8899 20.3359 24.8508 20.3264 24.8111 20.3258L24.8196 20.3279Z" fill="white"/>
<path d="M25.8075 21.3858C25.7967 21.3858 25.786 21.3826 25.777 21.3765C25.7679 21.3705 25.7608 21.3619 25.7567 21.3519C25.7523 21.3406 25.7455 21.3303 25.7367 21.3219C25.7279 21.3135 25.7173 21.3071 25.7058 21.3033C25.56 21.2855 25.4122 21.312 25.2818 21.3794C25.2751 21.3826 25.2679 21.3844 25.2605 21.3847C25.2531 21.3851 25.2458 21.3839 25.2388 21.3813C25.2319 21.3788 25.2256 21.3749 25.2202 21.3698C25.2148 21.3647 25.2105 21.3587 25.2076 21.3519C25.2017 21.3384 25.2013 21.3232 25.2065 21.3094C25.2116 21.2956 25.2219 21.2843 25.2351 21.2779C25.39 21.1991 25.566 21.1717 25.7376 21.1996C25.7882 21.2196 25.8292 21.2582 25.8521 21.3075C25.8571 21.321 25.8569 21.3359 25.8514 21.3493C25.8459 21.3626 25.8355 21.3734 25.8224 21.3794C25.8178 21.3823 25.8128 21.3845 25.8075 21.3858Z" fill="white"/>
<path d="M55.9689 26.1192C57.6288 24.2154 56.7724 22.1361 54.9089 20.9896C53.0454 19.8431 50.8682 20.6808 50.0329 22.6247C49.1976 24.5687 49.4944 25.0721 48.9729 25.1779C48.7354 26.2017 49.4711 27.2763 50.3233 26.7094C51.6123 27.253 53.8722 28.5222 55.9689 26.1192Z" fill="#263238"/>
<path d="M53.6881 27.6611C52.7765 27.6611 51.9709 27.2656 51.3815 26.9758L51.1187 26.8467L51.2035 26.669C51.2861 26.7071 51.3752 26.7515 51.4685 26.7981C52.5921 27.3502 54.2881 28.1836 56.0985 26.3052C56.7663 25.6114 57.0758 24.8245 56.9974 24.0545C56.9126 23.2296 56.3826 22.4257 55.5431 21.8504L55.6555 21.6875C56.5437 22.2967 57.1034 23.1513 57.1946 24.0355C57.2794 24.8816 56.9508 25.7066 56.2427 26.4406C55.3565 27.3629 54.4831 27.6611 53.6881 27.6611Z" fill="#263238"/>
<path d="M49.8506 23.3927C49.4924 22.1404 49.9015 19.5978 53.0306 19.5957C56.1598 19.5936 57.4826 21.802 56.1788 23.6338C52.4031 24.4863 49.8506 23.3927 49.8506 23.3927Z" fill="#263238"/>
<path d="M48.5575 25.9097C46.6093 26.4216 48.2968 29.6622 50.2111 28.1836C49.7871 28.154 48.8543 27.219 49.5751 26.6141C48.8119 25.9499 48.5575 25.9097 48.5575 25.9097Z" fill="#263238"/>
<path d="M48.583 28.8037C48.4027 28.8036 48.2248 28.7616 48.0636 28.6811C47.7866 28.5219 47.5614 28.2863 47.4151 28.0027C47.2689 27.7191 47.2077 27.3993 47.2389 27.0819C47.264 26.8162 47.3736 26.5655 47.5517 26.3664C47.7299 26.1674 47.9672 26.0304 48.229 25.9756L48.2777 26.1681C48.0532 26.2095 47.8485 26.3235 47.6952 26.4925C47.542 26.6614 47.4487 26.876 47.4297 27.103C47.4012 27.3803 47.4535 27.6599 47.5802 27.9082C47.7069 28.1566 47.9027 28.3632 48.1442 28.5034C48.5576 28.7149 49.0367 28.5986 49.4904 28.184L49.6239 28.332C49.3496 28.6155 48.9774 28.7842 48.583 28.8037Z" fill="#263238"/>
<path d="M50.0839 26.832C49.5836 26.7284 48.8119 25.4338 49.1299 25.125C48.9368 25.1325 48.7509 25.2005 48.5987 25.3193C48.4465 25.4382 48.3356 25.6018 48.2819 25.7871C48.1526 26.1869 48.4091 26.9357 49.3037 27.1599C49.7383 27.2741 50.0839 26.832 50.0839 26.832Z" fill="#FFCA40"/>
<path d="M50.1794 32.1711C50.1646 32.6555 50.1286 33.1336 50.0989 33.6138L49.9759 35.0522C49.9335 35.5344 49.8742 36.0146 49.8148 36.5011C49.783 36.7423 49.747 36.9877 49.7024 37.2415C49.6586 37.5142 49.5955 37.7835 49.5138 38.0474C49.1885 39.0089 48.7569 39.9312 48.2269 40.7973C47.7291 41.6415 47.176 42.452 46.5712 43.2236C46.5027 43.3174 46.4009 43.3817 46.2866 43.4034C46.1723 43.4251 46.054 43.4025 45.9557 43.3403C45.8575 43.2781 45.7866 43.1809 45.7576 43.0684C45.7286 42.956 45.7436 42.8368 45.7995 42.7349V42.7244C46.2235 41.8909 46.6475 41.0321 47.0206 40.186C47.2051 39.7629 47.3895 39.3399 47.5464 38.902C47.7047 38.4877 47.8364 38.0638 47.9407 37.6328C47.9861 37.4349 48.0187 37.2342 48.0382 37.0321C48.0573 36.8206 48.0722 36.5794 48.0849 36.3467L48.1612 34.9316L48.2354 33.508C48.2672 33.032 48.2884 32.5561 48.3287 32.0823C48.3425 31.838 48.4529 31.6091 48.6358 31.4461C48.8187 31.283 49.059 31.1991 49.3039 31.2129C49.5487 31.2266 49.7781 31.3369 49.9415 31.5193C50.1049 31.7018 50.189 31.9416 50.1752 32.1859L50.1794 32.1711Z" fill="#FFB573"/>
<path d="M50.0371 40.7847C50.0371 40.7847 50.0371 51.8604 50.7113 57.8594C50.7812 63.4903 52.0702 76.216 52.0702 76.216H53.4927C53.7344 69.9018 55.4961 64.0086 54.3237 58.4474C57.0628 47.5134 55.7929 40.7995 55.7929 40.7995L50.0371 40.7847Z" fill="#FFB573"/>
<path d="M51.5891 40.7909C51.5891 40.7909 52.6491 54.3457 54.7861 59.194C57.0205 64.2919 60.9871 74.2782 61.3793 75.9705L62.5686 75.6553C62.5686 75.6553 61.7821 64.6938 58.1505 58.4981C59.2741 43.2213 56.4439 40.7866 56.4439 40.7866L51.5891 40.7909Z" fill="#FFB573"/>
<path d="M49.5836 29.415C48.39 30.4219 48.0063 32.0613 48.0212 33.1718C48.7356 34.3416 50.968 34.7033 50.968 34.7033C50.968 34.7033 51.322 32.4188 51.1524 31.3421C50.9828 30.2654 50.2726 28.8333 49.5836 29.415Z" fill="#263238"/>
<path d="M48.7272 31.5177C48.6598 30.9088 48.8288 30.2973 49.1995 29.8091C49.5702 29.3208 50.1143 28.9928 50.72 28.8926C51.0655 28.8312 51.4302 28.7741 51.78 28.7297C52.8704 28.6131 53.9678 28.5742 55.0638 28.6134C55.3776 28.6134 55.685 28.6303 55.9754 28.6493C56.2317 28.6662 56.4818 28.7354 56.7101 28.8527C56.9385 28.97 57.1402 29.1329 57.3028 29.3313C57.4655 29.5296 57.5855 29.7592 57.6555 30.0058C57.7254 30.2524 57.7439 30.5107 57.7096 30.7646C57.0164 35.3548 56.6051 38.6737 57.0588 40.6854C57.0588 40.6854 58.4919 42.5892 59.1427 46.9721C59.7109 50.7944 59.5667 57.2398 60.1921 60.7025C57.9576 62.2953 50.8641 62.198 49.819 61.2673C50.1136 54.2656 48.6784 45.0916 49.7702 40.8546C49.3335 38.5066 49.5709 36.7129 49.325 35.2893C47.682 34.1914 48.9116 33.174 48.7272 31.5177Z" fill="#263238"/>
<path d="M52.859 41.5272C51.6018 41.5272 50.4358 41.4066 49.9228 41.1802C49.7108 41.0872 49.6112 40.9772 49.6239 40.8503C49.6244 40.8423 49.6265 40.8345 49.6302 40.8274C49.6338 40.8202 49.6388 40.8139 49.645 40.8088C49.6511 40.8036 49.6582 40.7998 49.6659 40.7974C49.6736 40.7951 49.6816 40.7944 49.6896 40.7953C49.7053 40.7974 49.7197 40.8052 49.7299 40.8174C49.7401 40.8295 49.7454 40.845 49.7447 40.8608C49.7447 40.9518 49.8825 41.0322 49.9716 41.0724C51.2075 41.616 56.2786 41.5547 57.0926 40.6493C57.1042 40.6378 57.1198 40.6313 57.1361 40.6313C57.1524 40.6313 57.168 40.6378 57.1796 40.6493C57.1855 40.6547 57.1902 40.6612 57.1934 40.6685C57.1967 40.6758 57.1984 40.6836 57.1984 40.6916C57.1984 40.6996 57.1967 40.7075 57.1934 40.7147C57.1902 40.722 57.1855 40.7286 57.1796 40.7339C56.6898 41.2733 54.678 41.5272 52.859 41.5272Z" fill="white"/>
<path d="M52.7975 41.0958C51.5403 41.0958 50.3743 40.9752 49.8613 40.751C49.6493 40.6579 49.5496 40.5395 49.5624 40.4189C49.5645 40.4028 49.5727 40.3881 49.5853 40.3779C49.5979 40.3677 49.614 40.3627 49.6302 40.3639C49.6462 40.366 49.6606 40.3743 49.6706 40.3869C49.6805 40.3996 49.685 40.4156 49.6832 40.4316C49.6832 40.5225 49.821 40.6008 49.91 40.6431C51.1481 41.1867 56.217 41.1254 57.0332 40.22C57.0447 40.2092 57.0599 40.2031 57.0756 40.2031C57.0914 40.2031 57.1066 40.2092 57.118 40.22C57.1289 40.2315 57.135 40.2466 57.135 40.2624C57.135 40.2781 57.1289 40.2933 57.118 40.3047C56.6283 40.8419 54.6186 41.0958 52.7975 41.0958Z" fill="white"/>
<path opacity="0.2" d="M53.9 55.3335C54.0929 52.518 53.9 48.3022 52.1743 45.9395C52.628 48.9347 53.9 55.3335 53.9 55.3335Z" fill="black"/>
<path d="M54.5232 24.9536C54.377 26.0113 54.2816 27.9425 55.0617 28.6173C53.4134 29.3511 52.0315 30.5734 51.1037 32.1181C50.0691 29.7638 51.7778 28.7337 51.7778 28.7337C52.9396 28.4121 52.859 27.5449 52.6068 26.7347L54.5232 24.9536Z" fill="#FFB573"/>
<path opacity="0.2" d="M53.7409 25.6816L52.6067 26.7393C52.6679 26.927 52.7133 27.1194 52.7424 27.3147C53.1876 27.2343 53.7791 26.7224 53.8024 26.257C53.8177 26.0631 53.7969 25.868 53.7409 25.6816Z" fill="black"/>
<path d="M54.9599 22.6161C55.049 24.3633 55.1232 25.1037 54.3494 26.0746C53.1855 27.5363 51.0252 27.2169 50.4168 25.5204C49.8698 23.9911 49.8168 21.3892 51.4344 20.5431C53.0519 19.697 54.8688 20.8668 54.9599 22.6161Z" fill="#FFB573"/>
<path d="M53.3148 21.2349C53.1833 23.0773 55.1804 24.6617 55.8058 23.9615C56.4312 23.2613 54.8899 19.9784 53.3148 21.2349Z" fill="#263238"/>
<path d="M50.5354 21.0867C52.7911 22.798 55.422 22.7896 55.2545 21.5415C55.087 20.2935 51.8731 19.1872 50.5354 21.0867Z" fill="#263238"/>
<path d="M52.2569 23.3166C52.2739 23.4584 52.2103 23.581 52.117 23.5895C52.0237 23.598 51.9326 23.4901 51.9177 23.3484C51.9029 23.2066 51.9644 23.0861 52.0598 23.0776C52.1552 23.0691 52.2421 23.1812 52.2569 23.3166Z" fill="#263238"/>
<path d="M50.493 23.5027C50.51 23.6444 50.4464 23.7671 50.351 23.7756C50.2556 23.784 50.1687 23.6761 50.1538 23.5344C50.139 23.3927 50.2005 23.2721 50.2937 23.2637C50.387 23.2552 50.4782 23.361 50.493 23.5027Z" fill="#263238"/>
<path d="M50.3364 23.2658L49.9802 23.2002C49.9802 23.2002 50.188 23.4498 50.3364 23.2658Z" fill="#263238"/>
<path d="M51.0507 23.5703C50.959 23.9046 50.8205 24.2243 50.6394 24.5201C50.7182 24.565 50.8056 24.5926 50.8959 24.6009C50.9863 24.6093 51.0773 24.5984 51.163 24.5687L51.0507 23.5703Z" fill="#ED893E"/>
<path d="M55.528 24.2005C55.4719 24.3492 55.3841 24.4839 55.2706 24.5953C55.1571 24.7067 55.0207 24.7921 54.8708 24.8457C54.4829 24.9705 54.2603 24.5538 54.3451 24.118C54.4193 23.7246 54.7097 23.1852 55.1104 23.2529C55.5111 23.3206 55.6849 23.8155 55.528 24.2005Z" fill="#FFB573"/>
<path d="M52.7128 22.6101C52.6895 22.6065 52.6683 22.5945 52.6534 22.5763C52.5901 22.4905 52.5078 22.4205 52.4129 22.3717C52.3181 22.3229 52.2132 22.2967 52.1065 22.2949C52.0841 22.2967 52.0618 22.2898 52.0445 22.2756C52.0271 22.2614 52.0159 22.2411 52.0132 22.2188C52.0123 22.2078 52.0137 22.1967 52.0172 22.1862C52.0207 22.1758 52.0263 22.1661 52.0336 22.1578C52.0409 22.1495 52.0498 22.1428 52.0598 22.138C52.0697 22.1332 52.0806 22.1305 52.0916 22.1299C52.2269 22.1283 52.3605 22.1589 52.4815 22.2192C52.6025 22.2796 52.7072 22.3679 52.787 22.4769C52.794 22.4853 52.7992 22.4951 52.8023 22.5057C52.8054 22.5163 52.8062 22.5273 52.8048 22.5382C52.8034 22.5491 52.7998 22.5596 52.7942 22.5691C52.7886 22.5786 52.7811 22.5868 52.7721 22.5932C52.7552 22.6061 52.734 22.6121 52.7128 22.6101Z" fill="#263238"/>
<path d="M49.9674 22.8955C49.9468 22.903 49.9243 22.903 49.9038 22.8955C49.8833 22.8866 49.8671 22.8703 49.8584 22.8498C49.8498 22.8293 49.8493 22.8063 49.8571 22.7855C49.9064 22.6625 49.9844 22.553 50.0848 22.4661C50.1851 22.3793 50.3047 22.3176 50.4338 22.2863C50.4562 22.2826 50.4792 22.2879 50.4979 22.3009C50.5165 22.314 50.5293 22.3338 50.5334 22.3561C50.5371 22.3774 50.5323 22.3993 50.52 22.4171C50.5077 22.4349 50.4889 22.4472 50.4677 22.4513C50.3656 22.4771 50.2712 22.5269 50.1923 22.5964C50.1134 22.6659 50.0523 22.7532 50.014 22.8511C50.0098 22.8614 50.0035 22.8707 49.9955 22.8783C49.9874 22.886 49.9778 22.8918 49.9674 22.8955Z" fill="#263238"/>
<path d="M52.102 23.0818L51.7458 23.0142C51.7458 23.0142 51.9515 23.2638 52.102 23.0818Z" fill="#263238"/>
<path d="M54.7479 38.0307L53.3466 37.3179L53.0222 39.0841C53.0222 39.0841 54.1543 39.3549 54.9514 39.0228L55.0765 38.8113C55.1083 38.4263 55.0617 38.2655 54.7479 38.0307Z" fill="#FFB573"/>
<path d="M52.2314 37.7938L52.1975 38.5701C52.1924 38.6822 52.23 38.792 52.3028 38.8776C52.3755 38.9631 52.478 39.018 52.5897 39.0313L53.0264 39.0841L53.3508 37.3179L52.6448 37.3665C52.5353 37.3747 52.4328 37.4228 52.3565 37.5016C52.2803 37.5804 52.2358 37.6844 52.2314 37.7938Z" fill="#FFB573"/>
<path d="M57.716 30.2652C58.0594 31.2319 58.369 32.1943 58.6467 33.1801C58.9468 34.1779 59.186 35.193 59.3632 36.2198C59.4096 36.5081 59.4365 36.7993 59.4438 37.0913C59.4577 37.4897 59.3632 37.8844 59.1703 38.2335C58.9609 38.588 58.6491 38.8711 58.2757 39.0458C57.9718 39.1861 57.6464 39.274 57.3132 39.306C56.7458 39.3544 56.1744 39.3195 55.6172 39.2023C55.353 39.1548 55.0918 39.092 54.8349 39.0141C54.576 38.942 54.3212 38.8559 54.0717 38.756C53.9677 38.7148 53.8823 38.6371 53.8315 38.5376C53.7808 38.4381 53.7681 38.3235 53.7959 38.2153C53.8237 38.1071 53.8901 38.0128 53.9827 37.95C54.0752 37.8871 54.1875 37.8601 54.2986 37.8739H54.324C54.5508 37.9014 54.7989 37.931 55.0363 37.9501C55.2737 37.9691 55.5175 37.9776 55.7529 37.9839C56.1977 38.0013 56.6429 37.9622 57.0779 37.8676C57.2455 37.8305 57.406 37.7662 57.5528 37.6772C57.6369 37.6307 57.7016 37.5556 57.7351 37.4657C57.7674 37.3624 57.7761 37.2533 57.7605 37.1463C57.7407 36.9329 57.7074 36.7209 57.6609 36.5117C57.5676 36.059 57.4489 35.5852 57.3068 35.1156C57.1648 34.646 57.0334 34.17 56.8828 33.6962C56.5839 32.7528 56.2744 31.7924 55.967 30.8596C55.8877 30.6279 55.9039 30.3742 56.0121 30.1545C56.1202 29.9347 56.3114 29.7668 56.5436 29.6877C56.7758 29.6086 57.03 29.6248 57.2503 29.7327C57.4706 29.8406 57.6388 30.0314 57.7181 30.2631L57.716 30.2652Z" fill="#FFB573"/>
<path d="M45.9436 42.407L44.377 42.2822L44.7522 44.0379C44.7522 44.0379 45.7783 43.8751 46.4058 43.3441C46.4761 43.2827 46.5214 43.1976 46.533 43.1051C46.5437 43.0397 46.5371 42.9726 46.5139 42.9105C46.4803 42.7793 46.4079 42.6611 46.3062 42.5714C46.2046 42.4816 46.0783 42.4244 45.9436 42.407Z" fill="#FFB573"/>
<path d="M43.5224 43.1474L43.7896 43.8772C43.8273 43.9829 43.9039 44.0704 44.0039 44.1219C44.1039 44.1734 44.2198 44.1849 44.328 44.1543L44.752 44.0379L44.3768 42.2822L43.7408 42.5953C43.6432 42.645 43.5672 42.7285 43.527 42.8301C43.4868 42.9318 43.4852 43.0446 43.5224 43.1474Z" fill="#FFB573"/>
<path d="M56.6559 28.831C57.7032 29.271 58.2014 29.9817 59.0663 31.9574C58.8543 33.3112 56.5626 34.4619 56.5626 34.4619C56.5626 34.4619 55.8058 32.7485 55.5556 31.6867C55.3054 30.6248 55.5959 28.3847 56.6559 28.831Z" fill="#263238"/>
<path d="M53.6032 76.2247C53.5938 76.1993 53.5762 76.1778 53.5532 76.1636C53.5301 76.1494 53.5029 76.1433 53.476 76.1464L52.1531 76.1253C52.0143 76.1158 51.8755 76.1451 51.7524 76.2099C51.1472 76.5873 50.4675 76.8297 49.7596 76.9206C49.4798 76.9629 49.607 77.4367 50.2684 77.4431C51.3645 77.4558 51.5616 77.3733 52.4965 77.3839C53.2937 77.3839 52.9205 77.4283 53.5565 77.4431C53.7092 77.4431 53.8321 77.3479 53.8131 77.2421L53.6032 76.2247Z" fill="#263238"/>
<path d="M62.804 75.4293C62.7881 75.4073 62.7654 75.391 62.7393 75.383C62.7133 75.375 62.6854 75.3757 62.6598 75.3849L61.373 75.7001C61.2373 75.7252 61.1115 75.7883 61.0104 75.882C60.6988 76.2416 60.2684 76.7937 59.378 76.927C59.0961 76.9693 59.2233 77.4431 59.8847 77.4495C60.9808 77.4621 61.1186 77.056 62.0259 76.8297C62.7997 76.6372 62.4499 76.7683 63.0584 76.6181C63.2068 76.5843 63.3022 76.4574 63.2555 76.3601L62.804 75.4293Z" fill="#263238"/>
<path d="M51.7227 31.2023C52.2103 31.0204 53.5819 30.9125 54.2009 31.4879C55.2143 30.9675 55.7676 29.4804 55.6425 28.5709C55.4045 28.392 55.1112 28.3022 54.8136 28.317C54.8136 28.317 52.5558 29.7385 51.7227 31.2023Z" fill="#FAFAFA"/>
<path d="M50.8215 31.2192C50.8215 31.2192 50.5417 30.0304 51.8815 28.6999C51.7204 28.5962 51.1586 28.795 51.1586 28.795C51.1586 28.795 49.5305 29.7152 49.7912 31.6063C50.0722 31.3502 50.4411 31.2116 50.8215 31.2192Z" fill="#FAFAFA"/>
<path d="M52.702 24.6618C52.7702 24.5974 52.832 24.5266 52.8865 24.4503C52.8904 24.4453 52.8931 24.4395 52.8946 24.4334C52.8961 24.4272 52.8962 24.4209 52.895 24.4146C52.8938 24.4084 52.8913 24.4026 52.8876 24.3974C52.8839 24.3922 52.8792 24.3879 52.8738 24.3847C52.8641 24.3763 52.8516 24.3716 52.8388 24.3716C52.8259 24.3716 52.8135 24.3763 52.8038 24.3847C52.6793 24.5529 52.5184 24.6909 52.333 24.7883C52.1477 24.8858 51.9426 24.9401 51.7332 24.9474C51.7261 24.9459 51.7187 24.946 51.7117 24.9477C51.7046 24.9494 51.698 24.9526 51.6924 24.9572C51.6867 24.9618 51.6822 24.9675 51.6791 24.9741C51.6759 24.9806 51.6743 24.9878 51.6743 24.995C51.6743 25.0022 51.6759 25.0094 51.6791 25.0159C51.6822 25.0225 51.6867 25.0282 51.6924 25.0328C51.698 25.0374 51.7046 25.0406 51.7117 25.0423C51.7187 25.044 51.7261 25.0441 51.7332 25.0426C52.0916 25.0366 52.4358 24.9014 52.702 24.6618Z" fill="#263238"/>
</svg>
