<svg width="71" height="69" viewBox="0 0 71 69" fill="none" xmlns="http://www.w3.org/2000/svg">
<path d="M29.8477 5.31083L26.5061 54.1077H67.2517L70.9423 0.198242H35.3115L29.8477 5.31083Z" fill="#FFCA40"/>
<path opacity="0.8" d="M29.8477 5.31083L26.5061 54.1077H67.2517L70.9423 0.198242H35.3115L29.8477 5.31083Z" fill="white"/>
<path d="M63.9175 16.6728C66.6624 14.0202 66.8793 9.7917 64.402 7.22819C61.9248 4.66467 57.6913 4.73687 54.9464 7.38946C52.2015 10.042 51.9846 14.2705 54.4618 16.834C56.9391 19.3975 61.1726 19.3253 63.9175 16.6728Z" fill="#FFCA40"/>
<path d="M63.6808 16.4279C66.2811 13.9151 66.4868 9.90947 64.1401 7.48115C61.7935 5.05282 57.7832 5.12134 55.1829 7.63418C52.5826 10.147 52.3769 14.1526 54.7236 16.5809C57.0702 19.0093 61.0805 18.9407 63.6808 16.4279Z" fill="white"/>
<mask id="mask0_1_12815" style="mask-type:luminance" maskUnits="userSpaceOnUse" x="53" y="5" width="13" height="14">
<path d="M63.6808 16.4279C66.2811 13.9151 66.4868 9.90947 64.1401 7.48115C61.7935 5.05282 57.7832 5.12134 55.1829 7.63418C52.5826 10.147 52.3769 14.1526 54.7236 16.5809C57.0702 19.0093 61.0805 18.9407 63.6808 16.4279Z" fill="white"/>
</mask>
<g mask="url(#mask0_1_12815)">
<path d="M57.7697 14.2303L56.5244 14.1484C56.5244 14.1484 55.9449 17.1302 55.5743 17.3802C55.068 17.7313 54.0662 18.5802 53.4004 18.8883C53.3318 19.09 53.3176 19.3063 53.3595 19.5153C54.3936 19.5153 56.3068 18.4854 56.6365 18.0373C57.3927 17.0311 57.7697 14.2303 57.7697 14.2303Z" fill="#FFC3BD"/>
<path d="M58.3643 12.3608C58.7413 13.0631 57.5671 15.5925 57.5671 15.5925L55.9685 15.0927C56.0144 14.315 56.1945 13.5511 56.5007 12.8348C56.8971 12.0096 57.9506 11.5895 58.3643 12.3608Z" fill="#263238"/>
<path opacity="0.2" d="M57.1426 13.6533C57.358 14.1618 57.0758 15.3898 56.8539 16.1676C56.3131 15.2412 56.2377 14.3794 57.1426 13.6533Z" fill="black"/>
<path d="M57.1363 12.4856C56.8907 13.384 56.4081 15.7432 56.8023 19.4468H61.0101C61.107 18.7422 60.9842 15.3015 61.9731 11.9815C61.4718 11.8823 60.9643 11.8175 60.4542 11.7876C59.8041 11.7498 59.1523 11.7498 58.5022 11.7876C58.2247 11.8133 57.95 11.8638 57.6814 11.9384C57.5508 11.9744 57.4319 12.0438 57.3363 12.1398C57.2408 12.2357 57.1718 12.3549 57.1363 12.4856Z" fill="#263238"/>
<path opacity="0.2" d="M60.9001 12.7999C60.773 13.3472 60.8225 14.655 61.2039 16.1674C61.3169 14.8648 61.5425 13.5745 61.8782 12.3109C61.5788 12.2742 61.0207 12.2915 60.9001 12.7999Z" fill="black"/>
<path d="M60.3678 9.96045C60.1868 10.5896 60.0532 11.3673 60.454 11.7875C60.454 11.7875 60.1416 12.4338 58.976 12.4338C57.9095 12.4338 58.502 11.7875 58.502 11.7875C59.2173 11.6194 59.2625 10.7533 59.185 10.2664L60.3678 9.96045Z" fill="#FFC3BD"/>
<path d="M58.9739 12.4229C59.0826 12.6055 59.1406 12.8137 59.1419 13.0262C59.1419 13.0262 60.6501 12.5113 60.6501 11.7551C60.6501 11.7551 60.454 11.6322 60.3312 11.5396C60.3355 11.5331 60.2342 12.1213 58.9739 12.4229Z" fill="white"/>
<path d="M58.9329 12.4232C58.7972 12.5873 58.6961 12.7771 58.6356 12.9812C58.4579 12.8453 58.3281 12.6564 58.265 12.4418C58.2019 12.2272 58.2087 11.9981 58.2844 11.7876C58.4097 11.7375 58.5386 11.6972 58.6701 11.667C58.6701 11.667 58.4869 12.2616 58.9329 12.4232Z" fill="white"/>
<path opacity="0.2" d="M59.1894 10.2664C59.2514 10.6124 59.2164 10.9689 59.0881 11.2962C59.1992 11.2804 59.3073 11.2484 59.4092 11.2014C59.8228 11.014 60.0447 10.721 60.2882 10.2879C60.3119 10.1759 60.342 10.0725 60.3722 9.96045L59.1894 10.2664Z" fill="black"/>
<path d="M58.1659 9.68446C58.1979 9.77985 58.2495 9.86749 58.3174 9.94171C58.3853 10.0159 58.468 10.0751 58.5602 10.1154C58.8123 10.2231 58.9911 9.99255 58.976 9.72755C58.9609 9.46255 58.8015 9.14368 58.5236 9.14799C58.4609 9.151 58.3999 9.16868 58.3453 9.19959C58.2907 9.2305 58.2442 9.27379 58.2094 9.32598C58.1746 9.37816 58.1525 9.43778 58.145 9.50005C58.1375 9.56231 58.1446 9.62547 58.1659 9.68446Z" fill="#FFC3BD"/>
<path opacity="0.2" d="M58.1659 9.68446C58.1979 9.77985 58.2495 9.86749 58.3174 9.94171C58.3853 10.0159 58.468 10.0751 58.5602 10.1154C58.8123 10.2231 58.9911 9.99255 58.976 9.72755C58.9609 9.46255 58.8015 9.14368 58.5236 9.14799C58.4609 9.151 58.3999 9.16868 58.3453 9.19959C58.2907 9.2305 58.2442 9.27379 58.2094 9.32598C58.1746 9.37816 58.1525 9.43778 58.145 9.50005C58.1375 9.56231 58.1446 9.62547 58.1659 9.68446Z" fill="black"/>
<path d="M59.2928 7.92488C59.211 7.4272 58.4763 8.30191 58.6336 8.76297C58.7909 9.22403 59.3833 8.48505 59.2928 7.92488Z" fill="#263238"/>
<path d="M60.8656 9.18656C60.5963 10.0203 60.4799 10.518 59.9521 10.8757C59.7924 10.9978 59.601 11.0715 59.4006 11.088C59.2002 11.1045 58.9993 11.063 58.8218 10.9686C58.6443 10.8742 58.4977 10.7307 58.3994 10.5554C58.3011 10.38 58.2552 10.1801 58.2673 9.97941C58.2888 9.19087 58.7262 7.96066 59.6181 7.76675C60.5101 7.57285 61.1284 8.35277 60.8656 9.18656Z" fill="#FFC3BD"/>
<path d="M60.6202 8.69385C59.711 8.56458 58.4054 8.39653 58.8794 7.65323C59.3297 6.94441 61.1265 7.07368 60.5814 7.38823C61.2859 7.42917 62.1822 7.76742 61.5057 8.00011C62.0508 8.38791 61.8353 9.42637 60.7947 9.78833C60.4953 9.35312 60.2669 9.16137 60.6202 8.69385Z" fill="#263238"/>
<path d="M60.9948 10.1804C60.8411 10.3378 60.6347 10.433 60.4152 10.4475C60.1308 10.4626 60.077 10.1911 60.2299 9.95629C60.3829 9.72145 60.6802 9.48231 60.9301 9.57926C61.1801 9.67621 61.1865 9.98214 60.9948 10.1804Z" fill="#FFC3BD"/>
<path d="M59.5565 9.2027C59.5394 9.27109 59.4903 9.31811 59.4454 9.3117C59.4005 9.30529 59.3813 9.24331 59.4005 9.17491C59.4197 9.10652 59.4667 9.05736 59.5095 9.06591C59.5522 9.07446 59.5758 9.1343 59.5565 9.2027Z" fill="#263238"/>
<path d="M58.8004 9.0695C58.7833 9.1379 58.7341 9.18706 58.6914 9.17851C58.6486 9.16996 58.6272 9.11011 58.6443 9.04172C58.6614 8.97332 58.7106 8.9263 58.7555 8.93271C58.8004 8.93913 58.8196 9.00111 58.8004 9.0695Z" fill="#263238"/>
<path d="M59.0343 9.14795C58.8989 9.34362 58.7397 9.52166 58.5603 9.67795C58.5986 9.71943 58.6459 9.75152 58.6986 9.7717C58.7513 9.79188 58.8079 9.79961 58.8641 9.79429L59.0343 9.14795Z" fill="#ED847E"/>
<path d="M59.0105 10.0183C59.0079 10.0178 59.0055 10.0168 59.0033 10.0153C59.0012 10.0138 58.9993 10.0119 58.9979 10.0097C58.9965 10.0075 58.9955 10.005 58.9951 10.0024C58.9947 9.99983 58.9948 9.99718 58.9954 9.99464C58.9973 9.98936 59.0008 9.98483 59.0055 9.98172C59.0101 9.97862 59.0157 9.97711 59.0213 9.97743C59.1073 9.99255 59.1956 9.98823 59.2797 9.96478C59.3638 9.94133 59.4416 9.89935 59.5074 9.84191C59.5092 9.84002 59.5114 9.83852 59.5138 9.83749C59.5162 9.83647 59.5188 9.83594 59.5214 9.83594C59.524 9.83594 59.5266 9.83647 59.529 9.83749C59.5314 9.83852 59.5336 9.84002 59.5354 9.84191C59.5393 9.84593 59.5415 9.85133 59.5415 9.85696C59.5415 9.86259 59.5393 9.868 59.5354 9.87202C59.4648 9.9348 59.3809 9.98061 59.2899 10.006C59.1989 10.0313 59.1034 10.0355 59.0105 10.0183Z" fill="#263238"/>
<path d="M59.8497 8.99189C59.8439 8.99103 59.8384 8.98857 59.8338 8.98478C59.8293 8.981 59.8259 8.97603 59.824 8.97044C59.8063 8.92499 59.7773 8.8848 59.7397 8.85365C59.7022 8.8225 59.6574 8.80141 59.6095 8.79237C59.6043 8.79221 59.5993 8.79089 59.5947 8.78852C59.5901 8.78615 59.5861 8.78277 59.583 8.77865C59.5799 8.77453 59.5778 8.76977 59.5768 8.76471C59.5758 8.75966 59.576 8.75445 59.5773 8.74946C59.5793 8.73867 59.5853 8.72901 59.594 8.72229C59.6027 8.71558 59.6135 8.71227 59.6245 8.71299C59.6852 8.72188 59.7425 8.74631 59.791 8.78389C59.8395 8.82148 59.8775 8.87096 59.9012 8.92753C59.9048 8.9378 59.9044 8.94904 59.9 8.959C59.8956 8.96896 59.8876 8.97688 59.8776 8.98116C59.874 8.98482 59.8696 8.98767 59.8648 8.98952C59.86 8.99136 59.8549 8.99218 59.8497 8.99189Z" fill="#263238"/>
<path d="M58.5431 8.73654C58.5383 8.73835 58.5329 8.73835 58.528 8.73654C58.5243 8.73292 58.5213 8.72858 58.5192 8.72378C58.5172 8.71897 58.5161 8.7138 58.5161 8.70857C58.5161 8.70335 58.5172 8.69818 58.5192 8.69337C58.5213 8.68857 58.5243 8.68422 58.528 8.68061C58.5711 8.62992 58.6249 8.5895 58.6856 8.56233C58.7462 8.53516 58.8122 8.52192 58.8787 8.52358C58.8838 8.52436 58.8887 8.52616 58.8931 8.52886C58.8975 8.53157 58.9013 8.53514 58.9044 8.53935C58.9074 8.54356 58.9095 8.54833 58.9106 8.55338C58.9118 8.55843 58.9119 8.56366 58.9109 8.56875C58.9088 8.57997 58.9026 8.58998 58.8934 8.59676C58.8842 8.60354 58.8728 8.6066 58.8615 8.60532C58.809 8.60468 58.7571 8.61574 58.7095 8.63769C58.6618 8.65964 58.6197 8.69194 58.5861 8.73223C58.5802 8.73715 58.5729 8.74019 58.5653 8.74095C58.5576 8.74172 58.5499 8.74018 58.5431 8.73654Z" fill="#263238"/>
<path d="M62.3436 13.1343L61.2038 13.7397C61.2038 13.7397 62.3048 16.4543 62.1173 16.8615C61.861 17.4174 61.4365 18.639 61.0186 19.2444C61.0678 19.4462 61.1731 19.6299 61.3223 19.7744C62.2358 19.2228 63.3583 17.3592 63.4079 16.8206C63.5199 15.5904 62.3436 13.1343 62.3436 13.1343Z" fill="#FFC3BD"/>
<path d="M61.973 11.9817C62.7702 12.1218 63.3562 14.9614 63.3562 14.9614L61.3913 15.5237C61.1121 14.8707 60.8809 14.1981 60.6997 13.5114C60.439 12.46 61.1284 11.8287 61.973 11.9817Z" fill="#263238"/>
</g>
<path d="M61.749 48.3568C64.4939 45.7043 64.7109 41.4758 62.2336 38.9123C59.7563 36.3488 55.5229 36.421 52.778 39.0735C50.033 41.7261 49.8161 45.9546 52.2934 48.5181C54.7707 51.0816 59.0041 51.0094 61.749 48.3568Z" fill="#FFCA40"/>
<path d="M61.5124 48.1105C64.1127 45.5977 64.3183 41.5921 61.9717 39.1638C59.625 36.7354 55.6147 36.804 53.0144 39.3168C50.4141 41.8296 50.2085 45.8352 52.5551 48.2636C54.9018 50.6919 58.9121 50.6234 61.5124 48.1105Z" fill="white"/>
<mask id="mask1_1_12815" style="mask-type:luminance" maskUnits="userSpaceOnUse" x="50" y="37" width="14" height="14">
<path d="M61.5124 48.1105C64.1127 45.5977 64.3183 41.5921 61.9717 39.1638C59.625 36.7354 55.6147 36.804 53.0144 39.3168C50.4141 41.8296 50.2085 45.8352 52.5551 48.2636C54.9018 50.6919 58.9121 50.6234 61.5124 48.1105Z" fill="white"/>
</mask>
<g mask="url(#mask1_1_12815)">
<path d="M55.0619 45.9741L53.892 45.5928C53.892 45.5928 52.6187 48.3936 52.2029 48.5617C51.6341 48.7771 50.4793 49.3825 49.7662 49.5269C49.6504 49.7102 49.5837 49.9201 49.5723 50.1366C50.559 50.3908 52.6338 49.8306 53.0582 49.4665C54.0191 48.6392 55.0619 45.9741 55.0619 45.9741Z" fill="#FFB573"/>
<path d="M56.0809 44.2658C56.2705 45.05 54.5383 47.2713 54.5383 47.2713L53.1357 46.3836C53.3668 45.6294 53.7229 44.9193 54.1893 44.283C54.7667 43.5656 55.8719 43.4061 56.0809 44.2658Z" fill="#FFCA40"/>
<path opacity="0.3" d="M56.0809 44.2658C56.2705 45.05 54.5383 47.2713 54.5383 47.2713L53.1357 46.3836C53.3668 45.6294 53.7229 44.9193 54.1893 44.283C54.7667 43.5656 55.8719 43.4061 56.0809 44.2658Z" fill="black"/>
<path opacity="0.2" d="M54.9864 45.2417C55.1178 45.7846 54.9993 46.6529 54.6524 47.3962C54.3443 46.9287 53.9845 45.8148 54.9864 45.2417Z" fill="black"/>
<path d="M54.9669 44.1775C54.7213 45.0759 54.2408 47.4351 54.633 51.1386H58.8428C58.9398 50.4341 58.8148 46.9934 59.8037 43.6734C59.3024 43.5742 58.7949 43.5094 58.2848 43.4795C57.6347 43.4417 56.983 43.4417 56.3328 43.4795C56.0553 43.5054 55.7806 43.5559 55.512 43.6303C55.3816 43.6667 55.2629 43.7362 55.1674 43.8321C55.0719 43.928 55.0028 44.047 54.9669 44.1775Z" fill="#FFCA40"/>
<path opacity="0.3" d="M54.9669 44.1775C54.7213 45.0759 54.2408 47.4351 54.633 51.1386H58.8428C58.9398 50.4341 58.8148 46.9934 59.8037 43.6734C59.3024 43.5742 58.7949 43.5094 58.2848 43.4795C57.6347 43.4417 56.983 43.4417 56.3328 43.4795C56.0553 43.5054 55.7806 43.5559 55.512 43.6303C55.3816 43.6667 55.2629 43.7362 55.1674 43.8321C55.0719 43.928 55.0028 44.047 54.9669 44.1775Z" fill="black"/>
<path opacity="0.2" d="M58.7461 45.1879C58.619 45.7351 58.5069 47.0343 59.0348 47.8487C59.1486 46.546 59.375 45.2557 59.7113 43.9921C59.4054 43.962 58.8667 44.6751 58.7461 45.1879Z" fill="black"/>
<g opacity="0.95">
<path d="M56.7532 45.16L56.5226 45.2613L56.346 45.1018C56.1215 44.9158 55.9584 44.6663 55.8781 44.3861C55.7977 44.1059 55.8039 43.8079 55.8957 43.5312C56.0381 43.5029 56.1819 43.4821 56.3266 43.4687C56.9767 43.431 57.6284 43.431 58.2785 43.4687C58.4293 43.4687 58.5802 43.4881 58.7267 43.5032L58.5802 43.6906C58.0859 44.3081 57.4622 44.8096 56.7532 45.16Z" fill="white"/>
</g>
<path d="M58.201 41.6416C58.0179 42.2707 57.8843 43.0485 58.285 43.4686C57.8319 44.0294 57.2631 44.4858 56.6174 44.8065C56.42 44.6528 56.2833 44.4342 56.2312 44.1894C56.1792 43.9447 56.2153 43.6894 56.3331 43.4686C57.0505 43.3005 57.0936 42.4344 57.016 41.9475L58.201 41.6416Z" fill="#FFB573"/>
<path opacity="0.2" d="M57.0161 41.9475C57.0781 42.2936 57.0431 42.65 56.9148 42.9774C57.0265 42.9612 57.1353 42.9293 57.238 42.8826C57.6495 42.6951 57.8714 42.4021 58.1148 41.9691C58.1407 41.857 58.1687 41.7536 58.201 41.6416L57.0161 41.9475Z" fill="black"/>
<path d="M55.9967 41.3768C56.0287 41.4726 56.0805 41.5604 56.1488 41.6347C56.2171 41.709 56.3004 41.7679 56.3931 41.8077C56.6452 41.9155 56.824 41.6849 56.8068 41.4199C56.7896 41.1549 56.6323 40.8361 56.3565 40.8404C56.2937 40.8431 56.2324 40.8605 56.1775 40.8913C56.1227 40.922 56.0759 40.9653 56.0408 41.0175C56.0058 41.0698 55.9835 41.1295 55.9759 41.1919C55.9682 41.2543 55.9754 41.3177 55.9967 41.3768Z" fill="#FFB573"/>
<path opacity="0.2" d="M55.9967 41.3768C56.0287 41.4726 56.0805 41.5604 56.1488 41.6347C56.2171 41.709 56.3004 41.7679 56.3931 41.8077C56.6452 41.9155 56.824 41.6849 56.8068 41.4199C56.7896 41.1549 56.6323 40.8361 56.3565 40.8404C56.2937 40.8431 56.2324 40.8605 56.1775 40.8913C56.1227 40.922 56.0759 40.9653 56.0408 41.0175C56.0058 41.0698 55.9835 41.1295 55.9759 41.1919C55.9682 41.2543 55.9754 41.3177 55.9967 41.3768Z" fill="black"/>
<path d="M56.9945 39.8925C56.9126 39.3302 56.2878 39.9744 56.2168 40.3859C56.1457 40.7974 56.4904 41.2132 56.7252 40.8168C56.96 40.4204 57.0355 40.1963 56.9945 39.8925Z" fill="#263238"/>
<path d="M58.6966 40.8687C58.4273 41.7025 58.311 42.198 57.7831 42.5578C57.6234 42.6799 57.432 42.7536 57.2316 42.7701C57.0313 42.7866 56.8304 42.7452 56.6529 42.6507C56.4754 42.5563 56.3288 42.4129 56.2305 42.2375C56.1321 42.0621 56.0863 41.8622 56.0983 41.6615C56.1199 40.873 56.5572 39.6428 57.4492 39.4489C58.3411 39.255 58.9746 40.0349 58.6966 40.8687Z" fill="#FFB573"/>
<path d="M58.2893 41.7411C57.9662 41.5257 57.908 41.4438 58.0739 41.2499C58.354 40.9353 57.9381 40.8901 58.1579 40.5001C58.4638 39.9572 57.4879 40.3385 57.4706 39.9443C57.4555 39.6232 56.6088 40.2006 56.5205 39.8301C56.3934 39.2742 57.2078 39.3776 57.35 39.1062C57.4922 38.8347 58.3281 38.7938 58.4617 39.1902C58.5953 39.5866 59.0154 39.2699 59.289 39.7525C59.5626 40.2351 58.996 40.2717 59.2696 40.7414C59.4851 41.1185 59.0693 41.3878 58.7741 41.6872C58.5974 41.8811 58.4897 41.8768 58.2893 41.7411Z" fill="#263238"/>
<path d="M58.8795 41.7473C58.74 41.9183 58.5418 42.0312 58.3236 42.064C58.0392 42.1028 57.9617 41.8485 58.0953 41.5921C58.2288 41.3358 58.5046 41.0837 58.7631 41.1612C59.0217 41.2388 59.054 41.534 58.8795 41.7473Z" fill="#FFB573"/>
<path d="M57.3873 40.8848C57.3702 40.9532 57.321 41.0003 57.2783 40.9938C57.2355 40.9874 57.2141 40.9254 57.2312 40.857C57.2483 40.7886 57.2975 40.7395 57.3424 40.748C57.3873 40.7566 57.4065 40.8164 57.3873 40.8848Z" fill="#263238"/>
<path d="M56.6333 40.7507C56.6141 40.8191 56.5649 40.8682 56.5222 40.8597C56.4794 40.8511 56.458 40.7913 56.4751 40.7229C56.4922 40.6545 56.5435 40.6075 56.5863 40.6139C56.629 40.6203 56.6504 40.6823 56.6333 40.7507Z" fill="#263238"/>
<path d="M56.8651 40.8291C56.7308 41.0249 56.5723 41.203 56.3933 41.3591C56.4316 41.4006 56.4789 41.4327 56.5316 41.4529C56.5843 41.473 56.6409 41.4808 56.6971 41.4754L56.8651 40.8291Z" fill="#ED893E"/>
<path d="M56.8414 41.6998C56.8389 41.6993 56.8364 41.6983 56.8343 41.6968C56.8322 41.6953 56.8305 41.6933 56.8293 41.691C56.828 41.6888 56.8273 41.6862 56.8272 41.6837C56.827 41.6811 56.8275 41.6785 56.8285 41.6761C56.8296 41.6708 56.8326 41.666 56.837 41.6629C56.8414 41.6597 56.8468 41.6582 56.8522 41.6589C56.9382 41.674 57.0265 41.6697 57.1106 41.6462C57.1947 41.6228 57.2725 41.5808 57.3383 41.5234C57.3402 41.5215 57.3423 41.5201 57.3447 41.5191C57.3471 41.5181 57.3497 41.5176 57.3523 41.5176C57.3549 41.5176 57.3575 41.5181 57.3599 41.5191C57.3623 41.5201 57.3645 41.5215 57.3663 41.5234C57.3681 41.5252 57.3696 41.5274 57.3706 41.5298C57.3716 41.5322 57.3721 41.5348 57.3721 41.5374C57.3721 41.5399 57.3716 41.5425 57.3706 41.5449C57.3696 41.5473 57.3681 41.5495 57.3663 41.5513C57.2959 41.6145 57.212 41.6607 57.1211 41.6864C57.0301 41.7121 56.9344 41.7167 56.8414 41.6998Z" fill="#263238"/>
<path d="M57.6805 40.6735C57.6747 40.6727 57.6692 40.6702 57.6647 40.6664C57.6601 40.6626 57.6567 40.6577 57.6548 40.6521C57.6371 40.6066 57.6081 40.5664 57.5706 40.5353C57.533 40.5041 57.4882 40.4831 57.4403 40.474C57.4352 40.4735 57.4304 40.472 57.426 40.4695C57.4216 40.467 57.4178 40.4636 57.4148 40.4596C57.4117 40.4556 57.4096 40.451 57.4084 40.4461C57.4073 40.4411 57.4072 40.4361 57.4081 40.4311C57.4101 40.4203 57.4161 40.4106 57.4248 40.4039C57.4335 40.3972 57.4443 40.3939 57.4553 40.3946C57.516 40.4035 57.5734 40.4279 57.6218 40.4655C57.6703 40.5031 57.7083 40.5526 57.732 40.6092C57.7356 40.6194 57.7352 40.6307 57.7308 40.6406C57.7264 40.6506 57.7184 40.6585 57.7084 40.6628C57.7048 40.6665 57.7004 40.6693 57.6956 40.6712C57.6908 40.673 57.6857 40.6738 57.6805 40.6735Z" fill="#263238"/>
<path d="M56.3654 40.4174C56.3605 40.4187 56.3552 40.4187 56.3503 40.4174C56.3465 40.4137 56.3435 40.4094 56.3415 40.4046C56.3394 40.3998 56.3384 40.3946 56.3384 40.3894C56.3384 40.3842 56.3394 40.379 56.3415 40.3742C56.3435 40.3694 56.3465 40.365 56.3503 40.3614C56.3924 40.3102 56.4457 40.2693 56.5062 40.2421C56.5666 40.2148 56.6325 40.2019 56.6988 40.2044C56.7039 40.2052 56.7088 40.207 56.7132 40.2097C56.7176 40.2124 56.7215 40.216 56.7245 40.2202C56.7275 40.2244 56.7296 40.2291 56.7307 40.2342C56.7319 40.2392 56.732 40.2445 56.7311 40.2496C56.729 40.2604 56.723 40.2701 56.7143 40.2768C56.7056 40.2835 56.6947 40.2869 56.6837 40.2861C56.6312 40.2852 56.5792 40.2961 56.5315 40.3181C56.4839 40.3401 56.4418 40.3725 56.4084 40.4131C56.4022 40.4175 56.395 40.4202 56.3875 40.421C56.3799 40.4218 56.3723 40.4205 56.3654 40.4174Z" fill="#263238"/>
<path d="M60.2671 44.9126L59.0692 45.3693C59.0692 45.3693 59.7995 48.2283 59.5625 48.6118C59.2394 49.1354 58.6641 50.3031 58.175 50.8547C58.1965 51.0622 58.2765 51.2595 58.4056 51.4234C59.3729 50.9925 60.7195 49.269 60.838 48.7368C61.103 47.5195 60.2671 44.9126 60.2671 44.9126Z" fill="#FFB573"/>
<path d="M60.0516 43.7101C60.8164 43.9535 61.0254 46.8686 61.0254 46.8686L59.0218 47.1788C58.8316 46.4897 58.6919 45.7876 58.6038 45.0782C58.4788 43.9923 59.2286 43.4494 60.0516 43.7101Z" fill="#FFCA40"/>
<path opacity="0.3" d="M60.0516 43.7101C60.8164 43.9535 61.0254 46.8686 61.0254 46.8686L59.0218 47.1788C58.8316 46.4897 58.6919 45.7876 58.6038 45.0782C58.4788 43.9923 59.2286 43.4494 60.0516 43.7101Z" fill="black"/>
</g>
<path d="M42.9106 32.516C45.6555 29.8634 45.8725 25.635 43.3952 23.0714C40.9179 20.5079 36.6845 20.5801 33.9396 23.2327C31.1947 25.8853 30.9777 30.1138 33.455 32.6773C35.9323 35.2408 40.1657 35.1686 42.9106 32.516Z" fill="#FFCA40"/>
<path d="M42.674 32.2712C45.2743 29.7583 45.4799 25.7527 43.1333 23.3244C40.7866 20.8961 36.7763 20.9646 34.176 23.4774C31.5757 25.9903 31.3701 29.9959 33.7167 32.4242C36.0634 34.8525 40.0737 34.784 42.674 32.2712Z" fill="white"/>
<mask id="mask2_1_12815" style="mask-type:luminance" maskUnits="userSpaceOnUse" x="32" y="21" width="13" height="14">
<path d="M42.674 32.2707C45.2743 29.7578 45.4799 25.7522 43.1333 23.3239C40.7866 20.8956 36.7763 20.9641 34.176 23.477C31.5757 25.9898 31.3701 29.9954 33.7167 32.4237C36.0634 34.852 40.0737 34.7835 42.674 32.2707Z" fill="white"/>
</mask>
<g mask="url(#mask2_1_12815)">
<path d="M41.0726 29.3652C41.105 29.878 41.1308 30.3951 41.1502 30.91L41.2127 32.4483L41.2234 32.6357L41.2385 32.7995C41.2558 32.9115 41.2687 33.0279 41.2924 33.1485C41.3376 33.3855 41.3958 33.6268 41.4648 33.8681C41.594 34.3529 41.7513 34.8419 41.8956 35.3245L41.4497 35.54C41.1799 35.0835 40.9417 34.6091 40.7365 34.1202C40.6374 33.8724 40.5448 33.6203 40.4651 33.3553C40.4225 33.2209 40.3873 33.0842 40.3595 32.946L40.3229 32.7305L40.3013 32.5323C40.1871 31.4896 40.1117 30.4619 40.0708 29.4256L41.0726 29.3652Z" fill="#FF8B7B"/>
<path d="M40.8358 28.2342C41.2279 28.3355 41.3959 29.9858 41.3959 29.9858L39.7995 31.035C39.7995 31.035 39.3018 29.0809 39.64 28.6414C39.9783 28.2019 40.2605 28.0877 40.8358 28.2342Z" fill="#FFCA40"/>
<path opacity="0.2" d="M40.773 28.605L40.9669 30.2661L40.3184 30.6884L40.773 28.605Z" fill="black"/>
<path d="M36.46 23.9858C35.7856 24.0828 34.3745 27.3059 36.6754 28.8097C38.9764 30.3135 40.6742 28.605 40.6742 28.605C40.6742 28.605 39.2738 26.9418 39.4763 25.8559C39.6788 24.77 40.5535 23.4019 38.761 22.9452C37.4985 22.6328 35.8007 22.9344 36.46 23.9858Z" fill="#263238"/>
<path d="M40.8357 28.2345C40.8357 28.2345 41.286 28.3982 39.9739 34.1033H36.0205C36.1971 32.496 36.2661 31.505 35.7231 28.2065C36.2817 28.0943 36.8477 28.0223 37.4166 27.991C38.0133 27.949 38.6123 27.949 39.2091 27.991C39.9739 28.0578 40.8357 28.2345 40.8357 28.2345Z" fill="#FFCA40"/>
<path opacity="0.2" d="M35.96 29.5142C36.3112 29.6025 36.6063 29.9925 36.5266 30.7121C36.4794 31.0434 36.344 31.3559 36.1345 31.6169C36.1108 31.0632 36.0483 30.4212 35.9363 29.6003L35.96 29.5142Z" fill="black"/>
<path d="M38.9139 29.2509C38.9139 29.2509 38.2309 29.7852 38.1922 30.3519C37.6815 29.9576 37.0287 28.8847 37.0007 28.1974C37.0007 28.1403 37.0234 28.0855 37.0638 28.045C37.1042 28.0046 37.159 27.9819 37.2162 27.9819C37.2646 27.9783 37.3128 27.9718 37.3605 27.9626C37.3804 27.9582 37.4011 27.9585 37.4209 27.9633C37.4407 27.9682 37.4591 27.9775 37.4747 27.9906L38.9139 29.2509Z" fill="#FAFAFA"/>
<path d="M38.9138 29.2512C39.0954 29.3644 39.2472 29.5196 39.3563 29.7037C39.4654 29.8878 39.5286 30.0954 39.5408 30.3091C40.1139 29.9105 39.9178 28.719 39.6528 28.1352C39.6323 28.0897 39.6002 28.0505 39.5597 28.0214C39.5193 27.9923 39.4719 27.9743 39.4223 27.9693C39.3447 27.9693 39.2844 27.9499 39.2435 27.9413C39.2286 27.9387 39.2134 27.942 39.2009 27.9504C39.1885 27.9589 39.1798 27.9718 39.1767 27.9865L38.9138 29.2512Z" fill="#FAFAFA"/>
<path d="M37.7311 25.9678C37.8043 26.5452 37.8452 27.603 37.4165 27.9865C37.8185 28.5112 38.3293 28.9426 38.9139 29.2512C39.7584 28.6049 39.209 27.9865 39.209 27.9865C38.5756 27.8336 38.6252 27.3574 38.7674 26.9093L37.7311 25.9678Z" fill="#FF8B7B"/>
<path opacity="0.2" d="M38.1533 26.3511L38.7674 26.9069C38.7324 27.0108 38.7065 27.1175 38.6898 27.2258C38.4463 27.1892 38.0758 26.9802 38.0435 26.713C38.0512 26.5854 38.0889 26.4615 38.1533 26.3511Z" fill="black"/>
<path d="M36.8283 25.0415C37.0308 25.9701 37.0976 26.3665 37.6535 26.7435C37.8397 26.8755 38.0575 26.9559 38.2848 26.9764C38.5121 26.9969 38.7408 26.9568 38.9477 26.8603C39.1545 26.7638 39.3321 26.6142 39.4624 26.4268C39.5926 26.2395 39.671 26.0209 39.6894 25.7934C39.7649 24.9036 39.4201 23.5355 38.4291 23.3675C38.2043 23.3324 37.9744 23.3522 37.7589 23.4251C37.5434 23.4981 37.3488 23.6221 37.1916 23.7865C37.0343 23.9509 36.9192 24.1509 36.8559 24.3694C36.7927 24.5879 36.7832 24.8185 36.8283 25.0415Z" fill="#FF8B7B"/>
<path d="M37.0934 25.8775C37.6902 25.3088 37.7118 24.6042 37.5609 24.3845C38.0737 24.3414 39.4009 24.0182 39.1876 23.5227C38.9743 23.0272 36.9081 22.76 36.6238 24.0268C35.9386 24.5999 36.376 25.7483 37.0934 25.8775Z" fill="#263238"/>
<path d="M38.3881 24.9573C38.4009 25.0345 38.4503 25.086 38.5018 25.0753C38.5532 25.0646 38.5833 24.9938 38.5704 24.9187C38.5575 24.8436 38.5082 24.7878 38.4588 24.8007C38.4095 24.8136 38.3773 24.8822 38.3881 24.9573Z" fill="#263238"/>
<path d="M39.2674 24.7647C39.2781 24.8419 39.3296 24.8934 39.3789 24.8827C39.4283 24.8719 39.4626 24.8011 39.4497 24.7239C39.4369 24.6467 39.3875 24.5952 39.3382 24.6059C39.3093 24.6195 39.2862 24.643 39.2733 24.6721C39.2603 24.7013 39.2582 24.7341 39.2674 24.7647Z" fill="#263238"/>
<path d="M39.3145 24.6165L39.4919 24.5225C39.4919 24.5225 39.4192 24.6849 39.3145 24.6165Z" fill="#263238"/>
<path d="M39.0173 24.9639C39.1129 25.1234 39.231 25.2683 39.368 25.3941C39.3334 25.4305 39.2917 25.4592 39.2454 25.4785C39.1991 25.4978 39.1492 25.5071 39.0991 25.5059L39.0173 24.9639Z" fill="#FF5652"/>
<path d="M38.7213 25.8947C38.7603 25.8926 38.7992 25.8875 38.8374 25.8796C38.8435 25.8781 38.8488 25.8744 38.8524 25.8693C38.8559 25.8641 38.8575 25.8579 38.8568 25.8517C38.8566 25.8486 38.8558 25.8457 38.8543 25.8431C38.8528 25.8405 38.8507 25.8382 38.8482 25.8366C38.8457 25.8349 38.8428 25.8338 38.8399 25.8335C38.8369 25.8331 38.8338 25.8334 38.831 25.8344C38.7378 25.8587 38.6401 25.8597 38.5464 25.8376C38.4527 25.8155 38.3658 25.7709 38.2932 25.7075C38.2888 25.7034 38.2831 25.7012 38.2771 25.7012C38.2711 25.7012 38.2653 25.7034 38.2609 25.7075C38.2587 25.7095 38.2568 25.712 38.2556 25.7148C38.2543 25.7176 38.2537 25.7206 38.2537 25.7237C38.2537 25.7267 38.2543 25.7297 38.2556 25.7325C38.2568 25.7353 38.2587 25.7378 38.2609 25.7398C38.3225 25.7965 38.3953 25.8396 38.4746 25.8663C38.5539 25.8929 38.638 25.9026 38.7213 25.8947Z" fill="#263238"/>
<path d="M36.7033 25.9682C36.7507 26.0447 36.8135 26.1105 36.8876 26.1613C36.9618 26.2121 37.0458 26.2469 37.1342 26.2634C37.3755 26.3086 37.4897 26.0846 37.4186 25.867C37.3475 25.6494 37.1515 25.4124 36.9123 25.4662C36.8602 25.4777 36.8116 25.5015 36.7707 25.5357C36.7297 25.57 36.6976 25.6135 36.6771 25.6628C36.6566 25.7121 36.6483 25.7656 36.6528 25.8187C36.6574 25.8719 36.6747 25.9232 36.7033 25.9682Z" fill="#FF8B7B"/>
<path d="M37.9765 24.7867C37.9863 24.7856 37.9955 24.7814 38.0028 24.7749C38.0101 24.7683 38.0152 24.7597 38.0174 24.7501C38.0737 24.6046 38.185 24.4872 38.3272 24.4231C38.333 24.4208 38.3383 24.4173 38.3428 24.4128C38.3472 24.4084 38.3507 24.4031 38.3532 24.3973C38.3556 24.3915 38.3568 24.3853 38.3567 24.379C38.3567 24.3727 38.3554 24.3665 38.353 24.3607C38.3507 24.3554 38.3473 24.3507 38.3431 24.3467C38.3389 24.3427 38.3339 24.3396 38.3285 24.3376C38.3231 24.3356 38.3173 24.3347 38.3115 24.335C38.3058 24.3353 38.3001 24.3367 38.2949 24.3392C38.2104 24.3769 38.1343 24.4312 38.0711 24.4988C38.008 24.5664 37.959 24.646 37.9271 24.7329C37.9255 24.7387 37.9251 24.7448 37.926 24.7507C37.9269 24.7567 37.9291 24.7623 37.9323 24.7674C37.9356 24.7725 37.9398 24.7768 37.9449 24.7801C37.9499 24.7834 37.9555 24.7857 37.9615 24.7867C37.9638 24.7878 37.9664 24.7884 37.969 24.7884C37.9716 24.7884 37.9742 24.7878 37.9765 24.7867Z" fill="#263238"/>
<path d="M39.48 24.154C39.488 24.154 39.4959 24.152 39.5031 24.1483C39.5102 24.1445 39.5163 24.1391 39.5208 24.1324C39.529 24.1237 39.5335 24.1122 39.5335 24.1002C39.5335 24.0882 39.529 24.0767 39.5208 24.0679C39.4612 24.0268 39.3927 24.0005 39.3208 23.9911C39.249 23.9818 39.176 23.9897 39.1078 24.0141C39.0965 24.0189 39.0874 24.0277 39.0822 24.0389C39.0771 24.05 39.0762 24.0626 39.0799 24.0744C39.082 24.0801 39.0853 24.0854 39.0895 24.0898C39.0937 24.0943 39.0988 24.0978 39.1044 24.1002C39.1101 24.1026 39.1161 24.1039 39.1223 24.1039C39.1284 24.1039 39.1345 24.1026 39.1401 24.1002C39.1938 24.0805 39.2515 24.0743 39.3081 24.0822C39.3648 24.09 39.4186 24.1117 39.4649 24.1454L39.48 24.154Z" fill="#263238"/>
<path d="M38.4377 24.8079L38.6151 24.7139C38.6151 24.7139 38.5403 24.8784 38.4377 24.8079Z" fill="#263238"/>
<path d="M35.9773 33.8727L35.8524 34.226C35.8351 34.2541 35.8674 34.2821 35.9127 34.2821H39.9761C40.0127 34.2821 40.0428 34.2648 40.0471 34.2411L40.1053 33.8878C40.1053 33.8641 40.0816 33.8425 40.0407 33.8425H36.0441C36.0313 33.8415 36.0185 33.8437 36.0068 33.849C35.9951 33.8542 35.985 33.8624 35.9773 33.8727Z" fill="#FFCA40"/>
<path opacity="0.2" d="M35.9773 33.8727L35.8524 34.226C35.8351 34.2541 35.8674 34.2821 35.9127 34.2821H39.9761C40.0127 34.2821 40.0428 34.2648 40.0471 34.2411L40.1053 33.8878C40.1053 33.8641 40.0816 33.8425 40.0407 33.8425H36.0441C36.0313 33.8415 36.0185 33.8437 36.0068 33.849C35.9951 33.8542 35.985 33.8624 35.9773 33.8727Z" fill="white"/>
<path d="M36.4962 34.318H36.3886C36.3671 34.318 36.3521 34.3073 36.3542 34.2943L36.436 33.8362C36.436 33.8233 36.4575 33.8125 36.479 33.8125H36.5865C36.608 33.8125 36.6231 33.8233 36.6209 33.8362L36.5392 34.2943C36.537 34.3073 36.5177 34.318 36.4962 34.318Z" fill="#FFCA40"/>
<path opacity="0.4" d="M36.4962 34.318H36.3886C36.3671 34.318 36.3521 34.3073 36.3542 34.2943L36.436 33.8362C36.436 33.8233 36.4575 33.8125 36.479 33.8125H36.5865C36.608 33.8125 36.6231 33.8233 36.6209 33.8362L36.5392 34.2943C36.537 34.3073 36.5177 34.318 36.4962 34.318Z" fill="black"/>
<path d="M39.672 34.318H39.5644C39.5429 34.318 39.5278 34.3073 39.53 34.2943L39.6117 33.8362C39.6117 33.8233 39.6332 33.8125 39.6548 33.8125H39.7623C39.7838 33.8125 39.7989 33.8233 39.7967 33.8362L39.715 34.2943C39.7128 34.3073 39.6935 34.318 39.672 34.318Z" fill="#FFCA40"/>
<path opacity="0.4" d="M39.672 34.318H39.5644C39.5429 34.318 39.5278 34.3073 39.53 34.2943L39.6117 33.8362C39.6117 33.8233 39.6332 33.8125 39.6548 33.8125H39.7623C39.7838 33.8125 39.7989 33.8233 39.7967 33.8362L39.715 34.2943C39.7128 34.3073 39.6935 34.318 39.672 34.318Z" fill="black"/>
<path d="M38.0907 34.318H37.9831C37.9616 34.318 37.9465 34.3073 37.9487 34.2943L38.0304 33.8362C38.0304 33.8233 38.0519 33.8125 38.0735 33.8125H38.181C38.2025 33.8125 38.2176 33.8233 38.2154 33.8362L38.1337 34.2943C38.1315 34.3073 38.1122 34.318 38.0907 34.318Z" fill="#FFCA40"/>
<path opacity="0.4" d="M38.0907 34.318H37.9831C37.9616 34.318 37.9465 34.3073 37.9487 34.2943L38.0304 33.8362C38.0304 33.8233 38.0519 33.8125 38.0735 33.8125H38.181C38.2025 33.8125 38.2176 33.8233 38.2154 33.8362L38.1337 34.2943C38.1315 34.3073 38.1122 34.318 38.0907 34.318Z" fill="black"/>
<path d="M36.1625 29.5272C36.0504 30.1736 35.9233 30.8393 35.7941 31.4943C35.7316 31.8217 35.6605 32.1406 35.5915 32.4746L35.4903 32.9636L35.445 33.1791C35.4396 33.1944 35.4396 33.2111 35.445 33.2265C35.4802 33.3173 35.5363 33.3985 35.6088 33.4635C35.7089 33.5612 35.8186 33.6485 35.9363 33.7242C36.2003 33.8924 36.476 34.0415 36.7614 34.1701C37.0523 34.3059 37.3539 34.4308 37.6599 34.545C37.9658 34.6592 38.2782 34.7605 38.5863 34.8725L38.4742 35.3529C37.7982 35.2422 37.1329 35.0735 36.4857 34.8488C36.1499 34.7336 35.8247 34.5895 35.514 34.4179C35.3454 34.3239 35.186 34.2142 35.0378 34.0904C34.849 33.9415 34.7008 33.7474 34.6069 33.5259C34.5545 33.3887 34.5339 33.2414 34.5466 33.095C34.5574 33.0024 34.5617 32.983 34.5682 32.9378L34.5876 32.8128L34.663 32.3194C34.7168 31.9898 34.7642 31.6602 34.8224 31.3305C34.9323 30.6734 35.0378 30.0163 35.1736 29.3613L36.1625 29.5272Z" fill="#FF8B7B"/>
<path d="M35.7231 28.2088C35.3202 28.3294 34.7515 29.6911 34.7515 29.6911L36.0442 31.1152C36.0442 31.1152 36.8542 29.6501 36.725 29.1395C36.5957 28.6289 36.1842 28.0709 35.7231 28.2088Z" fill="#FFCA40"/>
</g>
<path opacity="0.3" d="M33.405 11.3972H48.8483C48.992 11.3949 49.1298 11.3392 49.2346 11.2407C49.3394 11.1423 49.4037 11.0084 49.4149 10.865C49.4207 10.7969 49.412 10.7283 49.3896 10.6637C49.3672 10.5991 49.3315 10.54 49.2848 10.49C49.2381 10.4401 49.1815 10.4005 49.1185 10.3738C49.0556 10.3471 48.9878 10.3339 48.9194 10.335H33.4782C33.3346 10.3372 33.1969 10.3926 33.0918 10.4905C32.9867 10.5884 32.9217 10.7219 32.9094 10.865C32.9037 10.9333 32.9123 11.0019 32.9347 11.0666C32.9571 11.1313 32.9928 11.1907 33.0394 11.2408C33.0861 11.2909 33.1427 11.3307 33.2057 11.3576C33.2686 11.3845 33.3365 11.398 33.405 11.3972Z" fill="#FFCA40"/>
<path opacity="0.3" d="M37.6706 13.7326H48.6821C48.826 13.73 48.9637 13.6741 49.0687 13.5758C49.1738 13.4775 49.2387 13.3438 49.2509 13.2005C49.2567 13.1324 49.248 13.0638 49.2256 12.9992C49.2032 12.9346 49.1675 12.8754 49.1208 12.8255C49.0741 12.7755 49.0175 12.7359 48.9545 12.7092C48.8916 12.6825 48.8238 12.6693 48.7554 12.6705H37.7438C37.6002 12.6726 37.4625 12.728 37.3574 12.826C37.2523 12.9239 37.1873 13.0574 37.1751 13.2005C37.1693 13.2687 37.178 13.3374 37.2003 13.4021C37.2227 13.4668 37.2584 13.5261 37.3051 13.5762C37.3517 13.6263 37.4083 13.6661 37.4713 13.6931C37.5342 13.72 37.6021 13.7335 37.6706 13.7326Z" fill="#FFCA40"/>
<path d="M40.2431 9.05973H49.0033C49.1468 9.05803 49.2845 9.00271 49.3894 8.90464C49.4942 8.80657 49.5586 8.67284 49.5699 8.52973C49.5756 8.46168 49.567 8.39319 49.5448 8.32864C49.5225 8.26408 49.487 8.20488 49.4406 8.15481C49.3942 8.10473 49.3378 8.06489 49.2751 8.03781C49.2125 8.01074 49.1448 7.99704 49.0765 7.99757H40.3164C40.1727 7.99982 40.0349 8.0556 39.9301 8.15402C39.8253 8.25244 39.761 8.38641 39.7498 8.52973C39.7441 8.59767 39.7526 8.66607 39.7749 8.73051C39.7972 8.79495 39.8327 8.85403 39.8791 8.90394C39.9256 8.95384 39.982 8.99348 40.0447 9.02032C40.1074 9.04715 40.175 9.06057 40.2431 9.05973Z" fill="white"/>
<path opacity="0.3" d="M40.2624 45.5196H46.5104C46.5787 45.5185 46.6466 45.5317 46.7095 45.5584C46.7725 45.585 46.8291 45.6246 46.8758 45.6746C46.9225 45.7245 46.9582 45.7837 46.9806 45.8483C47.003 45.9129 47.0117 45.9815 47.0059 46.0496C46.9946 46.1933 46.93 46.3276 46.8248 46.426C46.7195 46.5245 46.5813 46.58 46.4371 46.5818H40.1891C40.1207 46.5826 40.0528 46.5691 39.9898 46.5422C39.9269 46.5152 39.8703 46.4754 39.8236 46.4253C39.777 46.3752 39.7413 46.3159 39.7189 46.2512C39.6965 46.1865 39.6879 46.1178 39.6936 46.0496C39.7054 45.9063 39.7702 45.7725 39.8754 45.6745C39.9806 45.5765 40.1186 45.5213 40.2624 45.5196Z" fill="#FFCA40"/>
<path opacity="0.3" d="M31.8017 45.5196H38.0497C38.1181 45.5185 38.1859 45.5317 38.2488 45.5584C38.3118 45.585 38.3684 45.6246 38.4151 45.6746C38.4618 45.7245 38.4975 45.7837 38.5199 45.8483C38.5423 45.9129 38.551 45.9815 38.5452 46.0496C38.533 46.1929 38.4681 46.3266 38.3631 46.4249C38.258 46.5232 38.1203 46.5791 37.9764 46.5818H31.7284C31.66 46.5826 31.5921 46.5691 31.5292 46.5422C31.4662 46.5152 31.4096 46.4754 31.3629 46.4253C31.3163 46.3752 31.2806 46.3159 31.2582 46.2512C31.2358 46.1865 31.2272 46.1178 31.2329 46.0496C31.2442 45.9061 31.3089 45.7721 31.4142 45.674C31.5195 45.5759 31.6578 45.5208 31.8017 45.5196Z" fill="#FFCA40"/>
<path opacity="0.3" d="M35.654 43.1846H46.6655C46.7339 43.1835 46.8017 43.1967 46.8647 43.2234C46.9276 43.2501 46.9843 43.2897 47.031 43.3396C47.0777 43.3896 47.1134 43.4487 47.1358 43.5133C47.1582 43.5779 47.1668 43.6465 47.1611 43.7146C47.1498 43.858 47.0855 43.9919 46.9807 44.0904C46.8759 44.1888 46.7382 44.2446 46.5944 44.2468H35.5807C35.5124 44.2477 35.4445 44.2342 35.3817 44.2072C35.3189 44.1803 35.2624 44.1404 35.2159 44.0903C35.1694 44.0401 35.1339 43.9808 35.1118 43.9161C35.0896 43.8514 35.0813 43.7828 35.0874 43.7146C35.0986 43.5715 35.163 43.4378 35.2679 43.3397C35.3727 43.2417 35.5104 43.1863 35.654 43.1846Z" fill="#FFCA40"/>
<path d="M34.1976 40.8467H46.8229C46.8912 40.8459 46.959 40.8593 47.0219 40.8863C47.0847 40.9132 47.1412 40.9531 47.1877 41.0032C47.2342 41.0534 47.2697 41.1127 47.2918 41.1774C47.3139 41.2421 47.3223 41.3108 47.3162 41.3789C47.305 41.522 47.2406 41.6557 47.1357 41.7538C47.0309 41.8518 46.8932 41.9072 46.7496 41.9089H34.1308C34.0624 41.91 33.9946 41.8968 33.9316 41.8701C33.8687 41.8434 33.8121 41.8038 33.7654 41.7539C33.7187 41.7039 33.683 41.6448 33.6606 41.5802C33.6381 41.5156 33.6295 41.447 33.6353 41.3789C33.6464 41.2363 33.7101 41.1029 33.814 41.0046C33.9179 40.9063 34.0546 40.85 34.1976 40.8467Z" fill="white"/>
<path opacity="0.3" d="M60.4393 29.6783H48.9343C48.7906 29.6805 48.6528 29.7363 48.548 29.8347C48.4432 29.9331 48.3789 30.0671 48.3677 30.2104C48.362 30.2784 48.3705 30.3468 48.3928 30.4112C48.4151 30.4756 48.4506 30.5347 48.4971 30.5846C48.5435 30.6345 48.5999 30.6742 48.6626 30.701C48.7253 30.7278 48.7929 30.7413 48.8611 30.7404H60.366C60.5096 30.7387 60.6473 30.6834 60.7521 30.5853C60.857 30.4873 60.9214 30.3535 60.9326 30.2104C60.9387 30.1423 60.9303 30.0737 60.9082 30.009C60.8861 29.9443 60.8506 29.8849 60.8041 29.8348C60.7576 29.7846 60.7011 29.7448 60.6383 29.7178C60.5754 29.6909 60.5076 29.6774 60.4393 29.6783Z" fill="#FFCA40"/>
<path opacity="0.3" d="M54.523 27.3423H49.0937C48.95 27.3446 48.8123 27.4003 48.7075 27.4988C48.6027 27.5972 48.5384 27.7312 48.5271 27.8745C48.5214 27.9426 48.53 28.0112 48.5524 28.0758C48.5748 28.1404 48.6105 28.1996 48.6572 28.2495C48.7039 28.2994 48.7605 28.339 48.8235 28.3657C48.8864 28.3924 48.9543 28.4056 49.0226 28.4045H54.4498C54.5934 28.4023 54.7311 28.3469 54.8362 28.249C54.9413 28.1511 55.0063 28.0176 55.0186 27.8745C55.0243 27.8062 55.0157 27.7376 54.9933 27.6729C54.9709 27.6082 54.9352 27.5489 54.8886 27.4988C54.8419 27.4486 54.7853 27.4088 54.7223 27.3819C54.6594 27.355 54.5915 27.3415 54.523 27.3423Z" fill="#FFCA40"/>
<path d="M57.7009 25.0025H49.2553C49.1117 25.0047 48.974 25.0601 48.8689 25.158C48.7638 25.2559 48.6988 25.3894 48.6865 25.5325C48.6808 25.6007 48.6894 25.6694 48.7118 25.7341C48.7342 25.7988 48.7699 25.8581 48.8165 25.9082C48.8632 25.9583 48.9198 25.9981 48.9828 26.0251C49.0457 26.052 49.1136 26.0655 49.1821 26.0647H57.6298C57.7737 26.0629 57.9117 26.0073 58.0166 25.9088C58.1215 25.8103 58.1856 25.676 58.1964 25.5325C58.2021 25.4644 58.1935 25.3958 58.1711 25.3312C58.1487 25.2666 58.113 25.2074 58.0663 25.1575C58.0196 25.1076 57.963 25.068 57.9 25.0413C57.8371 25.0146 57.7692 25.0014 57.7009 25.0025Z" fill="white"/>
<path opacity="0.3" d="M64.5328 27.3423H56.8198C56.6759 27.345 56.5382 27.4009 56.4332 27.4992C56.3281 27.5974 56.2632 27.7311 56.251 27.8745C56.2453 27.9426 56.2539 28.0112 56.2763 28.0758C56.2987 28.1404 56.3344 28.1996 56.3811 28.2495C56.4278 28.2994 56.4844 28.339 56.5474 28.3657C56.6103 28.3924 56.6782 28.4056 56.7465 28.4045H64.4596C64.6032 28.4023 64.7409 28.3469 64.846 28.249C64.9511 28.1511 65.0161 28.0176 65.0284 27.8745C65.0341 27.8062 65.0255 27.7376 65.0031 27.6729C64.9807 27.6082 64.945 27.5489 64.8983 27.4988C64.8517 27.4486 64.7951 27.4088 64.7321 27.3819C64.6692 27.355 64.6013 27.3415 64.5328 27.3423Z" fill="#FFCA40"/>
<path opacity="0.3" d="M29.8477 5.31083H35.6174L35.3114 0.198242L29.8477 5.31083Z" fill="#FFCA40"/>
<path d="M29.8477 5.31083L36.0246 4.57184L35.3114 0.198242L29.8477 5.31083Z" fill="#FFCA40"/>
<path d="M6.57264 20.4566C6.38951 20.8875 6.18699 21.3658 6.00817 21.8269C5.82934 22.2879 5.64621 22.7597 5.48032 23.2273C5.14293 24.1417 4.86585 25.0774 4.65084 26.0281C4.62068 26.1444 4.6056 26.2586 4.58405 26.3728L4.55389 26.5452L4.53019 26.6809C4.50886 26.8726 4.50454 27.0658 4.51726 27.2583C4.55439 27.7291 4.61841 28.1974 4.70901 28.6609C4.8943 29.6282 5.13991 30.6301 5.38337 31.6125L4.28889 32.0757C3.74515 31.1459 3.28653 30.1688 2.91864 29.1564C2.7219 28.6242 2.56984 28.0765 2.46404 27.519C2.40095 27.1984 2.37278 26.8719 2.38002 26.5452V26.4051C2.38002 26.3599 2.38002 26.3319 2.38002 26.2931L2.40156 26.0776C2.41664 25.9376 2.42526 25.7933 2.44896 25.6468C2.60866 24.5602 2.8602 23.4892 3.20087 22.4452C3.36892 21.9303 3.54128 21.4218 3.74165 20.9241C3.94202 20.4264 4.13592 19.9374 4.388 19.4268L6.57264 20.4566Z" fill="#7F3E3B"/>
<path d="M5.34683 31.3457L6.18708 32.1644L4.35362 33.0262C4.35362 33.0262 3.90979 32.2506 4.21573 31.5482L5.34683 31.3457Z" fill="#7F3E3B"/>
<path d="M6.86373 33.3857L5.31681 34.0191L4.35376 33.0172L6.18722 32.1641L6.86373 33.3857Z" fill="#7F3E3B"/>
<path d="M46.8651 28.6723C49.2858 22.8284 46.5106 16.1286 40.6667 13.7079C34.8227 11.2873 28.1229 14.0624 25.7023 19.9064C23.2817 25.7503 26.0568 32.4501 31.9007 34.8708C37.7447 37.2914 44.4445 34.5163 46.8651 28.6723Z" fill="#FFCA40"/>
<path d="M36.2831 35.1394C42.2754 35.1394 47.1331 30.2817 47.1331 24.2894C47.1331 18.2972 42.2754 13.4395 36.2831 13.4395C30.2908 13.4395 25.4331 18.2972 25.4331 24.2894C25.4331 30.2817 30.2908 35.1394 36.2831 35.1394Z" fill="white"/>
<mask id="mask3_1_12815" style="mask-type:luminance" maskUnits="userSpaceOnUse" x="25" y="13" width="23" height="23">
<path d="M36.2831 35.1394C42.2754 35.1394 47.1331 30.2817 47.1331 24.2894C47.1331 18.2972 42.2754 13.4395 36.2831 13.4395C30.2908 13.4395 25.4331 18.2972 25.4331 24.2894C25.4331 30.2817 30.2908 35.1394 36.2831 35.1394Z" fill="white"/>
</mask>
<g mask="url(#mask3_1_12815)">
<path d="M40.993 26.7866C41.1136 27.6743 41.2084 28.5662 41.314 29.456L41.607 32.1125L41.6458 32.4314L41.691 32.7179L41.7535 33.0152L41.8289 33.319C41.941 33.7262 42.0681 34.1399 42.2103 34.5535C42.486 35.383 42.8092 36.2146 43.1259 37.042L42.3848 37.4427C41.8763 36.677 41.4172 35.8796 41.0102 35.0555C40.8099 34.6376 40.6181 34.2131 40.4544 33.7628L40.3337 33.4224L40.226 33.0669C40.1937 32.9441 40.1657 32.817 40.1355 32.6921L40.0687 32.3473C39.9028 31.4468 39.7671 30.5591 39.6378 29.6672C39.5085 28.7752 39.3944 27.8833 39.2996 26.987L40.993 26.7866Z" fill="#FF8B7B"/>
<path d="M40.4563 24.9098C41.1436 25.0843 41.6241 27.9131 41.6241 27.9131L38.9978 29.6992C38.9978 29.6992 37.9205 26.3468 38.4441 25.5927C38.9956 24.8063 39.4545 24.6555 40.4563 24.9098Z" fill="#FFCA40"/>
<path opacity="0.2" d="M40.3961 25.5415L40.9239 28.3919L39.8596 29.1136L40.3961 25.5415Z" fill="black"/>
<path d="M32.4545 17.6239C31.3126 17.7898 29.268 23.316 33.3939 25.8949C37.5197 28.4739 40.23 25.5438 40.23 25.5438C40.23 25.5438 37.6339 22.6891 37.8601 20.8276C38.0863 18.9661 39.42 16.6199 36.2916 15.8378C34.0747 15.2841 31.2028 15.8184 32.4545 17.6239Z" fill="#263238"/>
<path d="M40.4563 24.9101C40.4563 24.9101 41.2513 25.1902 39.6613 34.9716H32.8897C33.0039 32.216 33.0061 30.5183 31.6897 24.8627C32.6371 24.666 33.5977 24.5393 34.5638 24.4835C35.5872 24.4091 36.6148 24.4091 37.6382 24.4835C38.9589 24.6042 40.4563 24.9101 40.4563 24.9101Z" fill="#FFCA40"/>
<path opacity="0.2" d="M32.2587 27.1006C32.8727 27.2536 33.4393 27.9214 33.3704 29.1538C33.333 29.7139 33.1372 30.2519 32.8059 30.705C32.6982 29.7571 32.5151 28.6583 32.2285 27.2579L32.2587 27.1006Z" fill="black"/>
<path d="M37.2828 26.6512C37.2828 26.6512 36.1732 27.5647 36.1732 28.5363C35.2511 27.862 34.008 26.0221 33.8766 24.8457C33.8725 24.7983 33.878 24.7505 33.8928 24.7052C33.9076 24.6599 33.9315 24.6181 33.9628 24.5823C33.9942 24.5465 34.0326 24.5174 34.0755 24.4967C34.1184 24.4761 34.1651 24.4644 34.2127 24.4622C34.2952 24.4577 34.3773 24.4469 34.4583 24.4299C34.4929 24.4225 34.5288 24.4232 34.5631 24.4318C34.5975 24.4403 34.6294 24.4567 34.6565 24.4795L37.2828 26.6512Z" fill="#FAFAFA"/>
<path d="M37.2827 26.6512C37.606 26.8436 37.8818 27.1065 38.0896 27.4202C38.2974 27.7339 38.4318 28.0904 38.4828 28.4631C39.4157 27.7802 38.9395 25.7377 38.4203 24.738C38.3796 24.6602 38.3203 24.5936 38.2478 24.544C38.1753 24.4944 38.0918 24.4634 38.0045 24.4536C37.8666 24.4364 37.7632 24.4192 37.6942 24.4041C37.6817 24.4016 37.6688 24.4018 37.6564 24.4045C37.644 24.4072 37.6322 24.4125 37.6219 24.42C37.6116 24.4275 37.6029 24.437 37.5965 24.448C37.59 24.459 37.5859 24.4712 37.5843 24.4838L37.2827 26.6512Z" fill="#FAFAFA"/>
<path d="M34.8699 21.0215C35.0638 22.0104 35.2577 23.8223 34.564 24.4837C35.3153 25.3817 36.2401 26.1189 37.2829 26.6511C38.6553 25.5567 37.6384 24.4837 37.6384 24.4837C36.5353 24.2209 36.5612 23.4065 36.7572 22.633L34.8699 21.0215Z" fill="#FF8B7B"/>
<path opacity="0.2" d="M35.6391 21.6787L36.7551 22.6331C36.708 22.8118 36.6763 22.9942 36.6603 23.1782C36.2402 23.1179 35.583 22.7581 35.4861 22.2992C35.4852 22.0829 35.5377 21.8698 35.6391 21.6787Z" fill="black"/>
<path d="M33.2109 19.4332C33.6677 21.0233 33.8271 21.7041 34.8268 22.3526C36.3349 23.3242 38.1813 22.4151 38.2071 20.7195C38.2308 19.1941 37.4789 16.8414 35.7597 16.5592C35.3804 16.4933 34.9907 16.5255 34.6274 16.6527C34.2642 16.7798 33.9394 16.9977 33.6841 17.2857C33.4287 17.5736 33.2512 17.9221 33.1684 18.298C33.0855 18.6738 33.1002 19.0646 33.2109 19.4332Z" fill="#FF8B7B"/>
<path d="M33.7668 20.8661C34.7256 19.888 34.6782 18.6815 34.3938 18.3044C35.2685 18.2312 37.507 17.6775 37.0826 16.8308C36.6581 15.9841 33.086 15.523 32.7456 17.6926C31.636 18.6729 32.5194 20.6442 33.7668 20.8661Z" fill="#263238"/>
<path d="M35.8759 19.2889C35.906 19.4202 35.9985 19.5041 36.091 19.4912C36.1835 19.4782 36.2222 19.3513 36.1942 19.2201C36.1663 19.0889 36.0716 19.005 35.9791 19.0179C35.8866 19.0308 35.8479 19.1577 35.8759 19.2889Z" fill="#263238"/>
<path d="M37.3605 18.9699C37.3906 19.1011 37.4831 19.185 37.5756 19.1721C37.6681 19.1592 37.7068 19.0323 37.6767 18.9011C37.6466 18.7699 37.5541 18.686 37.4616 18.6967C37.3691 18.7075 37.3325 18.8279 37.3605 18.9699Z" fill="#263238"/>
<path d="M37.4294 18.7024L37.7234 18.5415C37.7234 18.5415 37.6139 18.8226 37.4294 18.7024Z" fill="#263238"/>
<path d="M36.9553 19.2974C37.1364 19.5698 37.3539 19.8163 37.6017 20.0299C37.5455 20.0926 37.4762 20.1422 37.3988 20.1754C37.3214 20.2085 37.2377 20.2243 37.1535 20.2216L36.9553 19.2974Z" fill="#FF5652"/>
<path d="M36.5676 20.8966C36.6342 20.8921 36.7005 20.8827 36.7658 20.8685C36.7759 20.866 36.7847 20.8597 36.7903 20.8508C36.7959 20.842 36.7979 20.8314 36.7959 20.8211C36.7934 20.811 36.787 20.8023 36.7782 20.7967C36.7694 20.791 36.7588 20.789 36.7485 20.791C36.586 20.8305 36.4165 20.8316 36.2534 20.7942C36.0904 20.7568 35.9383 20.6819 35.8092 20.5755C35.8016 20.5684 35.7916 20.5645 35.7812 20.5645C35.7708 20.5645 35.7608 20.5684 35.7532 20.5755C35.7494 20.5792 35.7464 20.5835 35.7443 20.5883C35.7423 20.5931 35.7412 20.5983 35.7412 20.6035C35.7412 20.6088 35.7423 20.614 35.7443 20.6188C35.7464 20.6236 35.7494 20.6279 35.7532 20.6316C35.8645 20.7277 35.9938 20.8006 36.1337 20.8461C36.2735 20.8916 36.421 20.9088 36.5676 20.8966Z" fill="#263238"/>
<path d="M33.1053 21.0192C33.1942 21.1502 33.3081 21.2624 33.4405 21.3493C33.5728 21.4362 33.721 21.4961 33.8766 21.5255C34.2946 21.6031 34.4648 21.2217 34.3075 20.8469C34.1739 20.5108 33.7969 20.0669 33.394 20.1574C33.3071 20.1807 33.2272 20.2252 33.1617 20.2868C33.0961 20.3485 33.0468 20.4254 33.0182 20.5108C32.9896 20.5961 32.9826 20.6872 32.9978 20.776C33.013 20.8647 33.0499 20.9482 33.1053 21.0192Z" fill="#FF8B7B"/>
<path d="M35.1499 19.0002C35.1663 18.9982 35.1815 18.9911 35.1935 18.9799C35.2055 18.9687 35.2137 18.9539 35.2167 18.9378C35.2556 18.8147 35.3195 18.701 35.4044 18.6039C35.4893 18.5068 35.5934 18.4282 35.7101 18.3733C35.7198 18.3691 35.7285 18.363 35.7357 18.3554C35.7429 18.3477 35.7485 18.3387 35.7522 18.3288C35.7558 18.3189 35.7574 18.3084 35.7568 18.2979C35.7562 18.2874 35.7536 18.2771 35.7489 18.2677C35.7445 18.2582 35.7383 18.2497 35.7305 18.2427C35.7228 18.2357 35.7137 18.2304 35.7039 18.2269C35.694 18.2235 35.6836 18.2221 35.6732 18.2228C35.6628 18.2235 35.6526 18.2264 35.6433 18.2311C35.5034 18.296 35.3791 18.3901 35.2787 18.5072C35.1784 18.6243 35.1043 18.7616 35.0616 18.9097C35.0597 18.9198 35.0599 18.9301 35.062 18.9401C35.0641 18.9501 35.0682 18.9596 35.074 18.968C35.0798 18.9764 35.0873 18.9836 35.0958 18.9891C35.1044 18.9946 35.114 18.9984 35.1241 19.0002C35.1326 19.0024 35.1415 19.0024 35.1499 19.0002Z" fill="#263238"/>
<path d="M37.6449 17.9083C37.6626 17.9104 37.6805 17.9062 37.6956 17.8966C37.7106 17.8869 37.7219 17.8724 37.7274 17.8555C37.733 17.8385 37.7325 17.8201 37.7261 17.8035C37.7197 17.7868 37.7078 17.7728 37.6923 17.764C37.5893 17.6921 37.4705 17.6461 37.346 17.63C37.2215 17.6139 37.0949 17.628 36.977 17.6713C36.9581 17.6798 36.9432 17.6954 36.9355 17.7147C36.9279 17.734 36.9281 17.7556 36.9361 17.7747C36.9401 17.7843 36.9459 17.793 36.9533 17.8003C36.9607 17.8075 36.9695 17.8132 36.9791 17.8171C36.9888 17.8209 36.9991 17.8227 37.0095 17.8225C37.0198 17.8222 37.03 17.8199 37.0395 17.8157C37.1335 17.7829 37.2339 17.773 37.3325 17.7869C37.431 17.8007 37.5249 17.8379 37.6061 17.8954C37.6173 17.9038 37.6309 17.9083 37.6449 17.9083Z" fill="#263238"/>
<path d="M35.9426 19.0325L36.2365 18.8716C36.2365 18.8716 36.1357 19.1526 35.9426 19.0325Z" fill="#263238"/>
<path d="M32.7887 34.5756L32.6141 35.181C32.5926 35.2284 32.6465 35.2758 32.7262 35.2758H39.6938C39.7541 35.2758 39.8058 35.2457 39.8101 35.2091L39.8704 34.6015C39.8704 34.5606 39.8209 34.5239 39.7541 34.5239H32.905C32.8827 34.5211 32.8601 34.5244 32.8396 34.5335C32.8191 34.5426 32.8015 34.5572 32.7887 34.5756Z" fill="#FFCA40"/>
<path opacity="0.2" d="M32.7887 34.5756L32.6141 35.181C32.5926 35.2284 32.6465 35.2758 32.7262 35.2758H39.6938C39.7541 35.2758 39.8058 35.2457 39.8101 35.2091L39.8704 34.6015C39.8704 34.5606 39.8209 34.5239 39.7541 34.5239H32.905C32.8827 34.5211 32.8601 34.5244 32.8396 34.5335C32.8191 34.5426 32.8015 34.5572 32.7887 34.5756Z" fill="white"/>
<path d="M33.7323 35.3442H33.5514C33.5147 35.3442 33.4867 35.3248 33.4889 35.3012L33.5751 34.5148C33.5751 34.4911 33.6095 34.4717 33.6462 34.4717H33.8293C33.8659 34.4717 33.8939 34.4911 33.8918 34.5148L33.8056 35.3012C33.8013 35.3227 33.7668 35.3442 33.7323 35.3442Z" fill="#FFCA40"/>
<path opacity="0.4" d="M33.7323 35.3442H33.5514C33.5147 35.3442 33.4867 35.3248 33.4889 35.3012L33.5751 34.5148C33.5751 34.4911 33.6095 34.4717 33.6462 34.4717H33.8293C33.8659 34.4717 33.8939 34.4911 33.8918 34.5148L33.8056 35.3012C33.8013 35.3227 33.7668 35.3442 33.7323 35.3442Z" fill="black"/>
<path d="M39.1789 35.3442H38.9936C38.957 35.3442 38.929 35.3248 38.9333 35.3012L39.0195 34.5148C39.0195 34.4911 39.0539 34.4717 39.0906 34.4717H39.2737C39.3103 34.4717 39.3383 34.4911 39.3362 34.5148L39.25 35.3012C39.2445 35.3151 39.2345 35.3268 39.2217 35.3346C39.2089 35.3424 39.1938 35.3458 39.1789 35.3442Z" fill="#FFCA40"/>
<path opacity="0.4" d="M39.1789 35.3442H38.9936C38.957 35.3442 38.929 35.3248 38.9333 35.3012L39.0195 34.5148C39.0195 34.4911 39.0539 34.4717 39.0906 34.4717H39.2737C39.3103 34.4717 39.3383 34.4911 39.3362 34.5148L39.25 35.3012C39.2445 35.3151 39.2345 35.3268 39.2217 35.3346C39.2089 35.3424 39.1938 35.3458 39.1789 35.3442Z" fill="black"/>
<path d="M36.4664 35.3442H36.2833C36.2467 35.3442 36.2187 35.3248 36.2208 35.3012L36.307 34.5148C36.307 34.4911 36.3415 34.4717 36.3781 34.4717H36.5677C36.6043 34.4717 36.6323 34.4911 36.6302 34.5148L36.544 35.3012C36.5354 35.3227 36.5031 35.3442 36.4664 35.3442Z" fill="#FFCA40"/>
<path opacity="0.4" d="M36.4664 35.3442H36.2833C36.2467 35.3442 36.2187 35.3248 36.2208 35.3012L36.307 34.5148C36.307 34.4911 36.3415 34.4717 36.3781 34.4717H36.5677C36.6043 34.4717 36.6323 34.4911 36.6302 34.5148L36.544 35.3012C36.5354 35.3227 36.5031 35.3442 36.4664 35.3442Z" fill="black"/>
<path d="M32.5949 27.0626C32.5389 27.6356 32.4678 28.2087 32.4053 28.7861L32.1898 30.5097C32.1209 31.0807 32.0304 31.6516 31.9528 32.2333L31.83 33.0951L31.7912 33.3666C31.7937 33.4088 31.8055 33.45 31.8257 33.4872C31.9195 33.652 32.043 33.7981 32.1898 33.9181C32.3815 34.0765 32.5846 34.2205 32.7974 34.349C33.2621 34.6319 33.7451 34.8839 34.243 35.1031C34.7515 35.3336 35.275 35.534 35.8072 35.7343C36.3394 35.9347 36.8844 36.1178 37.4123 36.2924L37.2227 37.1154C36.0559 36.9273 34.9065 36.6433 33.7863 36.2665C33.2065 36.0769 32.6431 35.8405 32.1015 35.5598C31.8115 35.4089 31.5347 35.2337 31.2742 35.0363C30.9617 34.8087 30.698 34.5208 30.4986 34.1896C30.3811 33.9728 30.3078 33.7347 30.2831 33.4894C30.2831 33.4226 30.2723 33.3558 30.2831 33.289C30.2939 33.2222 30.2831 33.1382 30.2939 33.1167L30.3133 32.9012L30.3865 32.0394C30.4404 31.4663 30.4813 30.8911 30.5438 30.3158L30.7183 28.5922C30.7873 28.0191 30.8454 27.4461 30.9208 26.8687L32.5949 27.0626Z" fill="#FF8B7B"/>
<path d="M31.6898 24.863C31.0112 25.0784 30.1968 27.4052 30.1968 27.4052L32.5667 29.8484C32.5667 29.8484 33.784 27.3363 33.4974 26.4594C33.2066 25.5459 32.4741 24.626 31.6898 24.863Z" fill="#FFCA40"/>
</g>
<path opacity="0.2" d="M25.907 27.0841C25.3542 25.0323 25.4223 22.8626 26.1026 20.8495C26.783 18.8363 28.045 17.0701 29.7291 15.7742C31.4132 14.4783 33.4437 13.7108 35.564 13.5689C37.6842 13.427 39.799 13.917 41.6408 14.9769C43.4825 16.0369 44.9687 17.6191 45.9112 19.5237C46.8537 21.4282 47.2104 23.5695 46.936 25.6767C46.6616 27.7839 45.7685 29.7624 44.3697 31.3621C42.9709 32.9617 41.1291 34.1107 39.0773 34.6636C37.7149 35.0308 36.2934 35.126 34.8942 34.9438C33.4949 34.7616 32.1453 34.3056 30.9223 33.6017C29.6993 32.8979 28.6269 31.9601 27.7664 30.8418C26.9058 29.7235 26.274 28.4466 25.907 27.0841Z" fill="#FFCA40"/>
<path opacity="0.2" d="M44.0692 16.8847L35.2207 34.9823C35.9797 35.0598 36.7448 35.0533 37.5023 34.9629L45.4588 18.6966C45.0622 18.0444 44.5963 17.4369 44.0692 16.8847ZM46.6546 21.491L46.5964 21.2755L40.2428 34.2713C42.6932 33.2984 44.7004 31.4587 45.8827 29.1022C47.0649 26.7457 47.3396 24.0368 46.6546 21.491ZM33.4842 13.9136C31.6088 14.4192 29.9054 15.4236 28.5552 16.8201C27.2051 18.2165 26.2587 19.9528 25.8166 21.8443C25.3746 23.7357 25.4535 25.7116 26.0449 27.5618C26.6363 29.412 27.7181 31.0673 29.1753 32.3517L38.2909 13.7305C36.6955 13.4257 35.0517 13.4883 33.4842 13.9136Z" fill="white"/>
<path d="M24.192 23.122L23.9766 23.1005C24.011 22.7321 24.0649 22.3615 24.1338 21.9995L24.3493 22.0405C24.2868 22.396 24.2286 22.7601 24.192 23.122ZM24.61 20.9352L24.3945 20.8749C24.6783 19.9152 25.0761 18.9929 25.5795 18.1279L25.7669 18.2357C25.2748 19.0861 24.8864 19.9924 24.61 20.9352Z" fill="#FFCA40"/>
<path d="M47.4821 21.2692C46.8852 19.0542 45.645 17.0659 43.9183 15.5557C42.1915 14.0455 40.0557 13.0812 37.7809 12.7848C35.5062 12.4883 33.1946 12.873 31.1384 13.8902C29.0823 14.9074 27.3739 16.5114 26.2293 18.4994C25.0847 20.4874 24.5552 22.7702 24.7078 25.0591C24.8605 27.348 25.6884 29.5403 27.0869 31.3587C28.4853 33.1771 30.3916 34.5401 32.5646 35.2752C34.7376 36.0104 37.0798 36.0847 39.2951 35.4888C40.7665 35.093 42.1455 34.4111 43.3533 33.4823C44.5612 32.5534 45.5742 31.3956 46.3345 30.0751C47.0947 28.7546 47.5874 27.2973 47.7843 25.7863C47.9812 24.2754 47.8786 22.7404 47.4821 21.2692ZM25.9071 27.0863C25.3544 25.0345 25.4225 22.8648 26.1028 20.8516C26.7831 18.8385 28.0451 17.0723 29.7292 15.7763C31.4133 14.4804 33.4439 13.713 35.5641 13.5711C37.6844 13.4292 39.7991 13.9192 41.6409 14.9791C43.4827 16.039 44.9688 17.6213 45.9113 19.5258C46.8539 21.4304 47.2105 23.5716 46.9361 25.6788C46.6617 27.786 45.7687 29.7646 44.3698 31.3642C42.971 32.9639 41.1293 34.1128 39.0775 34.6658C37.7149 35.0329 36.2933 35.128 34.8939 34.9457C33.4946 34.7633 32.1448 34.3071 30.9218 33.6031C29.6988 32.899 28.6264 31.961 27.766 30.8424C26.9056 29.7239 26.2739 28.4468 25.9071 27.0841V27.0863Z" fill="#FFCA40"/>
<path d="M26.0795 28.8617C26.0795 29.3551 25.9524 29.4197 25.8166 29.4348L25.4267 29.5382L24.6446 29.7536L23.0804 30.1673L19.9457 30.9709C17.8529 31.4966 15.7574 32.0087 13.6589 32.5071L7.36349 34.0152L4.2201 34.7779C3.17302 35.0386 2.12163 35.2799 1.08533 35.5815C0.980218 35.6123 0.870065 35.6222 0.761155 35.6105C0.652246 35.5987 0.546713 35.5657 0.450584 35.5131C0.354454 35.4606 0.269608 35.3897 0.200893 35.3044C0.132178 35.2191 0.0809374 35.1211 0.0500979 35.016C0.0192585 34.9108 0.00942349 34.8007 0.0211549 34.6918C0.0328864 34.5829 0.0659546 34.4773 0.118471 34.3812C0.170987 34.2851 0.241925 34.2002 0.327231 34.1315C0.412537 34.0628 0.510541 34.0116 0.61565 33.9807H0.650122C1.69936 33.7222 2.7292 33.4012 3.76335 33.1017L6.8658 32.1817L13.0643 30.316C15.1311 29.6912 17.2001 29.08 19.2713 28.4825L22.3845 27.5884L23.9444 27.1575L24.7243 26.942L25.1143 26.8343C25.2392 26.7804 25.3771 26.774 25.6313 27.1984C25.9302 27.7014 26.0852 28.2767 26.0795 28.8617Z" fill="#FFCA40"/>
<path d="M12.5232 12.7865C12.5232 12.9134 12.5899 13.0167 12.6738 13.0167C12.7577 13.0167 12.8244 12.9134 12.8244 12.7865C12.8244 12.6596 12.7577 12.5542 12.6738 12.5542C12.5899 12.5542 12.5232 12.6575 12.5232 12.7865Z" fill="#263238"/>
<path d="M12.5793 13.0176C12.7307 13.4079 12.9352 13.7754 13.1869 14.1099C13.0997 14.1722 13 14.2148 12.8947 14.2345C12.7893 14.2542 12.681 14.2507 12.5771 14.2241L12.5793 13.0176Z" fill="#630F0F"/>
<path d="M12.0709 12.076C12.0552 12.0756 12.0401 12.0703 12.0276 12.0609C12.0151 12.0515 12.0058 12.0384 12.0011 12.0235C11.9964 12.0086 11.9964 11.9926 12.0012 11.9776C12.0059 11.9627 12.0152 11.9497 12.0278 11.9403C12.1229 11.869 12.2337 11.8212 12.3509 11.801C12.4682 11.7808 12.5885 11.7886 12.7021 11.824C12.7206 11.8312 12.7355 11.8454 12.7436 11.8636C12.7517 11.8817 12.7522 11.9023 12.7452 11.9209C12.738 11.9394 12.7237 11.9543 12.7056 11.9624C12.6874 11.9705 12.6668 11.9711 12.6483 11.964C12.5578 11.9371 12.4623 11.9319 12.3695 11.9487C12.2767 11.9656 12.1891 12.004 12.1139 12.061C12.1018 12.0709 12.0865 12.0762 12.0709 12.076Z" fill="#263238"/>
<path d="M8.41256 13.6118C8.52675 14.8593 8.54183 17.1279 7.66064 17.8712C7.66064 17.8712 7.86101 19.1445 10.0026 19.3427C12.3574 19.5582 11.2436 18.203 11.2436 18.203C9.98749 17.757 10.1146 16.7444 10.427 15.8137L8.41256 13.6118Z" fill="#7F3E3B"/>
<path d="M4.96753 64.712C4.78224 64.7896 4.35781 64.6021 4.22208 64.5224C4.21588 64.5193 4.21086 64.5142 4.20776 64.508C4.20465 64.5018 4.20363 64.4948 4.20484 64.4879C4.20539 64.4806 4.20815 64.4735 4.21277 64.4678C4.21738 64.462 4.22363 64.4578 4.2307 64.4556C4.25224 64.4556 4.75639 64.2876 4.96106 64.4061C4.98356 64.4182 5.00313 64.435 5.0184 64.4555C5.03366 64.476 5.04424 64.4996 5.0494 64.5246C5.06016 64.5545 5.06117 64.5871 5.05227 64.6177C5.04337 64.6483 5.02502 64.6753 4.99985 64.6948C4.9898 64.7018 4.97895 64.7076 4.96753 64.712ZM4.34057 64.4966C4.55602 64.6043 4.86411 64.6948 4.9546 64.6301C4.9546 64.6301 4.99123 64.6043 4.97615 64.5353C4.97299 64.5208 4.96674 64.5071 4.95782 64.4952C4.94889 64.4833 4.93751 64.4735 4.92444 64.4664C4.73063 64.4206 4.52765 64.4326 4.34057 64.5009V64.4966Z" fill="#FFCA40"/>
<path d="M4.35988 64.4925C4.3244 64.5073 4.28762 64.5189 4.25001 64.5269C4.24355 64.5293 4.23652 64.5295 4.22993 64.5275C4.22335 64.5256 4.21755 64.5216 4.21338 64.5162C4.21017 64.5102 4.2085 64.5035 4.2085 64.4968C4.2085 64.49 4.21017 64.4833 4.21338 64.4774C4.21338 64.4601 4.38789 64.0335 4.60765 63.9431C4.63374 63.9313 4.662 63.9253 4.6906 63.9253C4.71919 63.9253 4.74746 63.9313 4.77354 63.9431C4.80066 63.9506 4.82422 63.9675 4.84001 63.9908C4.8558 64.0141 4.86279 64.0422 4.85972 64.0702C4.83818 64.2145 4.56025 64.4084 4.35988 64.4925ZM4.30818 64.4321C4.50208 64.3589 4.76708 64.1693 4.78001 64.0637C4.78001 64.0529 4.78001 64.0314 4.73692 64.0098C4.7201 64.0018 4.7017 63.9976 4.68306 63.9976C4.66442 63.9976 4.64601 64.0018 4.62919 64.0098C4.48915 64.0702 4.36419 64.3093 4.30818 64.43V64.4321Z" fill="#FFCA40"/>
<path d="M14.7555 67.2545C14.593 67.2539 14.4308 67.2394 14.2707 67.2115C14.2633 67.2099 14.2565 67.2063 14.2511 67.2009C14.2458 67.1955 14.2421 67.1887 14.2406 67.1813C14.2389 67.1736 14.2399 67.1655 14.2434 67.1585C14.2469 67.1514 14.2528 67.1458 14.2599 67.1425C14.2836 67.1274 14.8352 66.8129 15.1002 66.884C15.1498 66.8966 15.1924 66.9284 15.2187 66.9723C15.2356 66.9963 15.2446 67.0249 15.2446 67.0542C15.2446 67.0835 15.2356 67.1121 15.2187 67.1361C15.1562 67.2308 14.9601 67.2545 14.7555 67.2545ZM14.3914 67.1554C14.6865 67.1964 15.0873 67.1942 15.1605 67.093C15.1605 67.08 15.1799 67.0563 15.1605 67.0089C15.1526 66.9957 15.142 66.9842 15.1294 66.9753C15.1168 66.9664 15.1024 66.9602 15.0873 66.9572C14.9171 66.912 14.5917 67.0563 14.3914 67.1554Z" fill="#FFCA40"/>
<path d="M14.2772 67.2111C14.2701 67.213 14.2627 67.213 14.2556 67.2111C14.2502 67.2073 14.246 67.202 14.2433 67.196C14.2407 67.1899 14.2397 67.1832 14.2405 67.1766C14.2405 67.1594 14.2858 66.7328 14.4861 66.5669C14.5158 66.5422 14.5502 66.5237 14.5873 66.5126C14.6243 66.5015 14.6632 66.498 14.7016 66.5023C14.8028 66.5131 14.833 66.5648 14.8395 66.6078C14.8696 66.7867 14.4904 67.1292 14.3009 67.2154L14.2772 67.2111ZM14.665 66.5648C14.6168 66.5661 14.5706 66.5836 14.5335 66.6143C14.4139 66.751 14.3388 66.9208 14.3181 67.1012C14.5141 66.9849 14.7705 66.7156 14.749 66.6078C14.749 66.6078 14.749 66.5734 14.6757 66.5669L14.665 66.5648Z" fill="#FFCA40"/>
<path d="M12.5383 67.175H14.1197L14.277 63.5103H12.6956L12.5383 67.175Z" fill="#7F3E3B"/>
<path d="M2.45557 64.1498L4.0111 64.4428L5.7627 61.0408L4.20716 60.75L2.45557 64.1498Z" fill="#7F3E3B"/>
<path d="M4.18123 64.2812L2.47919 63.7684C2.44922 63.7595 2.41712 63.7611 2.38816 63.7728C2.35919 63.7845 2.33507 63.8058 2.31976 63.833L1.61309 65.0912C1.59622 65.122 1.58654 65.1562 1.58477 65.1913C1.583 65.2264 1.58918 65.2614 1.60286 65.2937C1.61654 65.326 1.63736 65.3549 1.66375 65.378C1.69015 65.4011 1.72144 65.418 1.75528 65.4273C2.35207 65.5954 2.65155 65.6428 3.39915 65.8733C3.86021 66.0112 5.07103 66.5197 5.70876 66.7071C6.34649 66.8945 6.6158 66.2934 6.37234 66.1577C5.28217 65.5523 4.67245 64.8973 4.39883 64.4492C4.34988 64.3679 4.27223 64.308 4.18123 64.2812Z" fill="#263238"/>
<path d="M14.1089 66.9917H12.3853C12.354 66.9915 12.3236 67.0021 12.2993 67.0218C12.275 67.0414 12.2581 67.0688 12.2517 67.0994L11.9393 68.5063C11.9314 68.5401 11.9314 68.5753 11.9391 68.6091C11.9469 68.6429 11.9623 68.6745 11.9841 68.7015C12.0059 68.7285 12.0335 68.7502 12.065 68.7649C12.0964 68.7796 12.1308 68.787 12.1655 68.7864C12.7903 68.7864 13.6909 68.7411 14.4751 68.7411C15.3908 68.7411 16.1815 68.7907 17.2566 68.7907C17.9029 68.7907 18.086 68.1336 17.8146 68.0732C16.5757 67.8039 15.5653 67.7738 14.4945 67.1145C14.38 67.0383 14.2464 66.9957 14.1089 66.9917Z" fill="#263238"/>
<path d="M4.68122 18.2746C3.30666 18.9209 2.74219 23.3505 2.74219 23.3505L5.8985 24.5894C6.38826 23.3901 6.78444 22.1548 7.08347 20.8944C7.53591 18.8951 6.09241 17.6024 4.68122 18.2746Z" fill="#FFCA40"/>
<path opacity="0.3" d="M4.68122 18.2746C3.30666 18.9209 2.74219 23.3505 2.74219 23.3505L5.8985 24.5894C6.38826 23.3901 6.78444 22.1548 7.08347 20.8944C7.53591 18.8951 6.09241 17.6024 4.68122 18.2746Z" fill="black"/>
<path opacity="0.2" d="M6.73422 19.5735C6.8418 19.5213 6.95441 19.4801 7.07032 19.4507C7.19623 19.9231 7.20068 20.4196 7.08325 20.8942C6.78421 22.1546 6.38804 23.3899 5.89828 24.5891L4.85767 24.1819C5.04941 23.025 5.63759 20.0992 6.73422 19.5735Z" fill="black"/>
<path d="M13.842 18.2398C13.842 18.2398 15.5268 20.1422 13.9346 31.9208H5.46965C5.41148 30.6281 6.22803 24.281 4.97412 18.1579C5.91054 17.9778 6.85761 17.8584 7.80942 17.8003C9.00776 17.7313 10.2091 17.7313 11.4074 17.8003C12.2291 17.8831 13.0432 18.03 13.842 18.2398Z" fill="#FFCA40"/>
<path opacity="0.3" d="M13.842 18.2398C13.842 18.2398 15.5268 20.1422 13.9346 31.9208H5.46965C5.41148 30.6281 6.22803 24.281 4.97412 18.1579C5.91054 17.9778 6.85761 17.8584 7.80942 17.8003C9.00776 17.7313 10.2091 17.7313 11.4074 17.8003C12.2291 17.8831 13.0432 18.03 13.842 18.2398Z" fill="black"/>
<path opacity="0.2" d="M12.1378 20.765C12.5213 19.6145 13.4434 19.246 14.3828 19.929C14.5724 21.045 14.706 22.844 14.553 25.6966L12.9005 25.6815C12.9005 25.6815 11.5755 22.4778 12.1378 20.765Z" fill="black"/>
<path d="M14.8201 19.979C14.902 20.4724 14.9925 21.011 15.0937 21.5238C15.195 22.0365 15.3092 22.5579 15.4298 23.0664C15.6529 24.0666 15.9563 25.0472 16.3369 25.9986C16.4338 26.2141 16.5329 26.4425 16.6428 26.645L16.7829 26.8992C16.8181 26.9565 16.8593 27.0099 16.9057 27.0586C17.2265 27.363 17.5892 27.6198 17.9829 27.8213C18.9131 28.305 19.8723 28.731 20.8548 29.0968L20.62 30.2602C19.4611 30.18 18.3179 29.9467 17.2202 29.5665C16.9254 29.4639 16.6375 29.3422 16.3584 29.2023C16.0528 29.0464 15.764 28.8594 15.4966 28.6443C15.3394 28.515 15.195 28.3707 15.0657 28.2134L14.9623 28.0777L14.8955 27.9764C14.8503 27.9097 14.805 27.8429 14.7641 27.7761C14.5961 27.5068 14.4474 27.2375 14.3095 26.966C13.8051 25.911 13.4053 24.8091 13.1159 23.6761C12.9716 23.1224 12.838 22.5708 12.7303 22.0128C12.6226 21.4548 12.5148 20.9097 12.4502 20.3151L14.8201 19.979Z" fill="#7F3E3B"/>
<path d="M11.7262 19.4011C11.2802 20.8468 13.09 25.1558 13.09 25.1558L16.9013 24.197C16.668 22.835 16.2753 21.5052 15.7314 20.2349C14.4947 17.5461 12.2627 17.6582 11.7262 19.4011Z" fill="#FFCA40"/>
<path opacity="0.3" d="M11.7262 19.4011C11.2802 20.8468 13.09 25.1558 13.09 25.1558L16.9013 24.197C16.668 22.835 16.2753 21.5052 15.7314 20.2349C14.4947 17.5461 12.2627 17.6582 11.7262 19.4011Z" fill="black"/>
<path d="M20.8785 29.0964L22.5137 29.8311L20.928 31.1389C20.928 31.1389 20.23 30.9105 20.1158 29.7643L19.8723 28.812L20.5898 28.9951C20.6888 29.0201 20.7855 29.054 20.8785 29.0964Z" fill="#7F3E3B"/>
<path d="M23.3819 30.6237L21.7898 31.5739L20.928 31.13L22.5115 29.8223L23.3819 30.6237Z" fill="#7F3E3B"/>
<path d="M12.127 17.6602C11.444 17.0828 9.78505 16.667 7.92789 16.5636C6.86573 16.5054 5.7734 16.6799 5.3188 16.8825C4.86421 17.085 5.40283 18.5479 5.99747 18.5802C5.68291 19.0757 6.13966 20.0323 6.82263 20.2197C6.71491 21.0471 8.80045 21.1246 10.0544 20.4567C11.067 19.9246 12.9457 18.3518 12.127 17.6602Z" fill="#263238"/>
<path opacity="0.2" d="M14.277 63.5103L14.1973 65.3997H12.6138L12.6935 63.5103H14.277Z" fill="black"/>
<path opacity="0.2" d="M4.20498 60.75L5.76267 61.043L4.85994 62.7946L3.30225 62.5016L4.20498 60.75Z" fill="black"/>
<path d="M8.26611 12.5065C8.36091 14.075 8.33506 14.9971 9.12791 15.8029C10.3172 17.0137 12.2541 16.2984 12.6289 14.7256C12.9672 13.3166 12.7539 10.9898 11.2199 10.3628C10.8817 10.2229 10.5132 10.172 10.1497 10.215C9.78613 10.2581 9.43971 10.3935 9.14345 10.6085C8.84719 10.8236 8.61099 11.1109 8.4574 11.4432C8.30381 11.7755 8.23795 12.1416 8.26611 12.5065Z" fill="#7F3E3B"/>
<path d="M11.2005 13.3818C11.793 12.7828 12.7668 11.4772 12.4264 10.4969C11.9244 9.04695 10.427 9.53818 10.6662 9.82688C9.80439 9.25809 8.06357 9.23009 8.42768 9.99277C6.86137 10.2082 6.73426 10.8438 7.16946 11.0829C6.05344 12.1473 6.1073 13.2482 6.95401 13.1663C6.30767 13.8127 7.49694 15.0924 8.82626 15.7022C9.2787 14.5172 11.7003 14.3017 11.2005 13.3818Z" fill="#263238"/>
<path d="M10.5132 13.9481C10.5033 13.9509 10.4928 13.9509 10.483 13.9481C10.4772 13.944 10.4722 13.9388 10.4684 13.9328C10.4646 13.9268 10.462 13.9201 10.4608 13.913C10.4596 13.906 10.4598 13.8989 10.4614 13.8919C10.463 13.885 10.4659 13.8784 10.4701 13.8727C10.8105 13.3728 11.1423 12.9721 11.4353 12.6187C11.9954 11.9422 12.4005 11.4532 12.435 10.7896C12.443 10.5177 12.3659 10.2501 12.2145 10.0241C12.0631 9.79818 11.8449 9.62515 11.5904 9.52921C11.1897 9.34824 10.7588 9.33747 10.5886 9.50552C10.4981 9.59385 10.4895 9.72096 10.5627 9.89763C10.5659 9.90393 10.5676 9.91083 10.5679 9.91786C10.5682 9.9249 10.5669 9.93191 10.5643 9.93844C10.5616 9.94496 10.5576 9.95084 10.5525 9.9557C10.5474 9.96055 10.5414 9.96426 10.5347 9.96658C10.5282 9.96943 10.5212 9.97097 10.5141 9.9711C10.507 9.97124 10.4999 9.96997 10.4933 9.96736C10.4867 9.96476 10.4807 9.96087 10.4756 9.95593C10.4705 9.95099 10.4664 9.94509 10.4636 9.93857C10.416 9.85939 10.3952 9.76702 10.4041 9.67508C10.413 9.58315 10.4513 9.49652 10.5132 9.42796C10.7157 9.22974 11.1875 9.22974 11.6356 9.42796C11.9099 9.53202 12.1448 9.71922 12.3074 9.96337C12.4701 10.2075 12.5523 10.4964 12.5427 10.7896C12.5061 11.4898 12.0924 11.9896 11.5193 12.6812C11.2263 13.0346 10.8967 13.4331 10.5584 13.9308C10.5527 13.937 10.5457 13.9418 10.5378 13.9448C10.53 13.9478 10.5215 13.9489 10.5132 13.9481Z" fill="#263238"/>
<path d="M10.591 13.2051C10.6196 13.5941 10.7756 13.9628 11.0348 14.2543C11.3795 14.6335 11.7415 14.3965 11.8018 13.9354C11.8557 13.5175 11.7436 12.8173 11.3214 12.6083C10.8991 12.3993 10.563 12.7354 10.591 13.2051Z" fill="#7F3E3B"/>
<path d="M10.9289 31.9209C10.9289 31.9209 11.4632 42.5899 10.4226 47.11C8.7744 54.2672 5.62239 62.5684 5.62239 62.5684L2.68799 62.0147C2.68799 62.0147 5.15918 53.7027 5.70427 47.7434C6.18472 42.3917 5.47374 36.2449 5.47374 31.9209H10.9289Z" fill="#263238"/>
<path opacity="0.2" d="M10.1383 35.0817C10.3538 34.6658 10.7739 35.9047 11.0669 37.4947C11.0669 39.6879 11.0281 42.1828 10.8364 44.2964C9.37134 41.5925 9.68374 35.9435 10.1383 35.0817Z" fill="black"/>
<path d="M6.34216 61.6679C6.35509 61.6679 5.88326 62.6848 5.88326 62.6848L2.48779 62.0234L2.85836 61L6.34216 61.6679Z" fill="#2C6BDB"/>
<path d="M13.9452 31.9209C13.9452 31.9209 16.3152 42.0233 16.4875 46.8515C16.675 52.2657 14.7855 65.0331 14.7855 65.0331H12.1053C12.1053 65.0331 11.7757 52.1666 11.655 47.235C11.5257 41.8595 8.37158 31.9209 8.37158 31.9209H13.9452Z" fill="#263238"/>
<path d="M15.3025 63.9644C15.3155 63.9644 15.1517 65.0782 15.1517 65.0782H11.8898L11.8015 64.085L15.3025 63.9644Z" fill="#2C6BDB"/>
</svg>
