<svg width="71" height="56" viewBox="0 0 71 56" fill="none" xmlns="http://www.w3.org/2000/svg">
<g clip-path="url(#clip0_1_12567)">
<path d="M20.1114 29.7098C28.3723 31.9445 34.4856 44.0237 44.0378 40.5479C52.3851 37.5088 46.6275 26.4523 56.5319 26.1085C62.5382 25.8971 74.5333 27.3634 70.0878 15.884C67.3877 8.91359 60.0193 2.83184 52.8529 0.585136C41.7538 -2.89751 44.6404 10.8801 36.9215 13.4087C33.4514 14.545 31.3314 12.2811 28.4465 10.8302C24.203 8.69699 18.5766 6.34715 13.7495 6.25948C6.06869 6.12025 -0.752395 14.2338 -0.407111 21.8626C0.202315 35.1761 12.4979 27.6522 20.1114 29.7098Z" fill="#FFCA40"/>
<path opacity="0.9" d="M20.1114 29.7098C28.3723 31.9445 34.4856 44.0237 44.0378 40.5479C52.3851 37.5088 46.6275 26.4523 56.5319 26.1085C62.5382 25.8971 74.5333 27.3634 70.0878 15.884C67.3877 8.91359 60.0193 2.83184 52.8529 0.585136C41.7538 -2.89751 44.6404 10.8801 36.9215 13.4087C33.4514 14.545 31.3314 12.2811 28.4465 10.8302C24.203 8.69699 18.5766 6.34715 13.7495 6.25948C6.06869 6.12025 -0.752395 14.2338 -0.407111 21.8626C0.202315 35.1761 12.4979 27.6522 20.1114 29.7098Z" fill="#292929"/>
<path d="M56.3902 6.968C55.3543 7.53183 55.009 9.20267 55.4942 9.9298C53.6987 10.4661 54.631 13.5397 57.5659 13.7116C60.5008 13.8835 62.7348 12.816 61.2932 10.5366C62.7192 8.62338 62.0632 6.48669 60.8133 6.72219C59.4718 4.04574 54.9797 4.12481 56.3902 6.968Z" fill="#263238"/>
<path d="M59.5152 13.9181C59.0625 13.9166 58.6186 13.7931 58.2307 13.5605C58.2245 13.5583 58.2189 13.5547 58.2143 13.5501C58.2096 13.5454 58.206 13.5398 58.2038 13.5336C58.2016 13.5274 58.2007 13.5208 58.2014 13.5143C58.202 13.5078 58.2041 13.5014 58.2074 13.4958C58.2108 13.4901 58.2153 13.4853 58.2208 13.4816C58.2262 13.4779 58.2324 13.4754 58.239 13.4744C58.2455 13.4733 58.2521 13.4737 58.2585 13.4756C58.2648 13.4774 58.2707 13.4806 58.2756 13.4849C58.7758 13.783 59.3668 13.8925 59.9412 13.7934C60.5156 13.6944 61.0353 13.3934 61.4056 12.9451C61.8769 12.3641 62.0962 11.4324 61.2727 10.5626C61.2687 10.5584 61.2656 10.5535 61.2636 10.5482C61.2615 10.5428 61.2605 10.5371 61.2607 10.5313C61.2608 10.5256 61.2621 10.5199 61.2645 10.5147C61.2669 10.5094 61.2702 10.5047 61.2744 10.5007C61.2786 10.4968 61.2836 10.4937 61.2889 10.4917C61.2943 10.4896 61.3001 10.4886 61.3059 10.4888C61.3116 10.4889 61.3173 10.4902 61.3226 10.4926C61.3279 10.4949 61.3326 10.4983 61.3366 10.5025C62.1894 11.4135 61.9667 12.3933 61.473 13.0001C61.2338 13.2863 60.9346 13.5167 60.5963 13.6753C60.2581 13.8339 59.8891 13.9168 59.5152 13.9181Z" fill="#263238"/>
<path d="M55.1696 10.5005C55.1607 10.5003 55.1522 10.4974 55.1451 10.4921C55.138 10.4869 55.1327 10.4796 55.1299 10.4713C54.6706 9.16145 55.2852 7.40294 56.3712 6.92162C56.3818 6.91787 56.3934 6.91807 56.4038 6.92217C56.4143 6.92628 56.4229 6.93402 56.4281 6.94397C56.4304 6.94916 56.4316 6.95475 56.4318 6.96041C56.4319 6.96608 56.4308 6.97171 56.4288 6.97698C56.4267 6.98225 56.4236 6.98706 56.4196 6.99113C56.4156 6.9952 56.4109 6.99845 56.4057 7.0007C55.356 7.46482 54.7639 9.17005 55.211 10.4387C55.2129 10.4441 55.2137 10.4498 55.2133 10.4555C55.2129 10.4612 55.2114 10.4668 55.2088 10.4719C55.2063 10.4771 55.2027 10.4816 55.1983 10.4854C55.1939 10.4891 55.1889 10.4919 55.1834 10.4937L55.1696 10.5005Z" fill="#263238"/>
<path d="M54.8883 8.60819H54.8727C54.8623 8.60396 54.8538 8.59594 54.849 8.58574C54.8442 8.57554 54.8434 8.56392 54.8469 8.55318C55.1576 7.73323 55.7446 7.10924 56.3765 6.92359C56.3875 6.9204 56.3993 6.92169 56.4093 6.92717C56.4193 6.93265 56.4268 6.94187 56.43 6.95282C56.4332 6.96376 56.4319 6.97552 56.4264 6.98551C56.4209 6.99551 56.4116 7.00291 56.4006 7.0061C55.7947 7.178 55.2301 7.78824 54.928 8.58413C54.9244 8.59149 54.9187 8.59767 54.9117 8.60194C54.9046 8.6062 54.8965 8.60837 54.8883 8.60819Z" fill="#263238"/>
<path d="M57.3052 54.3327L56.3074 54.3344L56.1399 50.6025L57.8197 50.6438L57.3052 54.3327Z" fill="#FFB573"/>
<path d="M55.5704 22.1297C55.5704 22.1297 55.4823 32.4865 55.2631 36.9954C55.2544 37.1293 55.2544 37.2637 55.2631 37.3976C55.5911 41.9168 56.1349 50.6028 56.1349 50.6028L57.8251 50.6458C57.8251 50.6458 59.2977 43.7097 58.3862 37.4268C59.8519 30.3206 60.6409 23.9793 59.3132 22.1279L55.5704 22.1297Z" fill="#FFCA40"/>
<path opacity="0.2" d="M58.4015 26.2432C57.8836 27.9725 58.3877 33.5316 58.6553 36.0963C59.0196 34.2433 59.3304 32.4607 59.56 30.8174L58.4015 26.2432Z" fill="black"/>
<path d="M56.1952 53.8516H57.4917C57.519 53.8506 57.5456 53.86 57.5661 53.8779C57.5867 53.8958 57.5996 53.9209 57.6022 53.9479L57.7334 55.0051C57.7341 55.0378 57.7282 55.0703 57.7161 55.1007C57.704 55.1311 57.6859 55.1589 57.663 55.1822C57.64 55.2056 57.6125 55.2242 57.5822 55.2369C57.5519 55.2495 57.5194 55.256 57.4865 55.256C56.9151 55.256 56.6423 55.2148 55.9224 55.2165C55.4787 55.2165 55.2111 55.2612 54.5982 55.2612C53.9853 55.2612 53.9853 54.6767 54.2426 54.6235C55.3976 54.3845 55.546 54.2522 55.9483 53.9359C56.0189 53.8813 56.1058 53.8516 56.1952 53.8516Z" fill="#263238"/>
<path d="M56.6215 14.5076C56.5576 14.8635 56.4851 15.1952 56.4074 15.539C56.3297 15.8828 56.2503 16.2266 56.1588 16.5704C55.9776 17.258 55.7894 17.9318 55.5408 18.6125C55.416 18.9645 55.2708 19.3089 55.1057 19.6439C55.0142 19.8299 54.9086 20.0086 54.7898 20.1785C54.7553 20.225 54.7242 20.2696 54.6793 20.3212C54.6363 20.3759 54.5884 20.4266 54.536 20.4725C54.4036 20.597 54.2441 20.6894 54.0699 20.7424C53.8872 20.7973 53.6935 20.805 53.5071 20.7647C53.3603 20.7309 53.2202 20.6728 53.0927 20.5928C52.8992 20.4695 52.7277 20.3149 52.5851 20.1356C52.3403 19.8322 52.1451 19.4922 52.0068 19.1282C51.9764 19.0509 51.9738 18.9654 51.9994 18.8863C52.0249 18.8072 52.0771 18.7394 52.1471 18.6941C52.217 18.6489 52.3005 18.6291 52.3835 18.638C52.4665 18.6469 52.5438 18.6841 52.6024 18.7432L52.6231 18.7655C52.8374 18.9909 53.0682 19.2 53.3137 19.3912C53.4096 19.4642 53.5162 19.5222 53.6296 19.5631C53.6711 19.5735 53.7004 19.5735 53.7039 19.5631C53.7073 19.5528 53.6797 19.546 53.6555 19.5477C53.6314 19.5494 53.6158 19.558 53.6227 19.5477C53.6308 19.5327 53.6401 19.5183 53.6503 19.5047C53.6675 19.4839 53.6825 19.4614 53.6952 19.4377C53.7676 19.3193 53.831 19.1958 53.8851 19.0681C54.0108 18.7736 54.1215 18.473 54.2166 18.1673C54.4134 17.5382 54.593 16.8833 54.7483 16.2249C54.9037 15.5665 55.0574 14.8944 55.1955 14.2377C55.238 14.0562 55.3496 13.8982 55.5067 13.7968C55.6639 13.6955 55.8544 13.6588 56.0381 13.6944C56.2219 13.73 56.3847 13.8352 56.4922 13.9878C56.5997 14.1404 56.6436 14.3286 56.6146 14.5128L56.6215 14.5076Z" fill="#FFB573"/>
<path d="M55.0522 20.7233C55.0522 21.1462 61.6713 21.2287 61.6713 20.67L58.2893 19.8105L55.0522 20.7233Z" fill="#263238"/>
<path d="M56.2676 13.3986C58.0129 13.1079 59.7958 13.1254 61.535 13.4501C61.637 13.4662 61.7346 13.5029 61.8218 13.558C61.909 13.6131 61.984 13.6854 62.042 13.7705C62.1001 13.8555 62.1401 13.9515 62.1594 14.0525C62.1788 14.1535 62.1772 14.2574 62.1547 14.3578C61.219 18.5297 61.2725 19.9324 61.3623 22.1293H55.5719C55.2819 18.4644 55.1282 16.3724 55.0902 15.1846C55.0591 14.2787 55.3716 13.5309 56.2676 13.3986Z" fill="#FFB573"/>
<path opacity="0.2" d="M61.5178 14.6108C61.4814 15.1931 61.5588 15.7769 61.7457 16.3298C61.8199 15.9327 61.9062 15.5064 62.0047 15.0406L61.5178 14.6108Z" fill="black"/>
<path d="M59.6341 10.3525C59.4614 11.1862 59.3043 12.7179 59.8913 13.2748C59.8913 13.2748 59.6617 14.1223 58.1045 14.1223C56.3901 14.1223 57.2844 13.2748 57.2844 13.2748C58.2201 13.0513 58.196 12.3603 58.0337 11.7123L59.6341 10.3525Z" fill="#FFB573"/>
<path opacity="0.2" d="M58.9815 10.9082L58.0337 11.7178C58.0739 11.8688 58.1011 12.0229 58.1148 12.1785C58.4722 12.127 58.9625 11.7368 59.0005 11.3637C59.0218 11.212 59.0153 11.0577 58.9815 10.9082Z" fill="black"/>
<path d="M60.5389 8.90535C60.2178 10.2651 60.1125 10.8478 59.2941 11.434C58.0649 12.3175 56.4559 11.6299 56.3592 10.2015C56.2729 8.91738 56.8098 6.9079 58.2583 6.5916C58.5764 6.52018 58.9076 6.53086 59.2205 6.62263C59.5333 6.7144 59.8174 6.88422 60.0458 7.11597C60.2743 7.34773 60.4395 7.63375 60.5258 7.9469C60.612 8.26006 60.6166 8.58997 60.5389 8.90535Z" fill="#FFB573"/>
<path d="M60.0174 6.85986C58.5706 7.01973 59.0109 9.70477 60.0985 9.96434C61.3726 9.34379 62.1581 6.98707 60.0174 6.85986Z" fill="#263238"/>
<path d="M67.0993 51.8746L66.0997 52.1771L64.6409 49.1345L66.1791 48.7168L67.0993 51.8746Z" fill="#FFB573"/>
<path d="M65.8114 51.873L67.0959 51.3779C67.1183 51.3693 67.1432 51.3688 67.1659 51.3767C67.1887 51.3846 67.2079 51.4002 67.2202 51.4209L67.7951 52.3869C67.8089 52.411 67.8173 52.4378 67.8197 52.4654C67.8222 52.493 67.8186 52.5208 67.8093 52.5469C67.7999 52.573 67.785 52.5968 67.7656 52.6167C67.7461 52.6365 67.7226 52.652 67.6967 52.662C67.2461 52.8339 67.0285 52.9215 66.464 53.1398C66.1187 53.2739 65.5766 53.7209 65.0967 53.9048C64.6167 54.0887 64.4061 53.6521 64.5787 53.5008C65.0465 53.0944 65.4149 52.587 65.656 52.0173C65.6707 51.984 65.692 51.954 65.7187 51.9291C65.7454 51.9043 65.777 51.8852 65.8114 51.873Z" fill="#263238"/>
<path d="M57.1602 22.1294C57.1602 22.1294 59.2888 32.971 60.0951 37.2564C60.9289 41.7258 64.6442 49.1277 64.6442 49.1277L66.1859 48.7083C66.1859 48.7083 64.0745 40.7907 63.0904 36.8662C62.8971 29.76 63.1249 23.9739 61.364 22.1226L57.1602 22.1294Z" fill="#FFCA40"/>
<path d="M58.2738 8.89674C58.2548 9.00854 58.1806 9.08938 58.1011 9.06874C58.0216 9.0481 57.9836 8.95522 58.0026 8.84341C58.0216 8.73161 58.0976 8.65077 58.1754 8.66281C58.2531 8.67485 58.2946 8.78493 58.2738 8.89674Z" fill="#263238"/>
<path d="M57.0049 8.68222C56.9859 8.79402 56.9099 8.87486 56.8322 8.85422C56.7544 8.83358 56.7147 8.74242 56.7337 8.6289C56.7527 8.51537 56.8287 8.43625 56.9065 8.45689C56.9842 8.47753 57.0239 8.57042 57.0049 8.68222Z" fill="#263238"/>
<path d="M56.9376 8.46911L56.6802 8.34473C56.6802 8.34473 56.7838 8.57967 56.9376 8.46911Z" fill="#263238"/>
<path d="M57.3605 8.9502C57.2179 9.18793 57.0437 9.40536 56.8425 9.59653C56.8928 9.64666 56.9535 9.68537 57.0202 9.71C57.087 9.73462 57.1583 9.74459 57.2293 9.73921L57.3605 8.9502Z" fill="#ED893E"/>
<path d="M57.7644 10.2807C57.7066 10.2807 57.6488 10.2755 57.5918 10.2652C57.5875 10.2646 57.5833 10.2631 57.5796 10.2608C57.5758 10.2586 57.5726 10.2556 57.57 10.2521C57.5674 10.2486 57.5656 10.2446 57.5646 10.2403C57.5636 10.2361 57.5635 10.2317 57.5642 10.2274C57.5659 10.2189 57.5707 10.2113 57.5778 10.2062C57.5848 10.2011 57.5935 10.1988 57.6022 10.1999C57.7415 10.2263 57.8852 10.2199 58.0216 10.1811C58.158 10.1422 58.2834 10.0722 58.3877 9.9764C58.3908 9.97306 58.3945 9.9704 58.3987 9.96858C58.4028 9.96676 58.4073 9.96582 58.4119 9.96582C58.4164 9.96582 58.4209 9.96676 58.4251 9.96858C58.4292 9.9704 58.433 9.97306 58.436 9.9764C58.4419 9.98274 58.4451 9.99102 58.4451 9.99961C58.4451 10.0082 58.4419 10.0165 58.436 10.0228C58.2552 10.1938 58.0137 10.2865 57.7644 10.2807Z" fill="#263238"/>
<path d="M60.7356 10.0778C60.598 10.3106 60.3742 10.4803 60.1123 10.5505C59.767 10.6382 59.5944 10.3271 59.7014 10.0039C59.7929 9.71339 60.0864 9.31631 60.4334 9.3696C60.5088 9.38331 60.5796 9.41544 60.6394 9.4631C60.6992 9.51076 60.7462 9.57247 60.7761 9.64267C60.8061 9.71287 60.818 9.78939 60.811 9.86534C60.8039 9.94128 60.778 10.0143 60.7356 10.0778Z" fill="#FFB573"/>
<path d="M58.8248 8.72529C58.8109 8.72515 58.7973 8.72057 58.7861 8.71222C58.7749 8.70387 58.7667 8.69217 58.7627 8.67885C58.6711 8.38472 58.2928 8.25743 58.2893 8.25743C58.2808 8.25491 58.2729 8.25069 58.2661 8.24503C58.2592 8.23936 58.2536 8.23238 58.2496 8.2245C58.2456 8.21662 58.2432 8.20801 58.2426 8.19918C58.242 8.19036 58.2432 8.1815 58.2461 8.17315C58.2487 8.16468 58.2529 8.1568 58.2586 8.15C58.2643 8.1432 58.2713 8.13762 58.2792 8.1336C58.2871 8.12958 58.2958 8.12721 58.3046 8.12661C58.3135 8.12602 58.3224 8.12722 58.3308 8.13015C58.3481 8.13015 58.7782 8.2798 58.8905 8.64617C58.8932 8.65464 58.8941 8.66355 58.8933 8.67238C58.8925 8.68122 58.8899 8.68981 58.8857 8.69765C58.8815 8.70548 58.8758 8.71242 58.8689 8.71805C58.8621 8.72368 58.8541 8.72789 58.8456 8.73045L58.8248 8.72529Z" fill="#263238"/>
<path d="M56.7218 8.03313C56.7103 8.03299 56.699 8.02989 56.689 8.02415C56.679 8.0184 56.6707 8.01019 56.6648 8.0003C56.6561 7.98472 56.6539 7.96633 56.6588 7.94917C56.6637 7.93201 56.6751 7.91747 56.6907 7.90875C56.7817 7.85372 56.8845 7.82125 56.9906 7.81404C57.0966 7.80682 57.2029 7.82508 57.3005 7.86729C57.3162 7.87541 57.3281 7.88939 57.3336 7.90619C57.3391 7.923 57.3377 7.94129 57.3299 7.95712C57.3217 7.97282 57.3078 7.9847 57.2909 7.9902C57.2741 7.99569 57.2559 7.99436 57.24 7.98648C57.162 7.95457 57.0777 7.94138 56.9937 7.94798C56.9097 7.95458 56.8284 7.98079 56.7563 8.02449C56.7459 8.03077 56.7339 8.03378 56.7218 8.03313Z" fill="#263238"/>
<path d="M62.0081 13.6893C62.5001 14.3305 62.9472 14.9786 63.3719 15.6627C63.5826 16.0065 63.7897 16.3503 63.9796 16.7164C64.1859 17.0958 64.3564 17.4935 64.4889 17.9043C64.5079 17.9593 64.5217 18.0229 64.5373 18.0762L64.5494 18.126L64.5649 18.1982C64.5719 18.2432 64.5765 18.2885 64.5787 18.334C64.5866 18.4832 64.5756 18.6328 64.5459 18.7792C64.4968 19.0114 64.4233 19.2379 64.3267 19.4548C64.1564 19.838 63.9555 20.2071 63.7259 20.5584C63.2888 21.2334 62.7974 21.8721 62.2567 22.4681C62.1974 22.5342 62.1157 22.576 62.0273 22.5854C61.9388 22.5949 61.85 22.5713 61.7781 22.5193C61.7061 22.4673 61.656 22.3906 61.6376 22.304C61.6192 22.2174 61.6337 22.127 61.6783 22.0504V22.0418C62.0599 21.38 62.438 20.6993 62.7642 20.0255C62.9243 19.7006 63.0632 19.3659 63.1803 19.0233C63.2307 18.8778 63.2654 18.7274 63.2839 18.5747C63.2902 18.5296 63.2902 18.4839 63.2839 18.4389V18.4285V18.4079C63.2718 18.3735 63.2632 18.3426 63.2476 18.3065C63.1132 17.9842 62.9551 17.6722 62.7746 17.3731C62.5847 17.0551 62.3827 16.7371 62.1755 16.4191C61.7543 15.7899 61.3123 15.1573 60.8635 14.5454C60.7559 14.3918 60.7126 14.2026 60.7428 14.0178C60.7729 13.8331 60.8741 13.6672 61.025 13.5555C61.1758 13.4437 61.3644 13.3949 61.5508 13.4192C61.7372 13.4435 61.9068 13.5392 62.0236 13.6859L62.0081 13.6893Z" fill="#FFB573"/>
<path d="M58.2083 8.68444L57.9509 8.56006C57.9509 8.56006 58.0528 8.79673 58.2083 8.68444Z" fill="#263238"/>
<path d="M55.2526 14.7739C55.3592 14.3402 55.4965 13.9145 55.6634 13.5001C55.9283 13.4213 56.1991 13.3639 56.4731 13.3282C57.0315 13.8209 57.4908 14.4148 57.8266 15.0781C58.5673 14.3321 59.9847 13.5775 60.8479 13.3024C61.1399 13.2841 61.4328 13.3208 61.7111 13.4107C61.1224 15.2604 60.5216 17.1203 61.5868 17.5982C61.5678 18.4766 61.6179 19.5664 61.6628 20.6683C60.6563 20.5582 56.6648 20.3674 55.0437 20.7215C54.9608 19.6042 54.9314 18.6588 54.9366 17.8423C54.1822 16.8848 54.9383 15.5818 55.2526 14.7739Z" fill="#263238"/>
<mask id="mask0_1_12567" style="mask-type:luminance" maskUnits="userSpaceOnUse" x="54" y="13" width="8" height="8">
<path d="M55.2526 14.7739C55.3592 14.3402 55.4965 13.9145 55.6634 13.5001C55.9283 13.4213 56.1991 13.3639 56.4731 13.3282C57.0315 13.8209 57.4908 14.4148 57.8266 15.0781C58.5673 14.3321 59.9847 13.5775 60.8479 13.3024C61.1399 13.2841 61.4328 13.3208 61.7111 13.4107C61.1224 15.2604 60.5216 17.1203 61.5868 17.5982C61.5678 18.4766 61.6179 19.5664 61.6628 20.6683C60.6563 20.5582 56.6648 20.3674 55.0437 20.7215C54.9608 19.6042 54.9314 18.6588 54.9366 17.8423C54.1822 16.8848 54.9383 15.5818 55.2526 14.7739Z" fill="white"/>
</mask>
<g mask="url(#mask0_1_12567)">
<g opacity="0.2">
<path d="M56.8393 18.2131C56.8303 18.2142 56.8217 18.2176 56.8144 18.223C56.8071 18.2285 56.8014 18.2357 56.7979 18.244C56.6755 18.5859 56.6791 18.96 56.8082 19.2995C56.6891 19.1998 56.5717 19.1018 56.4629 19.0021C56.5602 18.7951 56.5978 18.5653 56.5716 18.3383C56.5453 18.1113 56.4563 17.8959 56.3145 17.7163C56.309 17.7093 56.3019 17.7037 56.2938 17.7001C56.2856 17.6965 56.2767 17.695 56.2679 17.6957C56.2587 17.6964 56.25 17.6997 56.2426 17.7052C56.2353 17.7106 56.2297 17.7181 56.2264 17.7266C56.1 18.0781 56.108 18.4636 56.2489 18.8096C56.0935 18.6686 55.945 18.5277 55.8086 18.3919C55.9106 18.1838 55.9515 17.9514 55.9268 17.7212C55.9021 17.491 55.8126 17.2725 55.6688 17.0906C55.6634 17.0836 55.6562 17.078 55.6481 17.0744C55.64 17.0708 55.6311 17.0693 55.6222 17.07C55.613 17.0707 55.6043 17.074 55.5969 17.0794C55.5896 17.0849 55.584 17.0924 55.5807 17.1009C55.4552 17.4531 55.4632 17.8388 55.6032 18.1856C55.3667 17.9398 55.1699 17.7163 55.0231 17.5307C54.9704 17.3228 54.8656 17.1316 54.7186 16.975C54.5716 16.8184 54.3871 16.7015 54.1823 16.6351C54.174 16.6336 54.1654 16.6342 54.1574 16.6366C54.1493 16.6391 54.1419 16.6435 54.1358 16.6494C54.1298 16.6552 54.1252 16.6624 54.1225 16.6704C54.1198 16.6784 54.119 16.6869 54.1202 16.6952C54.2756 17.4567 54.8384 17.5891 54.9523 17.608C55.0335 17.7094 55.125 17.8212 55.2355 17.9415C54.9649 17.8208 54.6638 17.7848 54.3722 17.8384C54.3634 17.8404 54.3553 17.8448 54.3489 17.8512C54.3425 17.8576 54.338 17.8657 54.336 17.8745C54.3334 17.883 54.333 17.892 54.3348 17.9007C54.3366 17.9094 54.3406 17.9175 54.3463 17.9243C54.4948 18.0928 54.6875 18.2167 54.9029 18.282C55.1182 18.3473 55.3476 18.3514 55.5652 18.2939C55.6619 18.3936 55.7655 18.495 55.8742 18.5999C55.5086 18.4958 55.1183 18.5188 54.7676 18.6652C54.7593 18.6696 54.7523 18.6761 54.7475 18.6842C54.7426 18.6922 54.7401 18.7014 54.7401 18.7107C54.7401 18.7201 54.7426 18.7293 54.7475 18.7373C54.7523 18.7453 54.7593 18.7519 54.7676 18.7563C54.9647 18.8785 55.1905 18.9471 55.4226 18.9552C55.6546 18.9634 55.8848 18.9108 56.09 18.8027C56.2351 18.9385 56.3887 19.0743 56.5475 19.2101C56.1938 19.0512 55.7935 19.0279 55.4236 19.1448C55.415 19.1482 55.4075 19.1539 55.4018 19.1611C55.396 19.1683 55.3922 19.1769 55.3908 19.186C55.3899 19.195 55.3912 19.204 55.3945 19.2124C55.3978 19.2207 55.4031 19.2282 55.4098 19.2342C55.5916 19.3807 55.8105 19.4744 56.0424 19.5047C56.2742 19.5351 56.51 19.5009 56.7236 19.4061L56.7374 19.3975C56.7429 19.3918 56.7465 19.3846 56.7478 19.3768L56.9429 19.535C56.9489 19.5431 56.9574 19.5491 56.9671 19.5522C57.0706 19.6347 57.176 19.7155 57.283 19.7946C57.2924 19.8025 57.3043 19.8069 57.3167 19.8069C57.329 19.8069 57.3409 19.8025 57.3503 19.7946C57.3543 19.789 57.3572 19.7828 57.3587 19.7761C57.3603 19.7695 57.3605 19.7627 57.3594 19.7559C57.3582 19.7492 57.3558 19.7428 57.3522 19.737C57.3485 19.7313 57.3438 19.7263 57.3382 19.7224C57.2398 19.6484 57.1414 19.5745 57.0465 19.4972C57.1361 19.2924 57.1684 19.0673 57.1398 18.8457C57.1113 18.6241 57.0229 18.4144 56.8842 18.2389C56.8796 18.231 56.8731 18.2245 56.8652 18.22C56.8573 18.2155 56.8484 18.2131 56.8393 18.2131Z" fill="white"/>
<path d="M55.1369 15.5504C55.146 15.5493 55.1545 15.5459 55.1618 15.5404C55.1691 15.535 55.1748 15.5278 55.1784 15.5194C55.3008 15.1775 55.2971 14.8034 55.168 14.464C55.2871 14.5637 55.4045 14.6617 55.5133 14.7614C55.4161 14.9684 55.3785 15.1982 55.4047 15.4252C55.4309 15.6522 55.5199 15.8675 55.6618 16.0472C55.6672 16.0542 55.6743 16.0598 55.6824 16.0634C55.6906 16.067 55.6995 16.0685 55.7084 16.0678C55.7175 16.0671 55.7263 16.0638 55.7336 16.0583C55.7409 16.0528 55.7466 16.0454 55.7498 16.0369C55.8762 15.6854 55.8682 15.2999 55.7274 14.9539C55.8828 15.0949 56.0312 15.2358 56.1676 15.3716C56.0657 15.5797 56.0247 15.8121 56.0494 16.0423C56.0742 16.2725 56.1636 16.491 56.3075 16.6729C56.3129 16.6799 56.32 16.6855 56.3281 16.6891C56.3363 16.6927 56.3452 16.6942 56.3541 16.6935C56.3632 16.6928 56.372 16.6895 56.3793 16.684C56.3866 16.6785 56.3922 16.6711 56.3955 16.6626C56.521 16.3104 56.513 15.9246 56.3731 15.5779C56.6096 15.8237 56.8064 16.0472 56.9531 16.2328C57.0059 16.4407 57.1106 16.6318 57.2577 16.7884C57.4047 16.9451 57.5892 17.062 57.7939 17.1284C57.8022 17.1298 57.8108 17.1293 57.8189 17.1268C57.827 17.1243 57.8343 17.12 57.8404 17.1141C57.8465 17.1082 57.851 17.101 57.8538 17.0931C57.8565 17.0851 57.8573 17.0766 57.8561 17.0682C57.7007 16.3067 57.1379 16.1744 57.0239 16.1555C56.9428 16.054 56.8513 15.9423 56.7408 15.822C57.0112 15.9432 57.3126 15.9786 57.604 15.9234C57.6128 15.9219 57.6209 15.9178 57.6274 15.9117C57.6338 15.9056 57.6383 15.8977 57.6402 15.889C57.6428 15.8805 57.6432 15.8715 57.6414 15.8628C57.6396 15.8541 57.6357 15.846 57.6299 15.8392C57.4815 15.6706 57.2887 15.5468 57.0734 15.4815C56.858 15.4162 56.6286 15.412 56.411 15.4696C56.3144 15.3699 56.2108 15.2685 56.102 15.1636C56.4676 15.2677 56.8579 15.2447 57.2086 15.0983C57.217 15.0939 57.2239 15.0873 57.2287 15.0793C57.2336 15.0713 57.2362 15.0621 57.2362 15.0527C57.2362 15.0434 57.2336 15.0342 57.2287 15.0262C57.2239 15.0181 57.217 15.0116 57.2086 15.0072C57.0115 14.885 56.7857 14.8164 56.5536 14.8082C56.3216 14.8001 56.0915 14.8527 55.8862 14.9608C55.7412 14.825 55.5875 14.6892 55.4287 14.5534C55.7824 14.7123 56.1827 14.7356 56.5526 14.6187C56.561 14.615 56.5684 14.6093 56.5741 14.6021C56.5798 14.5949 56.5837 14.5864 56.5854 14.5774C56.5863 14.5685 56.585 14.5595 56.5817 14.5511C56.5784 14.5427 56.5732 14.5353 56.5664 14.5293C56.3847 14.3827 56.1658 14.2891 55.9339 14.2587C55.702 14.2284 55.4662 14.2626 55.2526 14.3574L55.2388 14.366C55.2334 14.3717 55.2298 14.3789 55.2284 14.3866L55.0334 14.2285C55.0273 14.2204 55.0189 14.2144 55.0092 14.2113C54.9056 14.1288 54.8003 14.048 54.6932 13.9689C54.6839 13.9609 54.6719 13.9565 54.6596 13.9565C54.6472 13.9565 54.6353 13.9609 54.6259 13.9689C54.6181 13.98 54.6148 13.9936 54.6167 14.0071C54.6187 14.0205 54.6257 14.0327 54.6363 14.0411C54.7364 14.115 54.8348 14.189 54.9298 14.2663C54.8401 14.4711 54.8078 14.6962 54.8364 14.9178C54.865 15.1393 54.9533 15.349 55.0921 15.5246C55.0966 15.5324 55.1031 15.539 55.111 15.5435C55.1189 15.548 55.1278 15.5504 55.1369 15.5504Z" fill="white"/>
<path d="M60.4594 19.4682C60.4506 19.4694 60.4423 19.4727 60.4351 19.4778C60.4279 19.4829 60.422 19.4896 60.4179 19.4974C60.297 19.8396 60.3007 20.2132 60.4283 20.5529C60.3092 20.4549 60.1918 20.3552 60.083 20.2555C60.1803 20.0488 60.2179 19.8193 60.1917 19.5925C60.1655 19.3657 60.0764 19.1507 59.9345 18.9714C59.9292 18.9644 59.9221 18.9588 59.914 18.9552C59.9059 18.9517 59.8969 18.9502 59.8881 18.9511C59.8793 18.952 59.8708 18.9551 59.8635 18.9601C59.8562 18.9652 59.8504 18.9721 59.8465 18.98C59.721 19.3322 59.729 19.7179 59.8689 20.0647C59.7136 19.922 59.5651 19.7828 59.4287 19.647C59.5311 19.4394 59.5723 19.2071 59.5476 18.9771C59.5228 18.7471 59.4331 18.5288 59.2889 18.3474C59.2838 18.34 59.2767 18.3342 59.2685 18.3305C59.2603 18.3269 59.2512 18.3256 59.2423 18.3268C59.2335 18.3279 59.2251 18.3311 59.2178 18.3362C59.2106 18.3413 59.2048 18.3481 59.2008 18.356C59.0753 18.7082 59.0833 19.094 59.2233 19.4407C58.9867 19.1966 58.7899 18.9714 58.6432 18.7858C58.5899 18.5782 58.4849 18.3873 58.3379 18.2308C58.191 18.0743 58.0068 17.9571 57.8024 17.8902C57.7941 17.8885 57.7855 17.8889 57.7774 17.8913C57.7693 17.8937 57.7618 17.898 57.7558 17.9039C57.7495 17.9101 57.7449 17.9178 57.7422 17.9261C57.7394 17.9345 57.7388 17.9434 57.7403 17.9521C57.8956 18.7119 58.4602 18.8442 58.5724 18.8631C58.6535 18.9646 58.745 19.078 58.8555 19.1983C58.585 19.0775 58.2839 19.0415 57.9923 19.0952C57.9837 19.0976 57.9757 19.1021 57.9694 19.1085C57.963 19.1148 57.9584 19.1227 57.9561 19.1313C57.9535 19.1395 57.9531 19.1483 57.9549 19.1567C57.9567 19.1652 57.9607 19.173 57.9664 19.1794C58.114 19.3491 58.3067 19.4738 58.5223 19.5392C58.738 19.6046 58.9678 19.608 59.1853 19.549C59.282 19.6487 59.3855 19.7518 59.4943 19.8567C59.1288 19.7516 58.7382 19.7747 58.3877 19.922C58.3798 19.9267 58.3732 19.9332 58.3684 19.941C58.3635 19.9488 58.3607 19.9576 58.36 19.9667C58.3599 19.9758 58.3622 19.9848 58.3667 19.9927C58.3713 20.0005 58.3779 20.007 58.3859 20.0114C58.583 20.1337 58.8087 20.2025 59.0407 20.211C59.2727 20.2194 59.5029 20.1672 59.7084 20.0595C59.8534 20.1936 60.0071 20.3294 60.1659 20.4669C59.8121 20.308 59.4119 20.2847 59.042 20.4016C59.0334 20.4051 59.0259 20.4107 59.0201 20.4179C59.0144 20.4252 59.0106 20.4338 59.0092 20.4429C59.0081 20.4517 59.0095 20.4607 59.0132 20.4689C59.0168 20.4771 59.0226 20.4841 59.0299 20.4893C59.2116 20.6359 59.4306 20.7295 59.6624 20.7598C59.8943 20.7902 60.1301 20.756 60.3437 20.6612L60.3558 20.6509C60.3608 20.6453 60.3649 20.6389 60.3679 20.632L60.563 20.7901C60.5684 20.7981 60.5763 20.8041 60.5854 20.8073C60.689 20.8898 60.7943 20.9706 60.9013 21.0514C60.9107 21.0594 60.9227 21.0638 60.935 21.0638C60.9474 21.0638 60.9593 21.0594 60.9687 21.0514C60.9769 21.0405 60.9805 21.0267 60.9785 21.0132C60.9766 20.9996 60.9693 20.9874 60.9583 20.9792C60.8582 20.9053 60.7615 20.8296 60.6648 20.754C60.7549 20.5494 60.7876 20.3244 60.7593 20.1028C60.731 19.8812 60.6429 19.6714 60.5043 19.4957C60.4998 19.4877 60.4933 19.4809 60.4855 19.4761C60.4776 19.4713 60.4686 19.4686 60.4594 19.4682Z" fill="white"/>
<path d="M63.7794 20.6559C63.7702 20.6566 63.7615 20.6599 63.7542 20.6654C63.7468 20.6709 63.7412 20.6783 63.738 20.6869C63.6148 21.0285 63.6179 21.4027 63.7466 21.7423C63.6275 21.6426 63.5118 21.5429 63.4013 21.4449C63.499 21.2381 63.537 21.0084 63.511 20.7813C63.4851 20.5543 63.3963 20.3388 63.2546 20.1591C63.249 20.1519 63.2416 20.1461 63.2331 20.1425C63.2246 20.1389 63.2154 20.1375 63.2062 20.1385C63.1972 20.1398 63.1887 20.1433 63.1815 20.1487C63.1742 20.1541 63.1685 20.1612 63.1648 20.1695C63.0392 20.5211 63.0472 20.9063 63.1872 21.2524C63.0318 21.1115 62.8851 20.9705 62.7487 20.8347C62.8507 20.6267 62.8916 20.3942 62.8669 20.164C62.8422 19.9339 62.7527 19.7153 62.6089 19.5334C62.6034 19.5264 62.5963 19.5208 62.5882 19.5172C62.5801 19.5136 62.5711 19.5121 62.5623 19.5128C62.5531 19.5135 62.5444 19.5168 62.537 19.5223C62.5297 19.5278 62.5241 19.5352 62.5208 19.5437C62.3945 19.8958 62.4025 20.2818 62.5433 20.6284C62.3068 20.3826 62.1082 20.1591 61.9632 19.9735C61.9105 19.7656 61.8057 19.5745 61.6587 19.4179C61.5116 19.2612 61.3272 19.1443 61.1224 19.0779C61.114 19.076 61.1053 19.0763 61.097 19.0786C61.0887 19.0809 61.0812 19.0853 61.075 19.0913C61.0688 19.0972 61.0643 19.1046 61.0617 19.1128C61.0591 19.121 61.0586 19.1297 61.0603 19.1381C61.2157 19.8996 61.7785 20.0319 61.8924 20.0508C61.9718 20.1523 62.0651 20.264 62.1755 20.3843C61.9049 20.2639 61.6039 20.228 61.3123 20.2812C61.3038 20.2838 61.2961 20.2885 61.2897 20.2948C61.2834 20.3011 61.2787 20.3088 61.2761 20.3173C61.2737 20.3259 61.2736 20.335 61.2757 20.3438C61.2778 20.3525 61.2821 20.3605 61.2882 20.3671C61.4364 20.5354 61.6289 20.6591 61.8439 20.7243C62.0589 20.7896 62.288 20.7939 62.5053 20.7367C62.6037 20.8364 62.7056 20.9378 62.8143 21.0427C62.4493 20.9386 62.0595 20.9616 61.7094 21.108C61.7011 21.1122 61.6941 21.1186 61.6892 21.1265C61.6843 21.1343 61.6818 21.1434 61.6818 21.1527C61.6816 21.1618 61.6838 21.1709 61.688 21.179C61.6922 21.1871 61.6984 21.194 61.706 21.1991C61.9036 21.3208 62.1296 21.3891 62.3619 21.3973C62.5941 21.4054 62.8244 21.3531 63.0301 21.2455C63.1751 21.3808 63.3271 21.5166 63.4859 21.6529C63.1322 21.494 62.7319 21.4707 62.362 21.5876C62.3534 21.5908 62.3459 21.5964 62.3404 21.6037C62.3349 21.6111 62.3316 21.6198 62.3309 21.6289C62.33 21.6378 62.3313 21.6468 62.3346 21.6552C62.3379 21.6636 62.3431 21.671 62.3499 21.677C62.5317 21.8234 62.7506 21.9169 62.9825 21.9473C63.2143 21.9776 63.4501 21.9436 63.6637 21.8489C63.6677 21.8497 63.6718 21.8497 63.6758 21.8489C63.6823 21.8438 63.6866 21.8364 63.6879 21.8283L63.883 21.9864C63.8888 21.994 63.8965 22 63.9054 22.0036C64.009 22.0861 64.1143 22.1669 64.2214 22.246C64.2307 22.254 64.2427 22.2584 64.255 22.2584C64.2674 22.2584 64.2793 22.254 64.2887 22.246C64.293 22.2407 64.2962 22.2345 64.298 22.2279C64.2998 22.2213 64.3002 22.2144 64.2993 22.2076C64.2983 22.2009 64.2959 22.1944 64.2923 22.1885C64.2887 22.1827 64.284 22.1777 64.2783 22.1738L63.9848 21.9486C64.0749 21.744 64.1076 21.5189 64.0793 21.2973C64.051 21.0757 63.9629 20.8659 63.8243 20.6903C63.8208 20.681 63.8147 20.6728 63.8068 20.6667C63.7988 20.6606 63.7894 20.6569 63.7794 20.6559Z" fill="white"/>
<path d="M56.1882 20.8501C56.1793 20.8508 56.1708 20.8539 56.1635 20.859C56.1562 20.8642 56.1504 20.8712 56.1467 20.8793C56.0236 21.2209 56.0267 21.5951 56.1554 21.9347C56.0363 21.8367 55.9206 21.737 55.8101 21.6373C55.9078 21.4305 55.9458 21.2008 55.9198 20.9737C55.8939 20.7467 55.8051 20.5313 55.6634 20.3515C55.6577 20.3446 55.6503 20.3391 55.642 20.3357C55.6336 20.3323 55.6246 20.3311 55.6156 20.3321C55.6067 20.3332 55.5981 20.3364 55.5908 20.3416C55.5834 20.3468 55.5775 20.3538 55.5736 20.3619C55.4481 20.7141 55.456 21.0998 55.596 21.4465C55.4406 21.3039 55.2939 21.1646 55.1575 21.0288C55.2595 20.8208 55.3004 20.5883 55.2757 20.3582C55.251 20.128 55.1615 19.9094 55.0177 19.7276C55.0124 19.7204 55.0053 19.7149 54.997 19.7116C54.9888 19.7083 54.9798 19.7072 54.9711 19.7087C54.9621 19.709 54.9533 19.712 54.946 19.7172C54.9386 19.7223 54.933 19.7295 54.9296 19.7379C54.8033 20.0899 54.8113 20.476 54.9521 20.8225C54.7476 20.6143 54.554 20.3957 54.372 20.1676C54.3187 19.96 54.2137 19.7692 54.0668 19.6127C53.9198 19.4561 53.7356 19.339 53.5312 19.272C53.5226 19.2704 53.5138 19.2707 53.5054 19.2731C53.497 19.2755 53.4893 19.2798 53.4829 19.2858C53.4774 19.2921 53.4733 19.2995 53.4709 19.3075C53.4685 19.3155 53.4679 19.3239 53.4691 19.3322C53.6245 20.0937 54.1873 20.2261 54.3012 20.245C54.3806 20.3464 54.4738 20.4581 54.5843 20.5888C54.3141 20.4666 54.0127 20.4306 53.7211 20.4856C53.7127 20.4878 53.7049 20.4922 53.6986 20.4982C53.6922 20.5042 53.6875 20.5117 53.6849 20.52C53.6825 20.5287 53.6824 20.5378 53.6845 20.5465C53.6866 20.5552 53.6909 20.5632 53.697 20.5699C53.8441 20.7396 54.0365 20.8643 54.2519 20.9297C54.4673 20.9951 54.6969 20.9985 54.9141 20.9394C55.0125 21.0391 55.1144 21.1423 55.2231 21.2471C54.8583 21.1413 54.4679 21.1644 54.1182 21.3125C54.11 21.3163 54.1031 21.3224 54.0982 21.33C54.0933 21.3376 54.0907 21.3464 54.0906 21.3554C54.0903 21.3646 54.0923 21.3737 54.0966 21.3818C54.1008 21.3899 54.1071 21.3968 54.1148 21.4018C54.3121 21.5241 54.5381 21.5929 54.7704 21.6014C55.0027 21.6098 55.2332 21.5576 55.4389 21.45C55.5839 21.5841 55.7359 21.7199 55.8947 21.8557C55.5408 21.6971 55.1405 21.6745 54.7708 21.7921C54.7625 21.7952 54.7552 21.8005 54.7497 21.8075C54.7442 21.8144 54.7407 21.8228 54.7397 21.8316C54.7385 21.8406 54.7396 21.8497 54.743 21.8581C54.7463 21.8665 54.7517 21.874 54.7587 21.8797C54.9405 22.0261 55.1594 22.1197 55.3913 22.15C55.6231 22.1803 55.8589 22.1463 56.0725 22.0516C56.0765 22.0524 56.0806 22.0524 56.0846 22.0516C56.0907 22.0469 56.095 22.0402 56.0967 22.0327L56.2918 22.1909C56.2976 22.1985 56.3053 22.2044 56.3142 22.208C56.4195 22.2906 56.5231 22.3713 56.6301 22.4521C56.6395 22.4601 56.6515 22.4645 56.6638 22.4645C56.6762 22.4645 56.6881 22.4601 56.6975 22.4521C56.7018 22.4468 56.705 22.4407 56.7068 22.4341C56.7086 22.4275 56.709 22.4206 56.7081 22.4138C56.7071 22.407 56.7047 22.4005 56.7011 22.3947C56.6975 22.3889 56.6928 22.3839 56.6871 22.3799L56.3936 22.1548C56.4837 21.9499 56.5163 21.7245 56.4881 21.5027C56.4598 21.2808 56.3717 21.0707 56.2331 20.8947C56.2323 20.8832 56.2273 20.8722 56.219 20.864C56.2108 20.8558 56.1998 20.8509 56.1882 20.8501Z" fill="white"/>
<path d="M60.3491 13.6081C60.3401 13.6094 60.3316 13.6128 60.3243 13.6183C60.3171 13.6237 60.3113 13.6308 60.3076 13.639C60.1867 13.9812 60.1904 14.3548 60.318 14.6945C60.1989 14.5948 60.0815 14.4968 59.9727 14.3971C60.0699 14.1901 60.1075 13.9603 60.0813 13.7333C60.0551 13.5063 59.9661 13.291 59.8242 13.1113C59.8188 13.1043 59.8117 13.0987 59.8036 13.0951C59.7954 13.0915 59.7865 13.09 59.7776 13.0907C59.7685 13.0914 59.7597 13.0947 59.7524 13.1002C59.7451 13.1057 59.7394 13.1131 59.7362 13.1216C59.6106 13.4732 59.6186 13.8584 59.7586 14.2046C59.6033 14.0636 59.4548 13.9227 59.3184 13.7869C59.4203 13.5788 59.4613 13.3464 59.4366 13.1162C59.4118 12.886 59.3224 12.6675 59.1785 12.4856C59.1732 12.4785 59.1661 12.4728 59.158 12.4692C59.1498 12.4656 59.1408 12.4641 59.1319 12.465C59.1228 12.4657 59.114 12.469 59.1067 12.4745C59.0994 12.4799 59.0938 12.4874 59.0905 12.4959C58.965 12.8481 58.973 13.2339 59.113 13.5806C58.8764 13.3348 58.6796 13.1113 58.5329 12.9257C58.4801 12.7178 58.3754 12.5267 58.2283 12.37C58.0813 12.2134 57.8968 12.0965 57.6921 12.0301C57.6838 12.0286 57.6752 12.0292 57.6671 12.0317C57.659 12.0342 57.6517 12.0385 57.6456 12.0444C57.6395 12.0502 57.635 12.0575 57.6322 12.0654C57.6295 12.0734 57.6287 12.0819 57.63 12.0903C57.7853 12.8518 58.3499 12.9841 58.4621 13.003C58.5432 13.1044 58.6347 13.2162 58.7452 13.3365C58.4747 13.2157 58.1736 13.1797 57.882 13.2334C57.8735 13.236 57.8657 13.2407 57.8594 13.247C57.8531 13.2533 57.8484 13.261 57.8458 13.2695C57.8432 13.278 57.8428 13.287 57.8446 13.2957C57.8464 13.3044 57.8504 13.3125 57.8561 13.3193C58.0045 13.4878 58.1973 13.6117 58.4127 13.677C58.628 13.7423 58.8574 13.7464 59.075 13.6889C59.1716 13.7886 59.2752 13.89 59.384 13.9949C59.0184 13.8908 58.6281 13.9138 58.2774 14.0602C58.2695 14.0649 58.2629 14.0714 58.258 14.0792C58.2532 14.087 58.2504 14.0958 58.2497 14.1049C58.2496 14.1142 58.2519 14.1234 58.2565 14.1315C58.261 14.1397 58.2676 14.1465 58.2756 14.1513C58.4727 14.2735 58.6986 14.3421 58.9306 14.3503C59.1627 14.3584 59.3928 14.3058 59.5981 14.1977C59.7431 14.3335 59.8967 14.4693 60.0556 14.6051C59.7018 14.4462 59.3016 14.4229 58.9317 14.5398C58.9231 14.5433 58.9156 14.5489 58.9098 14.5561C58.9041 14.5633 58.9003 14.5719 58.8989 14.5811C58.8979 14.5902 58.8993 14.5994 58.9029 14.6078C58.9065 14.6163 58.9123 14.6236 58.9196 14.6292C59.1011 14.7756 59.3197 14.8692 59.5513 14.8995C59.7828 14.9299 60.0183 14.8958 60.2317 14.8011L60.2455 14.7925C60.2509 14.7868 60.2545 14.7796 60.2558 14.7719L60.4509 14.93C60.4573 14.9378 60.4657 14.9437 60.4751 14.9472C60.5787 15.0297 60.684 15.1105 60.791 15.1896C60.8004 15.1976 60.8123 15.2019 60.8247 15.2019C60.837 15.2019 60.849 15.1976 60.8584 15.1896C60.8666 15.1786 60.8701 15.1649 60.8682 15.1513C60.8663 15.1378 60.859 15.1256 60.848 15.1174C60.7479 15.0435 60.6512 14.9695 60.5545 14.8922C60.6446 14.6876 60.6773 14.4625 60.649 14.2409C60.6207 14.0193 60.5326 13.8095 60.394 13.6339C60.389 13.6264 60.3824 13.6201 60.3746 13.6156C60.3668 13.6111 60.3581 13.6086 60.3491 13.6081Z" fill="white"/>
<path d="M58.7088 16.8742C58.7177 16.8735 58.7263 16.8704 58.7336 16.8652C58.7408 16.8601 58.7466 16.8531 58.7503 16.845C58.8734 16.5033 58.8703 16.1292 58.7416 15.7896C58.8608 15.8875 58.9764 15.9872 59.0869 16.0869C58.9893 16.2937 58.9513 16.5235 58.9772 16.7506C59.0031 16.9776 59.0919 17.193 59.2337 17.3727C59.2393 17.3797 59.2467 17.3852 59.255 17.3885C59.2634 17.3919 59.2725 17.3932 59.2814 17.3921C59.2904 17.3911 59.2989 17.3879 59.3063 17.3827C59.3136 17.3775 59.3195 17.3705 59.3235 17.3624C59.449 17.0102 59.441 16.6245 59.301 16.2777C59.4564 16.4198 59.6031 16.5591 59.7412 16.6955C59.6393 16.9035 59.5983 17.136 59.6231 17.3661C59.6478 17.5963 59.7372 17.8149 59.8811 17.9967C59.8868 18.0037 59.8941 18.0091 59.9024 18.0125C59.9108 18.0159 59.9199 18.0172 59.9288 18.0161C59.9378 18.0151 59.9463 18.0118 59.9537 18.0066C59.961 18.0015 59.9669 17.9945 59.9709 17.9864C60.0966 17.6341 60.088 17.2481 59.9467 16.9017C60.1512 17.11 60.3448 17.3286 60.5268 17.5567C60.5801 17.7645 60.6853 17.9556 60.8326 18.1121C60.9798 18.2687 61.1644 18.3857 61.3693 18.4523C61.3776 18.4539 61.3862 18.4536 61.3943 18.4512C61.4024 18.4488 61.4098 18.4444 61.4159 18.4385C61.4218 18.4321 61.4262 18.4245 61.4286 18.4161C61.431 18.4077 61.4314 18.3989 61.4297 18.3904C61.276 17.6306 60.7115 17.4982 60.5975 17.4793C60.5181 17.3779 60.4249 17.2662 60.3144 17.1355C60.5846 17.2576 60.8861 17.2937 61.1776 17.2387C61.1861 17.2364 61.1939 17.2321 61.2002 17.2261C61.2065 17.2201 61.2112 17.2126 61.2139 17.2043C61.2162 17.1956 61.2164 17.1865 61.2143 17.1778C61.2121 17.1691 61.2079 17.1611 61.2018 17.1544C61.0546 16.9847 60.8622 16.86 60.6469 16.7946C60.4315 16.7292 60.2019 16.7258 59.9847 16.7848C59.888 16.6851 59.7844 16.582 59.6756 16.4771C60.0405 16.5829 60.4308 16.5599 60.7805 16.4118C60.7889 16.4077 60.7959 16.4013 60.8007 16.3934C60.8056 16.3855 60.8082 16.3764 60.8082 16.3671C60.8087 16.3582 60.8068 16.3493 60.8025 16.3414C60.7982 16.3335 60.7918 16.3269 60.784 16.3224C60.5867 16.2001 60.3606 16.1314 60.1284 16.1229C59.8961 16.1145 59.6656 16.1667 59.4598 16.2743C59.3148 16.1402 59.1629 16.0044 59.0041 15.8686C59.3582 16.0264 59.7582 16.049 60.128 15.9322C60.1363 15.9291 60.1436 15.9238 60.1491 15.9168C60.1546 15.9098 60.158 15.9015 60.159 15.8927C60.1606 15.8837 60.1596 15.8745 60.1563 15.866C60.153 15.8575 60.1473 15.8501 60.14 15.8446C59.9585 15.6976 59.7396 15.6038 59.5076 15.5734C59.2756 15.5431 59.0398 15.5774 58.8262 15.6727C58.8223 15.6719 58.8181 15.6719 58.8142 15.6727C58.8091 15.6783 58.8051 15.6847 58.8021 15.6916L58.607 15.5334C58.6016 15.5254 58.5937 15.5194 58.5845 15.5162C58.481 15.4337 58.3756 15.3443 58.2686 15.2721C58.2592 15.2642 58.2473 15.2598 58.2349 15.2598C58.2226 15.2598 58.2107 15.2642 58.2013 15.2721C58.193 15.2831 58.1895 15.2968 58.1914 15.3104C58.1934 15.3239 58.2006 15.3361 58.2116 15.3443L58.5051 15.5695C58.4151 15.7744 58.3824 15.9997 58.4107 16.2216C58.439 16.4435 58.5271 16.6536 58.6657 16.8295C58.6673 16.8405 58.6723 16.8508 58.6801 16.8588C58.6878 16.8668 58.6979 16.8722 58.7088 16.8742Z" fill="white"/>
</g>
</g>
<path d="M59.4667 18.3526L47.8997 19.5147C47.5912 19.5459 47.3077 19.6978 47.1116 19.9369C46.9154 20.1761 46.8226 20.4829 46.8535 20.7902L47.2505 24.7283C47.5518 24.5158 47.9038 24.3856 48.2713 24.3507C48.6389 24.3159 49.0092 24.3777 49.3453 24.5298C49.6815 24.682 49.9716 24.9193 50.1869 25.218C50.4021 25.5167 50.535 25.8664 50.5721 26.2322C50.6092 26.5979 50.5494 26.967 50.3985 27.3026C50.2477 27.6381 50.0111 27.9284 49.7123 28.1445C49.4136 28.3606 49.0632 28.4949 48.696 28.534C48.3289 28.5731 47.9579 28.5157 47.62 28.3674L48.0188 32.3056C48.0506 32.6127 48.2032 32.8948 48.4432 33.0903C48.6832 33.2858 48.9912 33.3788 49.2998 33.349L60.8668 32.1887C61.1754 32.1566 61.4587 32.0043 61.655 31.765C61.8513 31.5258 61.9447 31.219 61.9148 30.9115L60.7494 19.3943C60.7167 19.0874 60.5636 18.8057 60.3234 18.6106C60.0831 18.4155 59.7753 18.3228 59.4667 18.3526Z" fill="#FFCA40"/>
<path opacity="0.3" d="M59.4667 18.3526L47.8997 19.5147C47.5912 19.5459 47.3077 19.6978 47.1116 19.9369C46.9154 20.1761 46.8226 20.4829 46.8535 20.7902L47.2505 24.7283C47.5518 24.5158 47.9038 24.3856 48.2713 24.3507C48.6389 24.3159 49.0092 24.3777 49.3453 24.5298C49.6815 24.682 49.9716 24.9193 50.1869 25.218C50.4021 25.5167 50.535 25.8664 50.5721 26.2322C50.6092 26.5979 50.5494 26.967 50.3985 27.3026C50.2477 27.6381 50.0111 27.9284 49.7123 28.1445C49.4136 28.3606 49.0632 28.4949 48.696 28.534C48.3289 28.5731 47.9579 28.5157 47.62 28.3674L48.0188 32.3056C48.0506 32.6127 48.2032 32.8948 48.4432 33.0903C48.6832 33.2858 48.9912 33.3788 49.2998 33.349L60.8668 32.1887C61.1754 32.1566 61.4587 32.0043 61.655 31.765C61.8513 31.5258 61.9447 31.219 61.9148 30.9115L60.7494 19.3943C60.7167 19.0874 60.5636 18.8057 60.3234 18.6106C60.0831 18.4155 59.7753 18.3228 59.4667 18.3526Z" fill="black"/>
<path d="M62.6225 21.8854L62.0873 21.6533L60.8304 21.9731C60.6864 22.0106 60.5589 22.0946 60.4679 22.212L60.202 22.5558C60.1454 22.6311 60.1167 22.7236 60.1207 22.8176C60.1248 22.9116 60.1615 23.0013 60.2245 23.0715L60.5249 23.4015C60.5969 23.4801 60.6969 23.5277 60.8036 23.5341C60.9103 23.5405 61.0153 23.5053 61.0963 23.4359L61.7782 22.8532C61.7782 22.8532 62.6 22.4698 62.6225 21.8854Z" fill="#FFB573"/>
<path d="M51.7273 19.7382L52.2832 19.6678C52.3581 19.6593 52.4282 19.6267 52.4828 19.5749C52.5373 19.523 52.5733 19.4548 52.5853 19.3807L52.6613 18.9406C52.6714 18.8882 52.6692 18.8342 52.6547 18.7828C52.6403 18.7314 52.614 18.6841 52.578 18.6445C52.542 18.605 52.4972 18.5744 52.4472 18.5551C52.3973 18.5357 52.3435 18.5283 52.2901 18.5332L51.641 18.5796C51.5497 18.5845 51.464 18.6253 51.4028 18.693C51.3417 18.7606 51.31 18.8497 51.3147 18.9406L51.3319 19.4048C51.3329 19.4535 51.3443 19.5016 51.3653 19.5457C51.3863 19.5897 51.4166 19.6289 51.454 19.6604C51.4914 19.6919 51.5351 19.7152 51.5822 19.7286C51.6293 19.742 51.6788 19.7453 51.7273 19.7382Z" fill="#FFB573"/>
<path d="M60.3783 7.10586C59.0075 7.79346 56.5991 7.47716 56.5991 7.47716C56.5991 7.47716 57.9423 5.29062 60.3783 7.10586Z" fill="#263238"/>
<path d="M36.2567 50.7192L35.5679 54.2896L33.8242 53.8701L34.5131 50.2998L36.2567 50.7192Z" fill="#7F3E3B"/>
<path d="M33.8794 53.1446L35.8182 53.564C35.8482 53.5698 35.875 53.5867 35.8932 53.6112C35.9114 53.6357 35.9198 53.666 35.9166 53.6964L35.7819 55.1145C35.7775 55.1501 35.7656 55.1844 35.7471 55.2151C35.7286 55.2459 35.7039 55.2725 35.6745 55.2932C35.6451 55.3139 35.6117 55.3283 35.5764 55.3354C35.5411 55.3425 35.5046 55.3422 35.4695 55.3345C34.86 55.1919 34.6788 55.1025 33.9071 54.9357C33.0076 54.7381 32.6882 54.7913 31.6316 54.561C30.9929 54.4218 31.0222 53.7548 31.3088 53.7531C32.0657 53.7549 32.8096 53.5574 33.4651 53.1807C33.5936 53.1166 33.7417 53.1037 33.8794 53.1446Z" fill="#263238"/>
<path opacity="0.2" d="M36.2585 50.721L35.9029 52.5603L34.1575 52.1408L34.5131 50.2998L36.2585 50.721Z" fill="black"/>
<path d="M39.2918 36.9687C41.3376 30.9764 42.957 23.9045 42.957 23.9045L37.1217 23.5366C37.1217 23.5366 36.2585 32.7125 35.813 36.9447C35.3469 41.3418 33.8984 51.2689 33.8984 51.2689L36.5312 51.8001C36.5312 51.8001 39 42.4523 39.2918 36.9687Z" fill="#263238"/>
<path opacity="0.2" d="M40.2654 27.2397L41.681 28.9828C41.3202 30.3287 40.899 31.8415 40.4363 33.3868C40.1708 31.3488 40.1135 29.2893 40.2654 27.2397Z" fill="#263238"/>
<path d="M33.9364 51.642L36.3534 52.168C36.4016 52.1787 36.452 52.1712 36.495 52.1471C36.538 52.123 36.5706 52.0839 36.5864 52.0374L36.8523 51.2621C36.8615 51.2359 36.865 51.208 36.8627 51.1802C36.8603 51.1525 36.8521 51.1256 36.8386 51.1013C36.825 51.077 36.8065 51.0557 36.7842 51.039C36.7619 51.0223 36.7362 51.0105 36.709 51.0043L34.0866 50.394C34.059 50.3875 34.0304 50.3869 34.0025 50.3923C33.9747 50.3976 33.9483 50.4088 33.9251 50.425C33.902 50.4413 33.8825 50.4623 33.8681 50.4865C33.8537 50.5108 33.8446 50.5379 33.8414 50.5659L33.781 51.4254C33.7756 51.4742 33.7884 51.5233 33.8171 51.5633C33.8458 51.6033 33.8882 51.6313 33.9364 51.642Z" fill="#263238"/>
<path opacity="0.1" d="M33.9364 51.642L36.3534 52.168C36.4016 52.1787 36.452 52.1712 36.495 52.1471C36.538 52.123 36.5706 52.0839 36.5864 52.0374L36.8523 51.2621C36.8615 51.2359 36.865 51.208 36.8627 51.1802C36.8603 51.1525 36.8521 51.1256 36.8386 51.1013C36.825 51.077 36.8065 51.0557 36.7842 51.039C36.7619 51.0223 36.7362 51.0105 36.709 51.0043L34.0866 50.394C34.059 50.3875 34.0304 50.3869 34.0025 50.3923C33.9747 50.3976 33.9483 50.4088 33.9251 50.425C33.902 50.4413 33.8825 50.4623 33.8681 50.4865C33.8537 50.5108 33.8446 50.5379 33.8414 50.5659L33.781 51.4254C33.7756 51.4742 33.7884 51.5233 33.8171 51.5633C33.8458 51.6033 33.8882 51.6313 33.9364 51.642Z" fill="white"/>
<path d="M45.8555 50.5954L45.9643 54.2791L44.1947 54.2551L44.0859 50.5713L45.8555 50.5954Z" fill="#7F3E3B"/>
<path d="M44.15 53.4986L46.0318 53.5261C46.0623 53.526 46.0918 53.5372 46.1145 53.5575C46.1371 53.5779 46.1514 53.6059 46.1544 53.6362L46.3063 55.0526C46.3092 55.0884 46.3045 55.1245 46.2926 55.1584C46.2807 55.1924 46.2617 55.2235 46.237 55.2497C46.2123 55.2759 46.1824 55.2967 46.1491 55.3107C46.1158 55.3247 46.08 55.3317 46.0439 55.3311C45.4189 55.3122 45.2221 55.2606 44.4331 55.2486C43.5112 55.2331 43.3127 55.3483 42.232 55.3328C41.5776 55.3225 41.4723 54.6624 41.752 54.6039C42.4946 54.4562 43.1848 54.1158 43.7529 53.6173C43.8653 53.5288 44.0073 53.4864 44.15 53.4986Z" fill="#263238"/>
<path opacity="0.2" d="M45.8572 50.5971L45.9125 52.4948L44.1412 52.4708L44.0859 50.5713L45.8572 50.5971Z" fill="black"/>
<path d="M45.4154 36.8468C44.9147 30.5433 45.3377 27.1432 44.6022 24.0129L39.2917 23.6846C39.2917 23.6846 40.9405 32.9499 41.8503 37.1407C42.7601 41.3316 43.739 51.5114 43.739 51.5114L46.3494 51.5441C46.3494 51.5441 46.6687 41.7648 45.4154 36.8468Z" fill="#263238"/>
<path d="M43.7461 51.9791L46.2166 52.0169C46.2677 52.0175 46.3171 51.9986 46.3546 51.9641C46.3922 51.9295 46.4151 51.882 46.4186 51.8313L46.4721 51.0199C46.4742 50.9931 46.4708 50.9662 46.4621 50.9407C46.4534 50.9153 46.4396 50.8918 46.4215 50.8719C46.4034 50.8519 46.3814 50.8359 46.3569 50.8247C46.3323 50.8135 46.3057 50.8074 46.2787 50.8068L43.5907 50.7242C43.5608 50.7232 43.5311 50.7288 43.5037 50.7408C43.4763 50.7528 43.452 50.7708 43.4326 50.7934C43.4132 50.8161 43.3991 50.8428 43.3915 50.8716C43.3839 50.9004 43.383 50.9305 43.3887 50.9597L43.5613 51.8192C43.5706 51.8622 43.5936 51.901 43.6269 51.9299C43.6602 51.9587 43.702 51.976 43.7461 51.9791Z" fill="#263238"/>
<path opacity="0.1" d="M43.7461 51.9791L46.2166 52.0169C46.2677 52.0175 46.3171 51.9986 46.3546 51.9641C46.3922 51.9295 46.4151 51.882 46.4186 51.8313L46.4721 51.0199C46.4742 50.9931 46.4708 50.9662 46.4621 50.9407C46.4534 50.9153 46.4396 50.8918 46.4215 50.8719C46.4034 50.8519 46.3814 50.8359 46.3569 50.8247C46.3323 50.8135 46.3057 50.8074 46.2787 50.8068L43.5907 50.7242C43.5608 50.7232 43.5311 50.7288 43.5037 50.7408C43.4763 50.7528 43.452 50.7708 43.4326 50.7934C43.4132 50.8161 43.3991 50.8428 43.3915 50.8716C43.3839 50.9004 43.383 50.9305 43.3887 50.9597L43.5613 51.8192C43.5706 51.8622 43.5936 51.901 43.6269 51.9299C43.6602 51.9587 43.702 51.976 43.7461 51.9791Z" fill="white"/>
<path d="M39.1208 13.9878C38.9171 14.4261 38.7048 14.8146 38.4734 15.2151C38.2421 15.6156 37.9987 16.0041 37.7293 16.3857C37.457 16.7797 37.1595 17.1558 36.8385 17.5117C36.4823 17.9213 36.0648 18.2739 35.6007 18.5568L35.5402 18.5912C35.437 18.6516 35.3221 18.6896 35.2031 18.7027C35.0841 18.7157 34.9636 18.7035 34.8497 18.6668C34.513 18.5585 34.1867 18.4365 33.8673 18.3058C33.548 18.1752 33.2372 18.0308 32.9316 17.8795C32.6261 17.7282 32.3274 17.5684 32.0339 17.3965C31.7404 17.2246 31.4538 17.0527 31.1707 16.8447C31.0693 16.7731 30.9962 16.6686 30.964 16.549C30.9318 16.4295 30.9425 16.3026 30.9943 16.1901C31.0461 16.0776 31.1357 15.9867 31.2476 15.9329C31.3596 15.8792 31.4868 15.8661 31.6075 15.8958H31.6265C31.9355 15.9697 32.2549 16.0591 32.5656 16.1399L33.4996 16.3857C33.8086 16.47 34.1194 16.5404 34.425 16.6161C34.7306 16.6917 35.0361 16.7501 35.3365 16.812L34.5924 16.9238C34.8509 16.7103 35.0828 16.4668 35.283 16.1984C35.5195 15.8958 35.7474 15.5623 35.9736 15.2185C36.1997 14.8747 36.4052 14.5155 36.6089 14.1511C36.8126 13.7866 37.0198 13.4102 37.2028 13.0629L37.2131 13.044C37.3508 12.8158 37.5697 12.6476 37.8262 12.5729C38.0828 12.4981 38.3582 12.5223 38.5977 12.6407C38.8371 12.759 39.0231 12.9628 39.1184 13.2115C39.2137 13.4602 39.2115 13.7355 39.1122 13.9826L39.1208 13.9878Z" fill="#7F3E3B"/>
<path d="M39.5456 10.9831C37.4843 11.2168 35.9202 14.3952 35.9202 14.3952L38.0471 16.6488C38.0471 16.6488 38.9949 15.5246 40.0135 14.103C41.1253 12.5542 41.1771 10.7991 39.5456 10.9831Z" fill="#FFCA40"/>
<path d="M39.2917 11.4593C40.0842 11.1791 43.6337 11.6312 43.6337 11.6312C42.9431 12.5182 42.3665 19.8633 42.3026 24.0852C41.5482 24.1883 38.6547 23.9906 37.9866 23.8359C38.0729 22.1788 38.7669 14.4056 39.2917 11.4593Z" fill="white"/>
<path d="M37.0007 13.687C37.0938 12.9231 37.4655 12.22 38.0451 11.711C38.6246 11.2021 39.3718 10.9228 40.1445 10.9263C41.6276 10.9381 43.1056 11.1005 44.5555 11.4111C44.7814 11.4586 44.9953 11.5508 45.1847 11.6822C45.3742 11.8136 45.5352 11.9814 45.6583 12.1758C45.7815 12.3702 45.8642 12.5872 45.9016 12.814C45.939 13.0408 45.9304 13.2728 45.8763 13.4962C44.7834 18.0601 45.0717 22.3902 44.78 24.4048C43.7398 24.7856 42.635 24.9608 41.5274 24.9205C41.5274 24.9205 41.5533 23.1826 41.7967 20.2483C41.9901 17.9157 42.3371 12.4304 43.0518 11.5194C43.0518 11.5194 40.4898 11.1756 39.6974 11.4523C39.1087 14.7613 38.6771 24.7847 38.6771 24.7864C37.4237 24.697 36.8333 24.0026 36.8523 23.7963C36.5985 19.7412 36.7262 16.0643 37.0007 13.687Z" fill="#FFCA40"/>
<path d="M43.1435 8.61084C42.9035 9.29843 42.6256 10.5172 43.0693 11.2013C43.0918 11.2331 43.1069 11.2695 43.1136 11.3078C43.1203 11.3461 43.1184 11.3854 43.108 11.4229C43.0976 11.4604 43.079 11.4951 43.0535 11.5246C43.028 11.554 42.9962 11.5775 42.9605 11.5933C42.2474 12.0029 41.4232 12.1796 40.604 12.0986C39.4904 12.0093 39.5681 11.509 39.8547 11.1842C39.9224 11.1091 40.0162 11.0624 40.1171 11.0535C41.1685 10.928 41.1789 10.2972 41.0269 9.67833L43.1435 8.61084Z" fill="#7F3E3B"/>
<path opacity="0.2" d="M42.2802 9.04932L41.0286 9.68362C41.0682 9.83012 41.0908 9.98065 41.0959 10.1323C41.5517 10.1323 42.1973 9.82801 42.2716 9.47906C42.3097 9.33867 42.3127 9.19111 42.2802 9.04932Z" fill="black"/>
<path d="M41.4744 6.22119C41.5214 5.60112 41.1827 5.07011 40.7177 5.03514C40.2528 5.00017 39.8378 5.47449 39.7907 6.09456C39.7437 6.71462 40.0825 7.24563 40.5474 7.2806C41.0123 7.31557 41.4273 6.84126 41.4744 6.22119Z" fill="#263238"/>
<path d="M43.8202 6.73201C43.5889 8.08828 43.5216 8.89448 42.7654 9.52535C41.6277 10.4725 40.0308 9.67146 39.8581 8.27393C39.701 7.01736 40.105 5.00787 41.4827 4.60219C42.8604 4.19652 44.0516 5.37402 43.8202 6.73201Z" fill="#7F3E3B"/>
<path d="M43.5234 7.87876C43.5061 7.87876 43.4854 7.85641 43.4664 7.86672C42.8484 8.21052 42.6481 7.47136 42.6861 6.97973C42.6988 6.81573 42.7461 6.65623 42.8249 6.51168C42.9038 6.36713 43.0124 6.24077 43.1436 6.14087C42.4737 6.2165 41.8246 5.78676 41.8142 5.38624C41.0736 5.71112 40.1811 5.73003 39.7788 5.04244C39.3765 4.35485 39.9514 3.45582 40.718 3.69476C40.4072 3.14125 41.721 2.03423 43.097 3.66726C43.1401 2.48288 45.0634 3.66726 44.7474 4.83101C45.6383 5.13699 46.4013 6.82158 44.8907 7.18085C44.7906 8.74168 43.5234 7.87876 43.5234 7.87876Z" fill="#263238"/>
<path d="M44.2518 8.30491C44.0427 8.56038 43.7441 8.72745 43.4162 8.77248C43.0019 8.81889 42.9104 8.39946 43.1227 8.01784C43.3143 7.67405 43.7598 7.23743 44.1292 7.37151C44.4987 7.50559 44.5211 7.97831 44.2518 8.30491Z" fill="#7F3E3B"/>
<path d="M41.8453 6.83357C41.8349 6.94709 41.7675 7.03138 41.6932 7.0245C41.6189 7.01762 41.5671 6.92129 41.5775 6.80777C41.5879 6.69425 41.6552 6.61168 41.7295 6.61856C41.8038 6.62544 41.8539 6.72177 41.8453 6.83357Z" fill="#263238"/>
<path d="M40.5075 6.68586C40.4971 6.79766 40.4298 6.88195 40.3555 6.87507C40.2812 6.86819 40.2311 6.77186 40.2397 6.66006C40.2484 6.54826 40.3175 6.46226 40.3918 6.46914C40.466 6.47602 40.5248 6.57234 40.5075 6.68586Z" fill="#263238"/>
<path d="M41.0305 6.74951C40.8655 7.07906 40.6558 7.38446 40.4072 7.65713C40.4788 7.71929 40.5632 7.76518 40.6544 7.7916C40.7457 7.81802 40.8416 7.82434 40.9355 7.81012L41.0305 6.74951Z" fill="#630F0F"/>
<path d="M41.2841 8.35661C41.4094 8.36537 41.5353 8.34871 41.654 8.30764C41.7727 8.26657 41.8818 8.20194 41.9747 8.11767C41.9777 8.11451 41.9801 8.11078 41.9817 8.1067C41.9833 8.10261 41.9841 8.09825 41.9841 8.09386C41.984 8.08947 41.983 8.08514 41.9813 8.08111C41.9795 8.07709 41.977 8.07345 41.9738 8.0704C41.9706 8.06735 41.9669 8.06496 41.9628 8.06335C41.9587 8.06175 41.9543 8.06096 41.9499 8.06104C41.9455 8.06112 41.9411 8.06206 41.9371 8.06382C41.933 8.06557 41.9294 8.0681 41.9263 8.07126C41.8212 8.16388 41.6955 8.2304 41.5595 8.26535C41.4236 8.30031 41.2813 8.30272 41.1442 8.27238C41.14 8.27138 41.1357 8.27127 41.1314 8.27205C41.1271 8.27283 41.1231 8.27449 41.1195 8.27691C41.116 8.27934 41.1129 8.28249 41.1106 8.28615C41.1084 8.2898 41.1069 8.2939 41.1063 8.29817C41.1047 8.3068 41.1065 8.31571 41.1113 8.32306C41.1161 8.33041 41.1236 8.33565 41.1322 8.3377C41.1874 8.3463 41.2357 8.35317 41.2841 8.35661Z" fill="#263238"/>
<path d="M42.2875 6.56042C42.2983 6.56292 42.3095 6.56292 42.3203 6.56042C42.3283 6.5569 42.3356 6.55181 42.3416 6.54546C42.3476 6.53911 42.3523 6.53163 42.3553 6.52345C42.3584 6.51528 42.3598 6.50658 42.3594 6.49786C42.359 6.48914 42.3569 6.48059 42.3531 6.4727C42.3126 6.37539 42.2495 6.28899 42.169 6.22054C42.0886 6.1521 41.993 6.10353 41.8902 6.07881C41.8728 6.07632 41.8551 6.08068 41.8409 6.09096C41.8267 6.10124 41.8171 6.11663 41.8142 6.13385C41.8117 6.15115 41.816 6.16874 41.8264 6.18288C41.8367 6.19701 41.8521 6.20658 41.8694 6.20954C41.9506 6.23036 42.0256 6.26984 42.0886 6.32481C42.1516 6.37978 42.2008 6.4487 42.2322 6.52602C42.238 6.53575 42.246 6.54395 42.2556 6.54993C42.2653 6.55592 42.2762 6.55952 42.2875 6.56042Z" fill="#263238"/>
<path d="M39.9462 6.13738C39.957 6.14022 39.9682 6.14045 39.979 6.13806C39.9899 6.13566 39.9999 6.13071 40.0084 6.12362C40.07 6.06807 40.1438 6.02776 40.224 6.00594C40.3041 5.98412 40.3883 5.98142 40.4697 5.99805C40.4864 6.00283 40.5043 6.00081 40.5196 5.99242C40.5348 5.98404 40.546 5.96998 40.5509 5.95333C40.5557 5.93646 40.5537 5.91836 40.5453 5.90292C40.5369 5.88749 40.5228 5.87594 40.506 5.87077C40.4032 5.84746 40.2963 5.84921 40.1943 5.87586C40.0923 5.90251 39.9984 5.95328 39.9203 6.02385C39.9142 6.02993 39.9093 6.03716 39.9059 6.04513C39.9026 6.05311 39.9009 6.06166 39.9009 6.07029C39.9009 6.07893 39.9026 6.08748 39.9059 6.09545C39.9093 6.10342 39.9142 6.11066 39.9203 6.11674C39.9269 6.12583 39.9359 6.13296 39.9462 6.13738Z" fill="#263238"/>
<path d="M46.2874 13.4034C46.3996 13.6217 46.4911 13.8108 46.5809 14.0153C46.6707 14.2199 46.7536 14.4176 46.8433 14.6204C47.016 15.0261 47.1662 15.4386 47.3077 15.8564C47.5957 16.7012 47.8162 17.5674 47.9672 18.4469L48.0138 18.7907L48.038 18.9626V19.0038V19.0794C48.038 19.1345 48.0466 19.1895 48.0466 19.2513C48.04 19.5647 47.9774 19.8743 47.8619 20.1658C47.69 20.611 47.4713 21.0368 47.2093 21.4362C46.9716 21.81 46.714 22.1709 46.4376 22.5174C46.1668 22.8623 45.8787 23.1933 45.5744 23.5093C45.487 23.6014 45.3692 23.6593 45.2425 23.6723C45.1158 23.6853 44.9886 23.6527 44.8841 23.5802C44.7796 23.5078 44.7046 23.4004 44.6729 23.2776C44.6412 23.1548 44.6548 23.0247 44.7112 22.911V22.8973C45.0686 22.1564 45.4467 21.4069 45.7471 20.6764C45.8247 20.4942 45.8938 20.312 45.9542 20.1349C46.0144 19.9696 46.0645 19.8008 46.1044 19.6295C46.1324 19.523 46.1423 19.4126 46.1338 19.3029L46.1251 19.2685L46.0923 19.1259L46.0285 18.8422C45.8293 18.0725 45.5855 17.3148 45.2982 16.5732C45.1601 16.195 45.003 15.822 44.851 15.4472C44.7751 15.2616 44.6939 15.0759 44.6128 14.892L44.3711 14.3557L44.3573 14.3247C44.2359 14.0717 44.2205 13.7811 44.3144 13.5167C44.4083 13.2524 44.6038 13.036 44.8579 12.9152C45.1121 12.7944 45.404 12.779 45.6695 12.8725C45.935 12.966 46.1523 13.1607 46.2736 13.4137L46.2874 13.4034Z" fill="#7F3E3B"/>
<path d="M44.7335 11.4591C47.0331 12.0367 47.6684 14.9641 47.6684 14.9641L44.8129 17.0029C44.8129 17.0029 44.1051 16.2654 43.891 14.5327C43.7926 13.7059 44.2674 11.4368 44.7335 11.4591Z" fill="#FFCA40"/>
<path d="M45.0874 22.5469L43.7581 23.0419L44.7766 24.3999C44.7766 24.3999 45.9247 23.8069 45.7072 23.1485L45.0874 22.5469Z" fill="#7F3E3B"/>
<path d="M42.7688 23.2342C42.4108 23.1743 42.0433 23.2075 41.7019 23.3305L42.3614 19.4284C42.4124 19.1237 42.34 18.8113 42.16 18.5597C41.9801 18.308 41.7073 18.1377 41.4015 18.0859L29.9381 16.1641C29.6326 16.1138 29.3195 16.1859 29.0672 16.3646C28.8149 16.5434 28.6439 16.8142 28.5915 17.1181L27.9216 21.0288C28.2626 20.9041 28.6306 20.8709 28.9885 20.9325C29.3068 20.9857 29.6087 21.1109 29.8708 21.2985C30.1329 21.486 30.3482 21.731 30.5003 22.0144C30.6524 22.2979 30.7371 22.6123 30.748 22.9335C30.7588 23.2547 30.6955 23.5741 30.5629 23.8671C30.4303 24.1601 30.232 24.4189 29.9832 24.6236C29.7343 24.8283 29.4416 24.9734 29.1276 25.0478C28.8136 25.1221 28.4867 25.1238 28.1719 25.0525C27.8572 24.9813 27.5631 24.8391 27.3122 24.6369L26.651 28.539C26.6 28.8437 26.6724 29.1561 26.8523 29.4078C27.0322 29.6594 27.305 29.8298 27.6108 29.8815L39.0743 31.8034C39.38 31.8537 39.6933 31.7816 39.9459 31.6029C40.1984 31.4242 40.3698 31.1533 40.4226 30.8493L41.0821 26.9455C41.3333 27.1445 41.6268 27.2838 41.9402 27.3528C42.2536 27.4218 42.5787 27.4186 42.8907 27.3436C43.2027 27.2686 43.4934 27.1237 43.7407 26.9199C43.988 26.7162 44.1853 26.4589 44.3176 26.1677C44.4499 25.8766 44.5138 25.5592 44.5043 25.2397C44.4949 24.9202 44.4123 24.6071 44.2629 24.3243C44.1136 24.0414 43.9014 23.7961 43.6424 23.6073C43.3835 23.4184 43.0847 23.2908 42.7688 23.2342Z" fill="#FFCA40"/>
<path opacity="0.6" d="M42.7688 23.2342C42.4108 23.1743 42.0433 23.2075 41.7019 23.3305L42.3614 19.4284C42.4124 19.1237 42.34 18.8113 42.16 18.5597C41.9801 18.308 41.7073 18.1377 41.4015 18.0859L29.9381 16.1641C29.6326 16.1138 29.3195 16.1859 29.0672 16.3646C28.8149 16.5434 28.6439 16.8142 28.5915 17.1181L27.9216 21.0288C28.2626 20.9041 28.6306 20.8709 28.9885 20.9325C29.3068 20.9857 29.6087 21.1109 29.8708 21.2985C30.1329 21.486 30.3482 21.731 30.5003 22.0144C30.6524 22.2979 30.7371 22.6123 30.748 22.9335C30.7588 23.2547 30.6955 23.5741 30.5629 23.8671C30.4303 24.1601 30.232 24.4189 29.9832 24.6236C29.7343 24.8283 29.4416 24.9734 29.1276 25.0478C28.8136 25.1221 28.4867 25.1238 28.1719 25.0525C27.8572 24.9813 27.5631 24.8391 27.3122 24.6369L26.651 28.539C26.6 28.8437 26.6724 29.1561 26.8523 29.4078C27.0322 29.6594 27.305 29.8298 27.6108 29.8815L39.0743 31.8034C39.38 31.8537 39.6933 31.7816 39.9459 31.6029C40.1984 31.4242 40.3698 31.1533 40.4226 30.8493L41.0821 26.9455C41.3333 27.1445 41.6268 27.2838 41.9402 27.3528C42.2536 27.4218 42.5787 27.4186 42.8907 27.3436C43.2027 27.2686 43.4934 27.1237 43.7407 26.9199C43.988 26.7162 44.1853 26.4589 44.3176 26.1677C44.4499 25.8766 44.5138 25.5592 44.5043 25.2397C44.4949 24.9202 44.4123 24.6071 44.2629 24.3243C44.1136 24.0414 43.9014 23.7961 43.6424 23.6073C43.3835 23.4184 43.0847 23.2908 42.7688 23.2342Z" fill="white"/>
<path d="M43.1366 24.3756L43.5733 24.7916C43.6574 24.8722 43.7676 24.9202 43.884 24.9271C44.0004 24.9341 44.1156 24.8994 44.2087 24.8295L44.7767 24.4049L43.7581 23.0469L43.1279 23.676C43.0815 23.7221 43.0449 23.7769 43.0202 23.8373C42.9954 23.8977 42.9831 23.9624 42.9839 24.0276C42.9847 24.0929 42.9987 24.1573 43.0249 24.217C43.0511 24.2768 43.0891 24.3307 43.1366 24.3756Z" fill="#7F3E3B"/>
<path d="M30.3386 16.5303L30.4975 15.9442C30.5241 15.8752 30.5716 15.8163 30.6336 15.7756C30.6955 15.7349 30.7686 15.7145 30.8427 15.7173C31.0677 15.7081 31.2922 15.7426 31.504 15.8187L32.4017 16.1487L32.3585 16.5131C32.3223 16.826 31.9718 17.0873 31.5747 17.0993C31.3082 17.1029 31.0421 17.0746 30.7823 17.0151L30.6856 16.9945C30.6306 16.9906 30.577 16.9749 30.5286 16.9486C30.4802 16.9222 30.4381 16.8857 30.4052 16.8417C30.3722 16.7976 30.3492 16.747 30.3377 16.6932C30.3263 16.6395 30.3266 16.5839 30.3386 16.5303Z" fill="#7F3E3B"/>
<path d="M16.1977 8.43911C16.7726 7.77386 17.6375 6.04629 16.0112 5.3862C14.8114 4.89801 12.2649 5.14726 10.8026 7.4146C9.80302 7.75839 9.50781 9.97244 11.816 10.4383C14.1243 10.9041 16.1977 8.43911 16.1977 8.43911Z" fill="#263238"/>
<path d="M21.4131 51.0957L18.7751 51.314L19.2223 54.4013L21.4269 54.2225L21.4131 51.0957Z" fill="#FFC3BD"/>
<path opacity="0.2" d="M21.4131 51.0977L18.7734 51.316L19.0255 53.0453L21.4218 52.8476L21.4131 51.0977Z" fill="black"/>
<path d="M16.3703 42.0072C15.3345 38.0535 12.6516 33.347 14.3521 29.5429L21.7429 29.5205C21.7429 29.5205 21.9259 37.3505 21.9777 41.0377C22.0295 44.8933 21.7067 52.1474 21.7067 52.1474L18.6837 52.376C18.6837 52.376 16.612 46.4404 16.3703 42.0072Z" fill="#FFCA40"/>
<path d="M18.5334 52.495L21.7998 52.256C21.8276 52.2536 21.8537 52.2414 21.8734 52.2216C21.893 52.2017 21.9048 52.1755 21.9068 52.1477L21.9759 50.9444C21.977 50.9277 21.9744 50.911 21.9683 50.8954C21.9622 50.8798 21.9527 50.8658 21.9405 50.8543C21.9283 50.8428 21.9137 50.8341 21.8977 50.8289C21.8817 50.8237 21.8648 50.822 21.8481 50.8241L18.2226 51.3037C18.2061 51.3055 18.1903 51.3109 18.1761 51.3195C18.162 51.3281 18.15 51.3398 18.1409 51.3536C18.1318 51.3674 18.1259 51.383 18.1236 51.3994C18.1213 51.4157 18.1227 51.4324 18.1277 51.4481L18.4142 52.4142C18.4223 52.4389 18.4383 52.4603 18.4599 52.4749C18.4815 52.4895 18.5073 52.4966 18.5334 52.495Z" fill="#263238"/>
<path opacity="0.2" d="M14.3261 33.2853C14.2975 34.2191 14.3356 35.1537 14.4401 36.0821C14.8009 37.3249 15.2618 38.5695 15.6762 39.7762C16.2183 36.3589 16.22 32.376 14.3261 33.2853Z" fill="black"/>
<path d="M11.6486 51.2881L9.00028 51.3139L8.99683 54.4252L11.2101 54.408L11.6486 51.2881Z" fill="#FFC3BD"/>
<path d="M8.78796 53.9476C8.79056 53.9302 8.79678 53.9136 8.80621 53.8989C8.81563 53.8841 8.82806 53.8714 8.8427 53.8617C8.85733 53.852 8.87385 53.8454 8.89118 53.8424C8.90852 53.8395 8.92628 53.8401 8.94334 53.8444C9.60801 54.1074 10.8683 53.9063 11.3448 53.8152C11.3974 53.8044 11.4516 53.8044 11.5042 53.8154C11.5568 53.8263 11.6065 53.8479 11.6504 53.8788C12.0401 54.1278 12.4625 54.3221 12.9055 54.4564C13.0005 54.7093 13.0244 54.9833 12.9745 55.2488H8.51001C8.63597 54.8228 8.7289 54.3878 8.78796 53.9476Z" fill="#263238"/>
<path d="M18.9305 53.9476C18.9331 53.9302 18.9394 53.9136 18.9488 53.8989C18.9582 53.8841 18.9706 53.8714 18.9853 53.8617C18.9999 53.852 19.0164 53.8454 19.0338 53.8424C19.0511 53.8395 19.0689 53.8401 19.0859 53.8444C19.7506 54.1074 21.0109 53.9063 21.4874 53.8152C21.54 53.8044 21.5942 53.8044 21.6468 53.8154C21.6994 53.8263 21.7491 53.8479 21.7929 53.8788C22.3005 54.2363 23.654 54.4564 23.654 54.4564C23.7491 54.7094 23.7724 54.9835 23.7214 55.2488H18.6526C18.7786 54.8228 18.8715 54.3878 18.9305 53.9476Z" fill="#263238"/>
<path opacity="0.2" d="M11.6486 51.29L8.99855 51.3141L8.99683 53.0571L11.4035 53.0365L11.6486 51.29Z" fill="black"/>
<path d="M8.62741 40.7282C8.26832 36.7351 7.14269 31.3564 8.42024 29.5205H17.0696C17.0696 29.5205 15.3069 37.4828 14.5836 41.1683C13.8326 44.9999 11.6728 52.3571 11.6728 52.3571L8.80869 52.3657C8.80869 52.3657 7.72277 45.287 8.62741 40.7282Z" fill="#FFCA40"/>
<path opacity="0.2" d="M9.14701 51.5494C9.1284 51.5492 9.11036 51.543 9.09547 51.5319C9.08058 51.5208 9.06961 51.5053 9.06414 51.4875C8.8587 50.8 8.8915 42.9013 9.40943 40.7388C9.40943 40.4534 9.349 39.893 9.27994 39.1831C9.04342 36.7765 8.60491 32.3072 9.25923 29.7717C9.26495 29.7489 9.27953 29.7293 9.29977 29.7172C9.32 29.7051 9.34423 29.7015 9.36713 29.7072C9.39002 29.7129 9.4097 29.7275 9.42185 29.7476C9.43399 29.7678 9.43759 29.7919 9.43187 29.8147C8.78446 32.3227 9.22125 36.7748 9.45604 39.1676C9.52682 39.8896 9.58379 40.4586 9.58725 40.7474C9.5881 40.7548 9.5881 40.7623 9.58725 40.7697C9.09004 42.8153 9.0417 50.7742 9.24196 51.4394C9.24844 51.4611 9.2461 51.4844 9.23544 51.5043C9.22477 51.5243 9.20665 51.5393 9.18499 51.546C9.17293 51.5508 9.15974 51.552 9.14701 51.5494Z" fill="white"/>
<path d="M8.6101 52.4724H11.854C11.88 52.4732 11.9053 52.4645 11.9253 52.4481C11.9453 52.4316 11.9586 52.4085 11.9628 52.383L12.1769 51.2365C12.18 51.2191 12.1791 51.2013 12.1744 51.1843C12.1697 51.1673 12.1613 51.1516 12.1497 51.1382C12.1381 51.1249 12.1237 51.1143 12.1075 51.1072C12.0913 51.1001 12.0737 51.0967 12.056 51.0972L8.52378 51.2536C8.50887 51.2541 8.49421 51.2575 8.4807 51.2638C8.46719 51.2701 8.45512 51.2791 8.44525 51.2902C8.43537 51.3013 8.4279 51.3143 8.42329 51.3284C8.41868 51.3426 8.41704 51.3575 8.41847 51.3723L8.49098 52.3624C8.49355 52.3922 8.50718 52.42 8.5292 52.4403C8.55122 52.4606 8.58006 52.4721 8.6101 52.4724Z" fill="#263238"/>
<path d="M20.008 15.6124C20.1806 16.3 20.3394 16.9876 20.4931 17.6752C20.6467 18.3628 20.7917 19.0504 20.9264 19.738L21.1336 20.7694L21.3269 21.8008C21.4599 22.4884 21.5773 23.1863 21.6981 23.8807L21.4167 23.2533C21.4543 23.3819 21.5354 23.4937 21.6463 23.5696C21.8673 23.7183 22.1164 23.8206 22.3783 23.8704C22.7275 23.9507 23.0836 23.9973 23.4418 24.0096C23.6334 24.02 23.8302 24.0268 24.0288 24.0234C24.1272 24.0234 24.2273 24.0234 24.3275 24.0234C24.4276 24.0234 24.5364 24.0234 24.6054 24.0234L24.8506 24.0406C25.0568 24.0538 25.2532 24.1334 25.4101 24.2674C25.567 24.4014 25.6758 24.5826 25.7203 24.7836C25.7647 24.9846 25.7423 25.1945 25.6564 25.3817C25.5705 25.5689 25.4258 25.7233 25.2442 25.8215C25.1061 25.8971 25.0077 25.9538 24.8903 26.014C24.7729 26.0741 24.6641 26.1257 24.545 26.1859C24.3136 26.2856 24.0771 26.3801 23.832 26.4592C23.5832 26.5403 23.3302 26.6081 23.0741 26.662C22.8043 26.7156 22.5317 26.7534 22.2575 26.7755C21.9613 26.7965 21.6638 26.7919 21.3684 26.7617C21.04 26.7343 20.7164 26.6661 20.405 26.5589C20.0557 26.443 19.724 26.2799 19.4192 26.0741C19.0979 25.8525 18.8116 25.5842 18.5698 25.2783C18.4656 25.1492 18.3881 25.0008 18.342 24.8416L18.2884 24.6508C18.0985 23.9735 17.9034 23.298 17.7239 22.6173L17.4494 21.5996L17.1887 20.5786C17.0161 19.891 16.8434 19.2137 16.6863 18.5295C16.5292 17.8454 16.3721 17.1544 16.2357 16.4668C16.138 15.9748 16.237 15.4642 16.5115 15.0437C16.7861 14.6232 17.2147 14.3261 17.706 14.2154C18.1973 14.1048 18.7126 14.1894 19.1422 14.4513C19.5718 14.7131 19.8818 15.1316 20.0062 15.6176L20.008 15.6124Z" fill="#FFC3BD"/>
<path d="M24.4846 24.1936L24.5209 25.3041C24.9715 26.3819 26.2628 25.5637 26.2628 25.5637L27.0432 25.421C27.179 25.3865 27.2983 25.3054 27.3798 25.1918C27.4613 25.0782 27.4999 24.9396 27.4886 24.8004L27.4679 24.0235C27.4731 23.8631 27.4152 23.707 27.3065 23.5885C27.1978 23.47 27.047 23.3985 26.8861 23.3892L26.1955 23.4029C25.994 23.4064 25.7964 23.4595 25.6206 23.5576L24.4846 24.1936Z" fill="#FFC3BD"/>
<path d="M18.6854 13.6975C20.2737 14.5295 21.3113 17.4655 21.3113 17.4655C20.9764 18.8407 19.6263 21.3487 18.3764 21.3332C18.3764 21.3332 16.5412 18.9765 16.3427 17.2713C16.101 15.2102 15.4743 12.0163 18.6854 13.6975Z" fill="#263238"/>
<path d="M17.2179 13.2095C14.7667 12.9774 12.2972 13.0166 9.85471 13.3264C8.4425 13.5241 7.43772 14.399 7.61036 17.28C7.95565 23.1245 7.42046 27.6798 8.16627 29.7804C8.16627 29.7804 19.0289 32.8746 22.1261 29.9094C22.8788 22.877 20.3444 17.0394 19.1912 14.6105C19.0106 14.228 18.7342 13.8982 18.3886 13.6529C18.043 13.4075 17.6399 13.2548 17.2179 13.2095Z" fill="#263238"/>
<path d="M16.4012 13.8489C16.1198 13.5739 15.8246 13.7337 15.6882 13.3195C15.6281 12.9942 15.683 12.6583 15.8436 12.3689L12.4926 10.5674C12.5582 11.7947 12.6083 12.7642 12.061 13.2524C11.9022 14.1669 13.6148 15.0797 15.8954 15.0935C17.3473 15.102 16.8069 14.2443 16.4012 13.8489Z" fill="#FFC3BD"/>
<path opacity="0.2" d="M15.7936 12.4718L13.1487 11.8135C13.8168 12.8603 15.0201 13.4328 15.6675 13.1801C15.649 12.9372 15.6924 12.6936 15.7936 12.4718Z" fill="black"/>
<path d="M14.6991 6.46567C12.9485 6.0789 11.4361 7.52628 11.7745 9.10431C12.1129 10.6823 12.3805 11.7481 13.4768 12.2844C15.6555 13.3536 16.719 12.3222 16.8968 10.6737C17.0574 9.18853 16.4756 6.85588 14.6991 6.46567Z" fill="#FFC3BD"/>
<path opacity="0.2" d="M14.3559 9.26779C14.15 9.21628 13.9322 9.24793 13.7495 9.35589C13.9555 9.36676 14.1615 9.33682 14.3559 9.26779Z" fill="black"/>
<path opacity="0.2" d="M14.3679 9.41381C14.271 9.40927 14.1744 9.4261 14.0848 9.46313C13.9953 9.50015 13.915 9.55645 13.8496 9.62802C14.0359 9.59509 14.2127 9.522 14.3679 9.41381Z" fill="black"/>
<path d="M11.9955 10.4385C12.9744 10.6568 13.3766 10.1686 13.3766 9.622C13.3766 9.04099 12.8259 8.05945 12.2217 7.87896C12.4375 6.58973 16.006 8.39465 15.6659 6.60863C15.6659 6.60863 15.5692 6.30266 14.6473 6.13076C13.7254 5.95886 11.2618 6.51237 11.4344 8.34652C11.6071 10.1807 11.9955 10.4385 11.9955 10.4385Z" fill="#263238"/>
<path d="M10.749 7.50606C10.9886 7.02735 11.0563 6.48133 10.9407 5.95898C10.9407 5.95898 12.0145 6.66548 10.749 7.50606Z" fill="#263238"/>
<path d="M15.2516 10.9283C15.3248 10.9228 15.3975 10.9119 15.4691 10.8956C15.4747 10.8944 15.4799 10.8921 15.4846 10.8889C15.4893 10.8856 15.4932 10.8814 15.4963 10.8767C15.4993 10.8719 15.5014 10.8665 15.5024 10.8609C15.5033 10.8553 15.5032 10.8496 15.5019 10.8441C15.5009 10.8384 15.4987 10.833 15.4955 10.8282C15.4923 10.8235 15.4881 10.8194 15.4832 10.8163C15.4784 10.8133 15.4729 10.8112 15.4672 10.8104C15.4615 10.8095 15.4557 10.8099 15.4501 10.8114C15.2708 10.855 15.0838 10.8562 14.9039 10.815C14.7241 10.7738 14.5564 10.6913 14.4142 10.5742C14.4102 10.57 14.4054 10.5667 14.4001 10.5645C14.3947 10.5622 14.389 10.561 14.3832 10.561C14.3774 10.561 14.3716 10.5622 14.3663 10.5645C14.3609 10.5667 14.3561 10.57 14.3521 10.5742C14.3441 10.5825 14.3396 10.5936 14.3396 10.6051C14.3396 10.6167 14.3441 10.6277 14.3521 10.6361C14.4751 10.7417 14.618 10.8219 14.7724 10.8721C14.9268 10.9222 15.0897 10.9414 15.2516 10.9283Z" fill="#263238"/>
<path d="M11.3758 10.5142C11.4879 10.6655 11.6288 10.7931 11.7906 10.8899C11.9524 10.9867 12.1318 11.0506 12.3185 11.0781C12.8208 11.1468 13.009 10.6844 12.8157 10.2478C12.643 9.85416 12.1734 9.34534 11.6969 9.47598C11.2204 9.60663 11.1031 10.1378 11.3758 10.5142Z" fill="#FFC3BD"/>
<path d="M14.6404 9.28501C14.6611 9.42434 14.751 9.52754 14.8425 9.51378C14.9341 9.50002 14.9928 9.37445 14.9721 9.23513C14.9514 9.09581 14.8633 8.99432 14.7717 9.00809C14.6801 9.02185 14.6283 9.13881 14.6404 9.28501Z" fill="#263238"/>
<path d="M16.2858 9.06527C16.3065 9.20631 16.3964 9.30779 16.4879 9.29403C16.5795 9.28027 16.6382 9.15643 16.6175 9.0171C16.5967 8.87778 16.5086 8.77458 16.4171 8.78834C16.3255 8.8021 16.2668 8.92594 16.2858 9.06527Z" fill="#263238"/>
<path d="M15.6643 9.24902L15.7437 10.4282C15.7437 10.4282 16.1322 10.4953 16.3428 10.2718C16.2091 9.87829 15.9753 9.52593 15.6643 9.24902Z" fill="#ED847E"/>
<path d="M14.0984 8.96733C14.0842 8.97116 14.0693 8.97111 14.0552 8.96718C14.0411 8.96325 14.0283 8.95558 14.0182 8.945C14.0081 8.93442 14.0011 8.92131 13.9978 8.90707C13.9946 8.89283 13.9953 8.87799 13.9999 8.86412C14.0327 8.73626 14.0956 8.61798 14.1833 8.51901C14.271 8.42003 14.381 8.34319 14.5043 8.29479C14.5252 8.28829 14.5477 8.29024 14.5672 8.30023C14.5866 8.31021 14.6012 8.32742 14.608 8.34811C14.6146 8.3691 14.6126 8.39182 14.6026 8.41142C14.5926 8.43102 14.5753 8.44595 14.5544 8.45303C14.4571 8.49257 14.3705 8.55447 14.3017 8.63369C14.233 8.71291 14.184 8.80719 14.1588 8.90884C14.1549 8.92308 14.1472 8.93602 14.1366 8.94631C14.126 8.95659 14.1128 8.96385 14.0984 8.96733Z" fill="#263238"/>
<path d="M16.8264 8.43967C16.8128 8.44092 16.799 8.43856 16.7866 8.43282C16.7742 8.42708 16.7635 8.41817 16.7556 8.40699C16.6965 8.32155 16.6176 8.2515 16.5256 8.20271C16.4336 8.15392 16.3312 8.12783 16.227 8.12662C16.2041 8.12662 16.1821 8.11756 16.1659 8.10143C16.1497 8.0853 16.1406 8.06343 16.1406 8.04062C16.1406 8.01781 16.1497 7.99593 16.1659 7.9798C16.1821 7.96368 16.2041 7.95462 16.227 7.95462C16.3586 7.95357 16.4885 7.98432 16.6055 8.04424C16.7226 8.10416 16.8233 8.19145 16.899 8.29862C16.9053 8.30743 16.9099 8.3174 16.9124 8.32796C16.9149 8.33852 16.9152 8.34946 16.9135 8.36017C16.9117 8.37087 16.9078 8.38112 16.9021 8.39033C16.8964 8.39955 16.8888 8.40754 16.88 8.41387C16.8733 8.42161 16.8651 8.4279 16.8559 8.43234C16.8467 8.43678 16.8367 8.43927 16.8264 8.43967Z" fill="#263238"/>
<path d="M26.886 19.6814C26.5245 19.7068 26.1759 19.8253 25.8743 20.0252L25.5618 16.0716C25.5362 15.764 25.3896 15.479 25.1538 15.2787C24.918 15.0784 24.6123 14.9791 24.3032 15.0024L12.7138 15.9117C12.4051 15.9376 12.1191 16.0837 11.918 16.3184C11.717 16.553 11.617 16.8572 11.6399 17.1648L12.5549 28.7043C12.5796 29.0122 12.726 29.2978 12.962 29.4983C13.198 29.6987 13.5043 29.7978 13.8135 29.7735L25.4012 28.8625C25.7104 28.8375 25.9971 28.6916 26.1986 28.4568C26.4002 28.222 26.5002 27.9173 26.4768 27.6093L26.1626 23.6643C26.4916 23.8178 26.8553 23.883 27.2174 23.8534C27.7376 23.7662 28.2061 23.4882 28.5306 23.0741C28.8551 22.66 29.012 22.1399 28.9704 21.6163C28.9288 21.0927 28.6917 20.6036 28.3058 20.2455C27.92 19.8873 27.4134 19.6861 26.886 19.6814Z" fill="#FFCA40"/>
<path d="M10.0809 18.1034L9.90824 18.4197L9.7097 18.7738C9.58195 19.0145 9.45074 19.2551 9.33162 19.4992C9.09224 19.9748 8.87787 20.4625 8.68939 20.9603C8.59789 21.201 8.51675 21.4399 8.45632 21.6754C8.38739 21.9009 8.33318 22.1306 8.29404 22.363C8.22159 22.7369 8.20936 23.1199 8.25779 23.4976L7.86071 22.81C8.02603 23.0357 8.22313 23.2366 8.44597 23.4064C8.73887 23.6392 9.04621 23.8533 9.36615 24.0476C9.69935 24.2608 10.0567 24.4653 10.4158 24.6699L10.9648 24.9742C11.1375 25.0773 11.3446 25.1804 11.5086 25.2801L11.5915 25.33C11.7748 25.4406 11.9165 25.6081 11.9947 25.8068C12.073 26.0054 12.0835 26.2242 12.0246 26.4293C11.9657 26.6345 11.8407 26.8147 11.6689 26.9422C11.497 27.0697 11.2879 27.1374 11.0736 27.1349C10.8112 27.1349 10.5867 27.1177 10.345 27.0988C10.1033 27.0799 9.87371 27.0507 9.63892 27.0129C9.16173 26.9415 8.68949 26.8405 8.22498 26.7103C7.73337 26.5731 7.25408 26.3955 6.79205 26.1792C6.24588 25.9287 5.74394 25.592 5.30561 25.1822C5.14789 25.0324 5.02935 24.8465 4.96032 24.6407L4.91198 24.4928C4.64165 23.6764 4.54063 22.8138 4.61504 21.9574C4.67368 21.2113 4.81732 20.4743 5.04319 19.7605C5.25352 19.0898 5.51437 18.4359 5.82353 17.8043C5.97373 17.4949 6.12738 17.1889 6.30003 16.8915C6.38462 16.742 6.47267 16.5924 6.56244 16.4446L6.70401 16.2211L6.77824 16.1077L6.86802 15.9753C7.14537 15.5574 7.57549 15.2638 8.06692 15.1567C8.55835 15.0497 9.07233 15.1378 9.49957 15.4022C9.92681 15.6666 10.2336 16.0865 10.3547 16.5727C10.4759 17.0588 10.4018 17.5728 10.1482 18.0054L10.0809 18.1034Z" fill="#FFC3BD"/>
<path d="M8.73256 13.6978C5.87015 15.2209 4.80322 18.6227 4.80322 18.6227C5.36949 19.6971 8.78435 20.8574 10.0688 20.5411C10.0688 20.5411 11.2997 18.3064 11.5535 16.309C11.7883 14.4576 10.4089 12.8057 8.73256 13.6978Z" fill="#263238"/>
<path d="M10.7354 25.4694L10.7941 26.5798C11.2671 27.649 12.5412 26.805 12.5412 26.805L13.3198 26.6469C13.4549 26.6098 13.5724 26.5262 13.6514 26.411C13.7304 26.2958 13.7658 26.1565 13.7514 26.0177L13.7169 25.2424C13.7211 25.0811 13.6617 24.9244 13.5513 24.8062C13.4409 24.6879 13.2884 24.6175 13.1264 24.6099L12.4359 24.6374C12.234 24.6465 12.0376 24.7056 11.8644 24.8093L10.7354 25.4694Z" fill="#FFC3BD"/>
</g>
<defs>
<clipPath id="clip0_1_12567">
<rect width="71" height="56" fill="white"/>
</clipPath>
</defs>
</svg>
